
<svg width="1600" height="900" fill="none" xmlns="http://www.w3.org/2000/svg">
  <path fill="#fff" d="M0 0h1600v900H0z"/>
  <path stroke="#000" stroke-width="5" d="M104.5 76v731M1170 809.5H102"/>
  <path d="M103.688 806.81s365.939-56.432 420.4-67.621c54.461-11.189 163.86-29.445 280.425-36.486 116.566-7.042 117.999-10.703 224.057-17.514 106.05-6.811 116.72-6.324 116.72-6.324" stroke="#1DADB2" stroke-width="5" stroke-miterlimit="1.024" stroke-dasharray="10 10"/>
  <path d="M331.399 771.297s88.918-15.081 188.702-52.54c99.785-37.46 157.677-72.487 237.947-135.244 80.27-62.756 94.378-72.972 186.811-181.945C1037.29 292.595 1143.5 101 1143.5 101" stroke="#1D57B2" stroke-width="5" stroke-miterlimit="1.024"/>
  <path d="M527.939 727.513s204.733-69.57 236.919-78.81c32.187-9.241 63.598 37.192 94.865 28.216 32.186-9.24 31.004-194.862 62.27-203.838 32.187-9.24 58.787 197.459 90.977 188.219 31.26-8.977 44.68-430.979 76.86-440.219 32.19-9.24 49.62 427.622 49.62 427.622" stroke="#FEDA9E" stroke-width="4" stroke-linejoin="round"/>
  <path d="M282.011 603.26l2.018-1.892-2.429-1.324C253.331 584.648 236 562.385 236 538c0-22.523 14.775-43.227 39.324-58.403C299.843 464.44 333.841 455 371.5 455s71.657 9.44 96.176 24.597C492.225 494.773 507 515.477 507 538c0 22.523-14.775 43.227-39.324 58.403C443.157 611.56 409.159 621 371.5 621c-24.929 0-48.267-4.137-68.317-11.341-.896-.322-1.916-.332-2.842-.251-.968.084-2.057.293-3.204.573-2.296.562-5.034 1.467-7.885 2.478-1.848.656-3.741 1.355-5.618 2.048-4.014 1.482-7.953 2.936-11.212 3.88-2.269.657-3.942.981-4.964.978a8.94 8.94 0 01.704-1.284c.575-.903 1.43-2.034 2.624-3.431 2.387-2.791 6.024-6.514 11.225-11.39zM914.888 146.213l-2.11 1.918 2.521 1.331C947.954 166.705 968 191.657 968 219c0 25.254-17.089 48.46-45.452 65.46C894.225 301.435 854.969 312 811.5 312c-43.469 0-82.725-10.565-111.048-27.54C672.089 267.46 655 244.254 655 219c0-25.254 17.089-48.46 45.452-65.46C728.775 136.565 768.031 126 811.5 126c28.776 0 55.721 4.63 78.872 12.695.961.335 2.074.351 3.123.262 1.09-.092 2.326-.32 3.639-.632 2.629-.624 5.771-1.63 9.055-2.76a561.56 561.56 0 006.456-2.281c4.634-1.659 9.195-3.292 12.965-4.35 2.802-.786 4.869-1.163 6.085-1.1l.144.01c-.135.379-.416.952-.945 1.757-.672 1.021-1.665 2.295-3.046 3.861-2.761 3.13-6.961 7.299-12.96 12.751z" fill="#1D8AB2" stroke="#1D8AB2" stroke-width="4"/>
  <path d="M63.89 525.375c3.641.344 6.485 1.687 8.532 4.031 2.031 2.344 3.047 5.461 3.047 9.352 0 2.719-.64 5.117-1.922 7.195-1.297 2.063-3.133 3.656-5.508 4.781-2.375 1.125-5.133 1.711-8.273 1.758h-3.188c-3.219 0-6.055-.57-8.508-1.711-2.453-1.14-4.343-2.773-5.672-4.898-1.328-2.141-1.992-4.61-1.992-7.406 0-3.766 1.024-6.797 3.07-9.094 2.047-2.297 4.938-3.633 8.672-4.008v5.906c-2.453.281-4.218 1-5.296 2.156-1.094 1.141-1.641 2.821-1.641 5.04 0 2.578.945 4.562 2.836 5.953 1.875 1.375 4.633 2.078 8.273 2.109h3.024c3.687 0 6.5-.656 8.437-1.969 1.938-1.328 2.906-3.265 2.906-5.812 0-2.328-.523-4.078-1.57-5.25-1.047-1.172-2.789-1.914-5.226-2.227v-5.906zm-14.25-26.32H75v5.695H54.234v7.172l8.836.469c4.25.296 7.305 1.117 9.164 2.461 1.844 1.328 2.766 3.367 2.766 6.117v1.758l-4.734.023-.118-1.172c-.171-1.25-.93-2.156-2.273-2.719-1.36-.578-3.828-.945-7.406-1.101l-10.828-.469v-18.234zm12.446-4.993c-2.484 0-4.719-.492-6.703-1.476-2-.984-3.531-2.367-4.594-4.149-1.078-1.781-1.617-3.828-1.617-6.14 0-3.422 1.101-6.195 3.305-8.32 2.203-2.141 5.125-3.297 8.765-3.469l1.336-.024c2.5 0 4.734.485 6.703 1.453 1.969.954 3.492 2.329 4.57 4.125 1.079 1.782 1.618 3.844 1.618 6.188 0 3.578-1.188 6.445-3.563 8.602-2.39 2.14-5.57 3.21-9.539 3.21h-.281zm.492-5.695c2.61 0 4.656-.539 6.14-1.617 1.47-1.078 2.204-2.578 2.204-4.5 0-1.922-.75-3.414-2.25-4.477-1.5-1.078-3.695-1.617-6.586-1.617-2.563 0-4.594.555-6.094 1.664-1.5 1.094-2.25 2.586-2.25 4.477 0 1.859.742 3.336 2.227 4.43 1.468 1.093 3.672 1.64 6.61 1.64zm2.227-44.508v3.024H75v5.695H64.805v3L75 461.414v6.984l-13.195-8.414-12.164 7.969v-6.961l9.96-5.742v-2.672h-9.96v-5.695h9.96v-2.696l-9.96-5.765v-6.961l12.093 7.945L75 430.945v7.078l-10.195 5.836zM75 405.937v5.696H64.758v9.867H75v5.695H49.64V421.5h10.57v-9.867H49.64v-5.696H75zm-12.914-5.015c-2.484 0-4.719-.492-6.703-1.477-2-.984-3.531-2.367-4.594-4.148-1.078-1.781-1.617-3.828-1.617-6.141 0-3.422 1.101-6.195 3.305-8.32 2.203-2.141 5.125-3.297 8.765-3.469l1.336-.023c2.5 0 4.734.484 6.703 1.453 1.969.953 3.492 2.328 4.57 4.125 1.079 1.781 1.618 3.844 1.618 6.187 0 3.578-1.188 6.446-3.563 8.602-2.39 2.141-5.57 3.211-9.539 3.211h-.281zm.492-5.695c2.61 0 4.656-.54 6.14-1.618 1.47-1.078 2.204-2.578 2.204-4.5 0-1.922-.75-3.414-2.25-4.476-1.5-1.078-3.695-1.617-6.586-1.617-2.563 0-4.594.554-6.094 1.664-1.5 1.093-2.25 2.586-2.25 4.476 0 1.86.742 3.336 2.227 4.43 1.468 1.094 3.672 1.641 6.61 1.641zm8.344-33.118c0-1.422-.414-2.601-1.242-3.539-.828-.937-1.852-1.437-3.07-1.5v-5.367c1.578.063 3.054.555 4.43 1.477 1.358.922 2.437 2.172 3.233 3.75.797 1.578 1.196 3.281 1.196 5.109 0 3.547-1.149 6.359-3.446 8.438-2.296 2.078-5.468 3.117-9.515 3.117h-.586c-3.86 0-6.945-1.032-9.258-3.094-2.328-2.063-3.492-4.875-3.492-8.438 0-3.015.883-5.468 2.648-7.359 1.75-1.906 4.055-2.906 6.914-3v5.367c-1.453.063-2.648.563-3.586 1.5-.937.922-1.406 2.102-1.406 3.539 0 1.844.672 3.266 2.016 4.266 1.328 1 3.351 1.508 6.07 1.523h.914c2.75 0 4.805-.492 6.164-1.476 1.344-1 2.016-2.438 2.016-4.313zm-16.758-34.664v8.227H75v5.695H54.164v8.133h-4.523v-22.055h4.523zm3.54-9.937v-5.578c0-2.078.358-3.891 1.077-5.438.719-1.547 1.727-2.719 3.024-3.515 1.297-.813 2.804-1.219 4.523-1.219 2.61 0 4.703.922 6.281 2.765 1.579 1.844 2.375 4.297 2.391 7.36v11.32H49.64v-5.695h8.063zm4.57 0h8.18v-5.555c0-1.391-.345-2.484-1.032-3.281-.703-.813-1.695-1.219-2.977-1.219-1.28 0-2.289.399-3.023 1.195-.75.782-1.133 1.844-1.149 3.188v5.672z" fill="#000"/>
  <path d="M768.035 201.457c.156 1.234.527 2.113 1.113 2.637.594.523 1.465.785 2.614.785 1.218 0 2.16-.445 2.824-1.336.672-.891 1.031-2.176 1.078-3.855h-6.023v-2.391h6.023c-.062-1.688-.441-2.977-1.137-3.867-.687-.891-1.656-1.336-2.906-1.336-1.094 0-1.933.273-2.519.82-.579.547-.938 1.438-1.079 2.672h-2.953c.188-1.859.852-3.305 1.992-4.336 1.149-1.031 2.668-1.547 4.559-1.547 1.399 0 2.629.328 3.691.985 1.063.656 1.879 1.593 2.45 2.812.578 1.219.871 2.629.879 4.23v1.442c0 1.617-.282 3.039-.844 4.266-.555 1.218-1.356 2.156-2.402 2.812-1.047.656-2.258.984-3.633.984-1.938 0-3.492-.507-4.664-1.523-1.172-1.023-1.844-2.441-2.016-4.254h2.953zm23.156-4.875h-4.113V207h-2.848v-10.418h-4.066v-2.262h11.027v2.262zm1.02 3.961c0-1.242.246-2.359.738-3.352.492-1 1.184-1.765 2.074-2.296.891-.54 1.915-.809 3.071-.809 1.711 0 3.097.551 4.16 1.652 1.07 1.102 1.648 2.563 1.734 4.383l.012.668c0 1.25-.242 2.367-.727 3.352-.476.984-1.164 1.746-2.062 2.285-.891.539-1.922.808-3.094.808-1.789 0-3.222-.593-4.301-1.781-1.07-1.195-1.605-2.785-1.605-4.769v-.141zm2.848.246c0 1.305.269 2.328.808 3.07.539.735 1.289 1.102 2.25 1.102.961 0 1.707-.375 2.238-1.125.54-.75.809-1.848.809-3.293 0-1.281-.277-2.297-.832-3.047-.547-.75-1.293-1.125-2.238-1.125-.93 0-1.668.371-2.215 1.113-.547.735-.82 1.836-.82 3.305zm23.296-5.766c1.594 0 2.872.536 3.833 1.606.96 1.062 1.441 2.508 1.441 4.336v.14c0 1.829-.524 3.309-1.57 4.442-1.039 1.133-2.454 1.699-4.243 1.699-1.742 0-3.148-.578-4.218-1.734-1.071-1.157-1.606-2.735-1.606-4.735v-.82c0-2.734.485-4.898 1.453-6.492.969-1.594 2.414-2.59 4.336-2.988 1.078-.219 1.774-.45 2.086-.692.321-.25.481-.586.481-1.008h2.297c0 .789-.129 1.43-.387 1.922s-.653.895-1.184 1.207c-.531.305-1.445.594-2.742.867-1.187.25-2.094.696-2.719 1.336-.617.641-1.031 1.528-1.242 2.661 1.133-1.165 2.461-1.747 3.984-1.747zm-.562 2.286c-.922 0-1.645.312-2.168.937-.523.617-.785 1.57-.785 2.859 0 1.219.258 2.168.773 2.848.516.68 1.25 1.02 2.203 1.02.946 0 1.676-.34 2.192-1.02.523-.687.785-1.719.785-3.094 0-1.093-.262-1.957-.785-2.589-.516-.641-1.254-.961-2.215-.961zm11.133 1.043h2.789c1.039 0 1.945.179 2.719.539.773.359 1.359.863 1.757 1.511.407.649.61 1.403.61 2.262 0 1.305-.461 2.352-1.383 3.141-.922.789-2.148 1.187-3.68 1.195h-5.66v-12.68h2.848v4.032zM841.758 207h-2.848v-12.68h2.848V207zm-12.832-6.363v4.09h2.777c.695 0 1.242-.172 1.641-.516.406-.352.609-.848.609-1.488 0-.641-.199-1.145-.598-1.512-.39-.375-.921-.566-1.593-.574h-2.836zm27.023-6.317V207h-2.847v-10.383h-3.586l-.235 4.418c-.148 2.125-.558 3.653-1.23 4.582-.664.922-1.684 1.383-3.059 1.383h-.879l-.011-2.367.586-.059c.624-.086 1.078-.465 1.359-1.136.289-.68.473-1.915.551-3.704l.234-5.414h9.117zm2.496 6.223c0-1.242.246-2.359.739-3.352.492-1 1.183-1.765 2.074-2.296.89-.54 1.914-.809 3.07-.809 1.711 0 3.098.551 4.16 1.652 1.071 1.102 1.649 2.563 1.735 4.383l.011.668c0 1.25-.242 2.367-.726 3.352-.477.984-1.164 1.746-2.063 2.285-.89.539-1.922.808-3.093.808-1.79 0-3.223-.593-4.301-1.781-1.071-1.195-1.606-2.785-1.606-4.769v-.141zm2.848.246c0 1.305.269 2.328.809 3.07.539.735 1.289 1.102 2.25 1.102.96 0 1.707-.375 2.238-1.125.539-.75.808-1.848.808-3.293 0-1.281-.277-2.297-.832-3.047-.546-.75-1.293-1.125-2.238-1.125-.93 0-1.668.371-2.215 1.113-.547.735-.82 1.836-.82 3.305zm-123.82 26.172c.711 0 1.3-.207 1.769-.621a2.12 2.12 0 00.75-1.535h2.684a4.221 4.221 0 01-.738 2.215c-.461.679-1.086 1.218-1.876 1.617a5.59 5.59 0 01-2.554.597c-1.774 0-3.18-.574-4.219-1.722-1.039-1.149-1.559-2.735-1.559-4.758v-.293c0-1.93.516-3.473 1.547-4.629 1.032-1.164 2.438-1.746 4.219-1.746 1.508 0 2.734.441 3.68 1.324.953.875 1.453 2.028 1.5 3.457h-2.684c-.031-.726-.281-1.324-.75-1.793-.461-.469-1.051-.703-1.769-.703-.922 0-1.633.336-2.133 1.008-.5.664-.754 1.676-.762 3.035v.457c0 1.375.246 2.402.738 3.082.5.672 1.219 1.008 2.157 1.008zm18.129-10.641V229h-2.848v-10.383h-3.586l-.234 4.418c-.149 2.125-.559 3.653-1.231 4.582-.664.922-1.683 1.383-3.058 1.383h-.879l-.012-2.367.586-.059c.625-.086 1.078-.465 1.359-1.136.289-.68.473-1.915.551-3.704l.234-5.414h9.118zm2.496 6.223c0-1.242.246-2.359.738-3.352.492-1 1.184-1.765 2.074-2.296.891-.54 1.914-.809 3.07-.809 1.711 0 3.098.551 4.161 1.652 1.07 1.102 1.648 2.563 1.734 4.383l.012.668c0 1.25-.242 2.367-.727 3.352-.476.984-1.164 1.746-2.062 2.285-.891.539-1.922.808-3.094.808-1.789 0-3.223-.593-4.301-1.781-1.07-1.195-1.605-2.785-1.605-4.769v-.141zm2.847.246c0 1.305.27 2.328.809 3.07.539.735 1.289 1.102 2.25 1.102.961 0 1.707-.375 2.238-1.125.539-.75.809-1.848.809-3.293 0-1.281-.278-2.297-.832-3.047-.547-.75-1.293-1.125-2.239-1.125-.929 0-1.668.371-2.214 1.113-.547.735-.821 1.836-.821 3.305zm22.254 1.113h-1.511V229h-2.848v-5.098h-1.5L774.422 229h-3.492l4.207-6.598-3.985-6.082h3.481l2.871 4.981h1.336v-4.981h2.848v4.981h1.347l2.883-4.981h3.48l-3.972 6.047 4.23 6.633h-3.539l-2.918-5.098zM802.16 229h-2.848v-5.121h-4.933V229h-2.848v-12.68h2.848v5.285h4.933v-5.285h2.848V229zm8.625.234c-1.805 0-3.269-.566-4.394-1.699-1.118-1.14-1.676-2.656-1.676-4.547v-.351c0-1.266.242-2.395.726-3.387.493-1 1.18-1.777 2.063-2.332.883-.555 1.867-.832 2.953-.832 1.727 0 3.059.551 3.996 1.652.945 1.102 1.418 2.66 1.418 4.676v1.148h-8.285c.086 1.047.434 1.876 1.043 2.485.617.609 1.391.914 2.32.914 1.305 0 2.367-.527 3.188-1.582l1.535 1.465a5.165 5.165 0 01-2.039 1.769c-.844.414-1.793.621-2.848.621zm-.34-10.863c-.781 0-1.414.274-1.898.82-.477.547-.781 1.309-.914 2.286h5.426v-.211c-.063-.954-.317-1.672-.762-2.157-.445-.492-1.063-.738-1.852-.738zm13.231 10.863c-1.805 0-3.27-.566-4.395-1.699-1.117-1.14-1.676-2.656-1.676-4.547v-.351c0-1.266.243-2.395.727-3.387.492-1 1.18-1.777 2.063-2.332.882-.555 1.867-.832 2.953-.832 1.726 0 3.058.551 3.996 1.652.945 1.102 1.418 2.66 1.418 4.676v1.149l-8.285-.001c.085 1.047.433 1.876 1.043 2.485.617.609 1.39.914 2.32.914 1.305 0 2.367-.527 3.187-1.582l1.535 1.465a5.15 5.15 0 01-2.039 1.769c-.843.414-1.793.621-2.847.621zm-.34-10.863c-.781 0-1.414.274-1.898.82-.477.547-.782 1.309-.915 2.286h5.426v-.211c-.062-.953-.316-1.672-.761-2.157-.446-.492-1.063-.738-1.852-.738zm8.051 14.473l-1.535-.914c.453-.711.761-1.332.925-1.864a5.36 5.36 0 00.27-1.605v-2.215h2.566l-.011 2.051c-.008.828-.219 1.656-.633 2.484-.407.836-.934 1.524-1.582 2.063zM852.398 229h-2.847v-4.23a10.21 10.21 0 01-2.321.257c-1.734 0-3.058-.414-3.972-1.242-.914-.836-1.371-2.031-1.371-3.586v-3.89h2.847v3.89c0 .922.204 1.574.61 1.957.414.383 1.043.574 1.886.574.766 0 1.54-.089 2.321-.269v-6.141h2.847V229zm8.614.234c-1.805 0-3.27-.566-4.395-1.699-1.117-1.14-1.676-2.656-1.676-4.547v-.351c0-1.266.243-2.395.727-3.387.492-1 1.18-1.777 2.062-2.332.883-.555 1.868-.832 2.954-.832 1.726 0 3.058.551 3.996 1.652.945 1.102 1.418 2.66 1.418 4.676v1.149h-8.286c.086 1.046.434 1.875 1.043 2.484.618.609 1.391.914 2.321.914 1.304 0 2.367-.527 3.187-1.582l1.535 1.465a5.15 5.15 0 01-2.039 1.769c-.843.414-1.793.621-2.847.621zm-.34-10.863c-.781 0-1.414.274-1.899.82-.476.547-.781 1.309-.914 2.286h5.426v-.211c-.062-.953-.316-1.672-.762-2.157-.445-.492-1.062-.738-1.851-.738zm15.176 7.125l3.75-9.176h3.562V229h-2.848v-8.391L876.82 229h-1.933l-3.504-8.437V229h-2.848v-12.68h3.586l3.727 9.176zm26.648-9.176V229h-2.836v-4.652H897L894.293 229h-2.953l2.988-5.121c-.781-.328-1.383-.797-1.805-1.406-.414-.61-.621-1.309-.621-2.098 0-1.18.453-2.145 1.36-2.895.914-.757 2.144-1.144 3.691-1.16h5.543zm-7.746 4.125c0 .532.195.965.586 1.301.398.328.906.492 1.523.492h2.801v-3.656h-2.625c-.695 0-1.25.176-1.664.527a1.678 1.678 0 00-.621 1.336zm-111.445 28.282c.789-.883 1.316-1.719 1.582-2.508.273-.797.437-1.813.492-3.047l.164-4.852h8.801v10.407h1.758v6.046h-2.836V251h-8.133v3.773h-2.883l.012-6.046h1.043zm3.34 0h4.863v-7.957h-3.199l-.082 2.425c-.11 2.328-.637 4.172-1.582 5.532zm15.925-1.805l2.578-8.602h3.036l-5.039 14.602c-.774 2.133-2.086 3.199-3.938 3.199-.414 0-.871-.07-1.371-.211v-2.203l.539.035c.719 0 1.258-.133 1.617-.398.367-.258.656-.696.867-1.313l.411-1.09-4.454-12.621h3.071l2.683 8.602zm14.789.574l3.75-9.176h3.563V251h-2.848v-8.391L818.332 251h-1.934l-3.503-8.438V251h-2.848v-12.68h3.586l3.726 9.176zM835.453 251c-.125-.242-.234-.637-.328-1.184-.906.946-2.016 1.418-3.328 1.418-1.274 0-2.313-.363-3.117-1.089-.805-.727-1.207-1.625-1.207-2.696 0-1.351.5-2.387 1.5-3.105 1.007-.727 2.445-1.09 4.312-1.09h1.746v-.832c0-.656-.183-1.18-.551-1.57-.367-.399-.925-.598-1.675-.598-.649 0-1.18.164-1.594.492-.414.32-.621.731-.621 1.231h-2.848c0-.696.231-1.344.692-1.946.461-.609 1.086-1.086 1.875-1.429.796-.344 1.683-.516 2.66-.516 1.484 0 2.668.375 3.551 1.125.882.742 1.335 1.789 1.359 3.141v5.718c0 1.141.16 2.051.48 2.731V251h-2.906zm-3.129-2.051c.563 0 1.09-.137 1.582-.41.5-.273.875-.641 1.125-1.101v-2.391h-1.535c-1.055 0-1.848.183-2.379.551-.531.367-.797.886-.797 1.558 0 .547.18.985.539 1.313.368.32.856.48 1.465.48zm19.313-10.629V251h-2.848v-10.383h-3.586l-.234 4.418c-.149 2.125-.559 3.653-1.231 4.582-.664.922-1.683 1.383-3.058 1.383h-.879l-.012-2.367.586-.059c.625-.086 1.078-.465 1.359-1.136.289-.68.473-1.915.551-3.704l.235-5.414h9.117zM280.152 528.938h2.965V546h-2.965v-12.152L272.664 546h-2.965v-17.062h2.965v12.164l7.488-12.164zm15.844 7.851c0 .563-.172 1.082-.516 1.559-.335.468-.812.843-1.429 1.125 1.453.507 2.179 1.488 2.179 2.941 0 1.164-.472 2.094-1.418 2.789-.945.688-2.21 1.031-3.796 1.031-.969 0-1.852-.16-2.649-.48-.797-.328-1.418-.789-1.863-1.383-.445-.601-.668-1.312-.668-2.133h2.836c0 .516.23.95.691 1.301.461.344 1.043.516 1.746.516.696 0 1.246-.16 1.653-.481.414-.328.621-.754.621-1.277 0-.617-.18-1.063-.539-1.336-.36-.273-.914-.41-1.664-.41h-2.039V538.5h2.109c1.273-.016 1.91-.539 1.91-1.57 0-.516-.183-.918-.551-1.207-.367-.289-.871-.434-1.511-.434-.625 0-1.153.156-1.582.469-.43.304-.645.691-.645 1.16h-2.836c0-1.117.469-2.031 1.406-2.742.938-.719 2.129-1.078 3.575-1.078 1.57 0 2.793.32 3.668.961.875.64 1.312 1.55 1.312 2.73zm10.57-3.469h2.836V546h-2.836v-8.461L301.598 546h-2.836v-12.68h2.836v8.461l4.968-8.461zm8.883 7.653H313l-.27-12.035h3l-.281 12.035zm-2.801 3.679c0-.445.145-.812.434-1.101.289-.297.684-.446 1.184-.446.5 0 .894.149 1.183.446.289.289.434.656.434 1.101 0 .43-.141.789-.422 1.078-.281.29-.68.434-1.195.434-.516 0-.914-.144-1.196-.434a1.485 1.485 0 01-.422-1.078zm22.934-15.714h2.965V546h-2.965v-12.152L328.094 546h-2.965v-17.062h2.965v12.164l7.488-12.164zm15.844 7.851c0 .563-.172 1.082-.516 1.559-.336.468-.812.843-1.43 1.125 1.454.507 2.18 1.488 2.18 2.941 0 1.164-.472 2.094-1.418 2.789-.945.688-2.211 1.031-3.797 1.031-.968 0-1.851-.16-2.648-.48-.797-.328-1.418-.789-1.863-1.383-.446-.601-.668-1.312-.668-2.133h2.836c0 .516.23.95.691 1.301.461.344 1.043.516 1.746.516.695 0 1.246-.16 1.652-.481.414-.328.621-.754.621-1.277 0-.617-.179-1.063-.539-1.336-.359-.273-.914-.41-1.664-.41h-2.039V538.5h2.11c1.273-.016 1.91-.539 1.91-1.57 0-.516-.184-.918-.551-1.207-.367-.289-.871-.434-1.512-.434-.625 0-1.152.156-1.582.469-.429.304-.644.691-.644 1.16h-2.836c0-1.117.469-2.031 1.406-2.742.938-.719 2.129-1.078 3.574-1.078 1.571 0 2.793.32 3.668.961.875.64 1.313 1.55 1.313 2.73zm12.808-3.469V546h-2.836v-4.652h-2.66L356.031 546h-2.953l2.988-5.121c-.781-.328-1.382-.797-1.804-1.406-.414-.61-.621-1.309-.621-2.098 0-1.18.453-2.145 1.359-2.895.914-.757 2.145-1.144 3.691-1.16h5.543zm-7.746 4.125c0 .532.196.965.586 1.301.399.328.906.492 1.524.492h2.8v-3.656h-2.625c-.695 0-1.25.176-1.664.527a1.678 1.678 0 00-.621 1.336zM378.133 546h-2.848v-5.121h-4.933V546h-2.848v-12.68h2.848v5.285h4.933v-5.285h2.848V546zm6.058-5.027h-2.449l-.269-12.035h3l-.282 12.035zm-2.8 3.679c0-.445.144-.812.433-1.101.289-.297.684-.446 1.184-.446.5 0 .894.149 1.183.446.289.289.434.656.434 1.101 0 .43-.141.789-.422 1.078-.281.29-.68.434-1.195.434-.516 0-.914-.144-1.196-.434-.281-.289-.421-.648-.421-1.078zm22.933-15.714h2.965V546h-2.965v-12.152L396.836 546h-2.965v-17.062h2.965v12.164l7.488-12.164zm15.844 7.851c0 .563-.172 1.082-.516 1.559-.336.468-.812.843-1.429 1.125 1.453.507 2.179 1.488 2.179 2.941 0 1.164-.472 2.094-1.418 2.789-.945.688-2.211 1.031-3.796 1.031-.969 0-1.852-.16-2.649-.48-.797-.328-1.418-.789-1.863-1.383-.446-.601-.668-1.312-.668-2.133h2.836c0 .516.23.95.691 1.301.461.344 1.043.516 1.746.516.696 0 1.246-.16 1.653-.481.414-.328.621-.754.621-1.277 0-.617-.18-1.063-.539-1.336-.36-.273-.914-.41-1.664-.41h-2.04V538.5h2.11c1.273-.016 1.91-.539 1.91-1.57 0-.516-.184-.918-.551-1.207-.367-.289-.871-.434-1.511-.434-.625 0-1.153.156-1.582.469-.43.304-.645.691-.645 1.16h-2.836c0-1.117.469-2.031 1.406-2.742.938-.719 2.129-1.078 3.575-1.078 1.57 0 2.792.32 3.667.961.875.64 1.313 1.55 1.313 2.73zm10.57-3.469h2.836V546h-2.836v-8.461L425.77 546h-2.836v-12.68h2.836v8.461l4.968-8.461zm8.731 0v10.407h3.961V533.32h2.847v10.407h3.973V533.32h2.836v10.407h2.168l-.234 6.035h-2.59V546h-15.809v-12.68h2.848zm23.273 12.914c-1.804 0-3.269-.566-4.394-1.699-1.118-1.14-1.676-2.656-1.676-4.547v-.351c0-1.266.242-2.395.726-3.387.493-1 1.18-1.777 2.063-2.332.883-.555 1.867-.832 2.953-.832 1.727 0 3.059.551 3.996 1.652.945 1.102 1.418 2.66 1.418 4.676v1.148h-8.285c.086 1.047.434 1.876 1.043 2.485.617.609 1.391.914 2.32.914 1.305 0 2.367-.527 3.188-1.582l1.535 1.465a5.165 5.165 0 01-2.039 1.769c-.844.414-1.793.621-2.848.621zm-.34-10.863c-.781 0-1.414.274-1.898.82-.477.547-.781 1.309-.914 2.286h5.426v-.211c-.063-.954-.317-1.672-.762-2.157-.445-.492-1.063-.738-1.852-.738zm10.664 5.602h-2.449l-.269-12.035h3l-.282 12.035zm-2.8 3.679c0-.445.144-.812.433-1.101.289-.297.684-.446 1.184-.446.5 0 .894.149 1.183.446.289.289.434.656.434 1.101 0 .43-.141.789-.422 1.078-.281.29-.68.434-1.195.434-.516 0-.914-.144-1.195-.434-.282-.289-.422-.648-.422-1.078z" fill="#fff"/>
  <path d="M1274.7 87.66V94h-2.97V76.937h6.53c1.91 0 3.42.497 4.54 1.489 1.12.992 1.68 2.305 1.68 3.937 0 1.672-.55 2.973-1.65 3.903-1.09.93-2.63 1.394-4.6 1.394h-3.53zm0-2.379h3.56c1.06 0 1.86-.246 2.42-.738.55-.5.83-1.219.83-2.156 0-.922-.28-1.656-.85-2.203-.56-.555-1.33-.84-2.32-.856h-3.64v5.953zm17.53 8.953c-1.8 0-3.27-.566-4.39-1.699-1.12-1.14-1.68-2.656-1.68-4.547v-.351c0-1.266.24-2.395.73-3.387.49-1 1.18-1.777 2.06-2.332.88-.555 1.87-.832 2.95-.832 1.73 0 3.06.55 4 1.652.94 1.102 1.42 2.66 1.42 4.676v1.148h-8.29c.09 1.047.43 1.876 1.04 2.485.62.61 1.39.914 2.32.914 1.31 0 2.37-.527 3.19-1.582l1.54 1.465a5.19 5.19 0 01-2.04 1.77c-.85.413-1.79.62-2.85.62zm-.34-10.863c-.78 0-1.41.273-1.9.82-.47.547-.78 1.309-.91 2.286h5.42v-.211c-.06-.954-.31-1.672-.76-2.157-.44-.492-1.06-.738-1.85-.738zM1307.11 94c-.12-.242-.23-.637-.32-1.184-.91.946-2.02 1.418-3.33 1.418-1.28 0-2.32-.363-3.12-1.09-.8-.726-1.21-1.625-1.21-2.695 0-1.351.5-2.386 1.5-3.105 1.01-.727 2.45-1.09 4.32-1.09h1.74v-.832c0-.656-.18-1.18-.55-1.57-.37-.399-.93-.598-1.68-.598-.64 0-1.17.164-1.59.492-.41.32-.62.73-.62 1.23h-2.85c0-.695.23-1.343.69-1.945.46-.61 1.09-1.086 1.88-1.43.8-.343 1.68-.515 2.66-.515 1.48 0 2.67.375 3.55 1.125.88.742 1.34 1.789 1.36 3.14v5.72c0 1.14.16 2.05.48 2.73V94h-2.91zm-3.13-2.05c.57 0 1.09-.138 1.59-.41.5-.274.87-.642 1.12-1.103v-2.39h-1.53c-1.06 0-1.85.184-2.38.55-.53.368-.8.887-.8 1.56 0 .546.18.984.54 1.312.37.32.86.48 1.46.48zm19.32-10.63V94h-2.85V83.617h-3.59l-.23 4.418c-.15 2.125-.56 3.653-1.23 4.582-.67.922-1.69 1.383-3.06 1.383h-.88l-.01-2.367.59-.059c.62-.086 1.07-.465 1.35-1.136.29-.68.48-1.915.56-3.704l.23-5.414h9.12zm6.09 4.032h2.79c1.04 0 1.94.18 2.72.539.77.359 1.36.863 1.76 1.511.4.649.61 1.403.61 2.262 0 1.305-.47 2.352-1.39 3.14-.92.79-2.15 1.188-3.68 1.196h-5.66V81.32h2.85v4.032zm0 2.285v4.09h2.78c.69 0 1.24-.172 1.64-.516.4-.352.61-.848.61-1.488 0-.641-.2-1.145-.6-1.512-.39-.375-.92-.567-1.59-.574h-2.84zm20.9 6.363h-2.85v-5.121h-4.94V94h-2.84V81.32h2.84v5.286h4.94V81.32h2.85V94zm10.61 0c-.12-.242-.23-.637-.33-1.184-.9.946-2.01 1.418-3.32 1.418-1.28 0-2.32-.363-3.12-1.09-.81-.726-1.21-1.625-1.21-2.695 0-1.351.5-2.386 1.5-3.105 1.01-.727 2.45-1.09 4.31-1.09h1.75v-.832c0-.656-.18-1.18-.55-1.57-.37-.399-.93-.598-1.68-.598-.64 0-1.18.164-1.59.492-.41.32-.62.73-.62 1.23h-2.85c0-.695.23-1.343.69-1.945.46-.61 1.09-1.086 1.88-1.43.79-.343 1.68-.515 2.66-.515 1.48 0 2.67.375 3.55 1.125.88.742 1.33 1.789 1.36 3.14v5.72c0 1.14.16 2.05.48 2.73V94h-2.91zm-3.13-2.05c.57 0 1.09-.138 1.59-.41.5-.274.87-.642 1.12-1.103v-2.39h-1.53c-1.06 0-1.85.184-2.38.55-.53.368-.8.887-.8 1.56 0 .546.18.984.54 1.312.37.32.85.48 1.46.48zm18.69-10.63V94h-2.83v-4.652h-2.66L1368.26 94h-2.95l2.99-5.121c-.78-.328-1.39-.797-1.81-1.406-.41-.61-.62-1.309-.62-2.098 0-1.18.45-2.144 1.36-2.894.91-.758 2.15-1.145 3.69-1.16h5.54zm-7.74 4.125c0 .532.19.965.58 1.301.4.328.91.492 1.53.492h2.8v-3.656H1371c-.69 0-1.25.176-1.66.527-.41.352-.62.797-.62 1.336zm-92.05 28.516c.71 0 1.3-.207 1.77-.621.47-.414.72-.926.75-1.535h2.68c-.03.789-.28 1.527-.74 2.215-.46.679-1.08 1.218-1.87 1.617a5.6 5.6 0 01-2.56.597c-1.77 0-3.18-.574-4.22-1.722-1.03-1.149-1.55-2.735-1.55-4.758v-.293c0-1.93.51-3.473 1.54-4.629 1.03-1.164 2.44-1.746 4.22-1.746 1.51 0 2.74.441 3.68 1.324.95.875 1.45 2.028 1.5 3.457h-2.68c-.03-.726-.28-1.324-.75-1.793-.46-.469-1.05-.703-1.77-.703-.92 0-1.63.336-2.13 1.008-.5.664-.76 1.676-.77 3.035v.457c0 1.375.25 2.402.74 3.082.5.672 1.22 1.008 2.16 1.008zm18.13-10.641V116h-2.85v-10.383h-3.59l-.23 4.418c-.15 2.125-.56 3.653-1.23 4.582-.67.922-1.69 1.383-3.06 1.383h-.88l-.01-2.367.59-.059c.62-.086 1.07-.465 1.35-1.136.29-.68.48-1.915.56-3.704l.23-5.414h9.12zm2.49 6.223c0-1.242.25-2.359.74-3.352.49-1 1.18-1.765 2.08-2.296.89-.54 1.91-.809 3.07-.809 1.71 0 3.09.551 4.16 1.652 1.07 1.102 1.64 2.563 1.73 4.383l.01.668c0 1.25-.24 2.367-.72 3.352-.48.984-1.17 1.746-2.07 2.285-.89.539-1.92.808-3.09.808-1.79 0-3.22-.593-4.3-1.781-1.07-1.195-1.61-2.785-1.61-4.769v-.141zm2.85.246c0 1.305.27 2.328.81 3.07.54.735 1.29 1.102 2.25 1.102s1.71-.375 2.24-1.125c.54-.75.81-1.848.81-3.293 0-1.281-.28-2.297-.84-3.047-.54-.75-1.29-1.125-2.23-1.125-.93 0-1.67.371-2.22 1.113-.55.735-.82 1.836-.82 3.305zm22.25 1.113h-1.51V116h-2.84v-5.098h-1.5l-2.92 5.098h-3.5l4.21-6.598-3.98-6.082h3.48l2.87 4.981h1.34v-4.981h2.84v4.981h1.35l2.88-4.981h3.48l-3.97 6.047 4.23 6.633h-3.54l-2.92-5.098zm18.97 5.098h-2.85v-5.121h-4.94V116h-2.84v-12.68h2.84v5.285h4.94v-5.285h2.85V116zm2.5-6.457c0-1.242.25-2.359.74-3.352.49-1 1.19-1.765 2.08-2.296.89-.54 1.91-.809 3.07-.809 1.71 0 3.09.551 4.16 1.652 1.07 1.102 1.64 2.563 1.73 4.383l.01.668c0 1.25-.24 2.367-.72 3.352-.48.984-1.17 1.746-2.07 2.285-.89.539-1.92.808-3.09.808-1.79 0-3.22-.593-4.3-1.781-1.07-1.195-1.61-2.785-1.61-4.769v-.141zm2.85.246c0 1.305.27 2.328.81 3.07.54.735 1.29 1.102 2.25 1.102s1.71-.375 2.24-1.125c.54-.75.81-1.848.81-3.293 0-1.281-.28-2.297-.84-3.047-.54-.75-1.29-1.125-2.23-1.125-.93 0-1.67.371-2.22 1.113-.55.735-.82 1.836-.82 3.305zm16.56 4.172c.71 0 1.3-.207 1.77-.621.47-.414.72-.926.75-1.535h2.68a4.13 4.13 0 01-.74 2.215c-.46.679-1.08 1.218-1.87 1.617a5.6 5.6 0 01-2.56.597c-1.77 0-3.18-.574-4.21-1.722-1.04-1.149-1.56-2.735-1.56-4.758v-.293c0-1.93.51-3.473 1.54-4.629 1.04-1.164 2.44-1.746 4.22-1.746 1.51 0 2.74.441 3.68 1.324.96.875 1.46 2.028 1.5 3.457h-2.68c-.03-.726-.28-1.324-.75-1.793-.46-.469-1.05-.703-1.77-.703-.92 0-1.63.336-2.13 1.008-.5.664-.76 1.676-.76 3.035v.457c0 1.375.24 2.402.73 3.082.5.672 1.22 1.008 2.16 1.008zm17.33-8.379h-4.11V116h-2.85v-10.418h-4.07v-2.262h11.03v2.262zm4.97 1.77h2.79c1.04 0 1.94.179 2.72.539.77.359 1.36.863 1.76 1.511.4.649.61 1.403.61 2.262 0 1.305-.47 2.352-1.39 3.141-.92.789-2.15 1.187-3.68 1.195h-5.66v-12.68h2.85v4.032zm0 2.285v4.09h2.78c.69 0 1.24-.172 1.64-.516.4-.352.61-.848.61-1.488 0-.641-.2-1.145-.6-1.512-.39-.375-.92-.566-1.59-.574h-2.84zM1274.22 392.457c.16 1.234.53 2.113 1.11 2.637.6.523 1.47.785 2.62.785 1.21 0 2.16-.445 2.82-1.336.67-.891 1.03-2.176 1.08-3.855h-6.03v-2.391h6.03c-.06-1.688-.44-2.977-1.14-3.867-.69-.891-1.66-1.336-2.91-1.336-1.09 0-1.93.273-2.51.82-.58.547-.94 1.438-1.08 2.672h-2.96c.19-1.859.86-3.305 2-4.336 1.14-1.031 2.66-1.547 4.55-1.547 1.4 0 2.63.328 3.7.985 1.06.656 1.88 1.593 2.45 2.812.57 1.219.87 2.629.87 4.23v1.442c0 1.617-.28 3.039-.84 4.266-.55 1.218-1.36 2.156-2.4 2.812-1.05.656-2.26.984-3.63.984-1.94 0-3.5-.507-4.67-1.523-1.17-1.023-1.84-2.441-2.01-4.254h2.95zm17.68.527h-1.44V398h-2.85v-12.68h2.85v5.063h1.25l3.51-5.063h3.51l-4.58 6.071 4.97 6.609h-3.7l-3.52-5.016zm13.81 2.977c.71 0 1.3-.207 1.77-.621.47-.414.72-.926.75-1.535h2.68c-.03.789-.28 1.527-.74 2.215-.46.679-1.08 1.218-1.87 1.617a5.6 5.6 0 01-2.56.597c-1.77 0-3.18-.574-4.22-1.722-1.04-1.149-1.56-2.735-1.56-4.758v-.293c0-1.93.52-3.473 1.55-4.629 1.03-1.164 2.44-1.746 4.22-1.746 1.51 0 2.73.441 3.68 1.324.95.875 1.45 2.028 1.5 3.457h-2.68c-.03-.726-.28-1.324-.75-1.793-.46-.469-1.05-.703-1.77-.703-.92 0-1.64.336-2.14 1.008-.5.664-.75 1.676-.76 3.035v.457c0 1.375.25 2.402.74 3.082.5.672 1.22 1.008 2.16 1.008zm18.1 2.039h-2.85v-10.383h-4.94V398h-2.85v-12.68h10.64V398zm2.5-6.457c0-1.242.24-2.359.74-3.352.49-1 1.18-1.765 2.07-2.296.89-.54 1.92-.809 3.07-.809 1.71 0 3.1.551 4.16 1.652 1.07 1.102 1.65 2.563 1.74 4.383l.01.668c0 1.25-.24 2.367-.73 3.352-.48.984-1.16 1.746-2.06 2.285-.89.539-1.92.808-3.1.808-1.78 0-3.22-.593-4.3-1.781-1.07-1.195-1.6-2.785-1.6-4.769v-.141zm2.85.246c0 1.305.27 2.328.8 3.07.54.735 1.29 1.102 2.25 1.102.97 0 1.71-.375 2.24-1.125.54-.75.81-1.848.81-3.293 0-1.281-.28-2.297-.83-3.047-.55-.75-1.29-1.125-2.24-1.125-.93 0-1.67.371-2.21 1.113-.55.735-.82 1.836-.82 3.305zm22.09 6.211h-2.85v-5.121h-4.94V398h-2.84v-12.68h2.84v5.285h4.94v-5.285h2.85V398zm8.62.234c-1.8 0-3.27-.566-4.39-1.699-1.12-1.14-1.68-2.656-1.68-4.547v-.351c0-1.266.24-2.395.73-3.387.49-1 1.18-1.777 2.06-2.332.88-.555 1.87-.832 2.95-.832 1.73 0 3.06.551 4 1.652.94 1.102 1.42 2.66 1.42 4.676v1.148h-8.29c.09 1.047.44 1.876 1.04 2.485.62.609 1.4.914 2.33.914 1.3 0 2.36-.527 3.18-1.582l1.54 1.465a5.188 5.188 0 01-2.04 1.769c-.84.414-1.79.621-2.85.621zm-.34-10.863c-.78 0-1.41.274-1.9.82-.47.547-.78 1.309-.91 2.286h5.42v-.211c-.06-.954-.31-1.672-.76-2.157-.44-.492-1.06-.738-1.85-.738zM1377.92 398h-2.85v-5.121h-4.93V398h-2.85v-12.68h2.85v5.285h4.93v-5.285h2.85V398zm3.15-12.68h2.85v10.407h4.94V385.32h2.85v10.407h1.72l-.23 6.035h-2.59V398h-9.54v-12.68zm22.29 0h2.84V398h-2.84v-8.461l-4.97 8.461h-2.84v-12.68h2.84v8.461l4.97-8.461zM1416.8 398c-.12-.242-.23-.637-.33-1.184-.9.946-2.01 1.418-3.33 1.418-1.27 0-2.31-.363-3.11-1.089-.81-.727-1.21-1.625-1.21-2.696 0-1.351.5-2.387 1.5-3.105 1.01-.727 2.45-1.09 4.31-1.09h1.75v-.832c0-.656-.18-1.18-.55-1.57-.37-.399-.93-.598-1.68-.598-.65 0-1.18.164-1.59.492-.42.32-.62.731-.62 1.231h-2.85c0-.696.23-1.344.69-1.946.46-.609 1.09-1.086 1.88-1.429.79-.344 1.68-.516 2.66-.516 1.48 0 2.66.375 3.55 1.125.88.742 1.33 1.789 1.36 3.141v5.718c0 1.141.16 2.051.48 2.731V398h-2.91zm-3.13-2.051c.56 0 1.09-.137 1.58-.41.5-.273.88-.641 1.13-1.101v-2.391h-1.54c-1.05 0-1.84.183-2.38.551-.53.367-.79.886-.79 1.558 0 .547.18.985.54 1.313.36.32.85.48 1.46.48zm19.31-10.629V398h-2.84v-10.383h-3.59l-.23 4.418c-.15 2.125-.56 3.653-1.23 4.582-.67.922-1.69 1.383-3.06 1.383h-.88l-.01-2.367.58-.059c.63-.086 1.08-.465 1.36-1.136.29-.68.47-1.915.55-3.704l.24-5.414h9.11zm6.1 4.032h2.79c1.04 0 1.94.179 2.72.539.77.359 1.36.863 1.75 1.511.41.649.61 1.403.61 2.262 0 1.305-.46 2.352-1.38 3.141-.92.789-2.15 1.187-3.68 1.195h-5.66v-12.68h2.85v4.032zm0 2.285v4.09h2.78c.69 0 1.24-.172 1.64-.516.4-.352.61-.848.61-1.488 0-.641-.2-1.145-.6-1.512-.39-.375-.92-.566-1.6-.574h-2.83zm20.89 6.363h-2.85v-5.121h-4.93V398h-2.85v-12.68h2.85v5.285h4.93v-5.285h2.85V398zm2.51-6.457c0-1.242.25-2.359.74-3.352.49-1 1.18-1.765 2.07-2.296.89-.54 1.92-.809 3.07-.809 1.71 0 3.1.551 4.16 1.652 1.07 1.102 1.65 2.563 1.74 4.383l.01.668c0 1.25-.24 2.367-.73 3.352a5.226 5.226 0 01-2.06 2.285c-.89.539-1.92.808-3.09.808-1.79 0-3.23-.593-4.3-1.781-1.07-1.195-1.61-2.785-1.61-4.769v-.141zm2.85.246c0 1.305.27 2.328.81 3.07.54.735 1.29 1.102 2.25 1.102s1.7-.375 2.23-1.125c.54-.75.81-1.848.81-3.293 0-1.281-.27-2.297-.83-3.047-.55-.75-1.29-1.125-2.24-1.125-.93 0-1.66.371-2.21 1.113-.55.735-.82 1.836-.82 3.305zm-182.77 22c0 1.961-.44 3.527-1.33 4.699-.89 1.164-2.09 1.746-3.59 1.746-1.39 0-2.5-.457-3.34-1.371v6.012h-2.85V407.32h2.63l.12 1.289c.83-1.015 1.97-1.523 3.41-1.523 1.54 0 2.75.578 3.63 1.734.88 1.149 1.32 2.746 1.32 4.793v.176zm-2.83-.246c0-1.266-.26-2.27-.77-3.012-.5-.742-1.21-1.113-2.15-1.113-1.17 0-2 .48-2.51 1.441v5.625c.52.985 1.36 1.477 2.53 1.477.91 0 1.62-.363 2.12-1.09.52-.734.78-1.844.78-3.328zm12.83 6.457c-.13-.242-.24-.637-.33-1.184-.91.946-2.02 1.418-3.33 1.418-1.27 0-2.31-.363-3.11-1.089-.81-.727-1.21-1.625-1.21-2.696 0-1.351.5-2.387 1.5-3.105 1.01-.727 2.44-1.09 4.31-1.09h1.75v-.832c0-.656-.19-1.18-.55-1.57-.37-.399-.93-.598-1.68-.598-.65 0-1.18.164-1.59.492-.42.32-.62.731-.62 1.231h-2.85c0-.696.23-1.344.69-1.946.46-.609 1.08-1.086 1.87-1.429.8-.344 1.69-.516 2.66-.516 1.49 0 2.67.375 3.55 1.125.89.742 1.34 1.789 1.36 3.141v5.718c0 1.141.16 2.051.48 2.731V420h-2.9zm-3.13-2.051c.56 0 1.09-.137 1.58-.41.5-.273.88-.641 1.13-1.101v-2.391h-1.54c-1.05 0-1.85.183-2.38.551-.53.367-.79.886-.79 1.558 0 .547.18.985.53 1.313.37.32.86.48 1.47.48zm13.75.012c.71 0 1.3-.207 1.77-.621.46-.414.71-.926.75-1.535h2.68c-.03.789-.28 1.527-.74 2.215-.46.679-1.09 1.218-1.87 1.617a5.63 5.63 0 01-2.56.597c-1.77 0-3.18-.574-4.22-1.722-1.04-1.149-1.56-2.735-1.56-4.758v-.293c0-1.93.52-3.473 1.55-4.629 1.03-1.164 2.44-1.746 4.22-1.746 1.51 0 2.73.441 3.68 1.324.95.875 1.45 2.028 1.5 3.457h-2.68c-.04-.726-.29-1.324-.75-1.793-.47-.469-1.06-.703-1.77-.703-.93 0-1.64.336-2.14 1.008-.5.664-.75 1.676-.76 3.035v.457c0 1.375.25 2.402.74 3.082.5.672 1.22 1.008 2.16 1.008zm17.33-8.379h-4.12V420h-2.84v-10.418h-4.07v-2.262h11.03v2.262zm6.48 6.34l2.58-8.602h3.03l-5.04 14.602c-.77 2.133-2.08 3.199-3.94 3.199-.41 0-.87-.07-1.37-.211v-2.203l.54.035c.72 0 1.26-.133 1.62-.398.37-.258.66-.696.87-1.313l.41-1.09-4.46-12.621h3.07l2.69 8.602zm10.12-8.602v10.407h3.96V407.32h2.85v10.407h3.97V407.32h2.84v10.407h2.17l-.24 6.035h-2.59V420h-15.8v-12.68h2.84zm25.48 12.68c-.13-.242-.23-.637-.33-1.184-.9.946-2.01 1.418-3.33 1.418-1.27 0-2.31-.363-3.11-1.089-.81-.727-1.21-1.625-1.21-2.696 0-1.351.5-2.387 1.5-3.105 1.01-.727 2.44-1.09 4.31-1.09h1.75v-.832c0-.656-.19-1.18-.55-1.57-.37-.399-.93-.598-1.68-.598-.65 0-1.18.164-1.59.492-.42.32-.62.731-.62 1.231h-2.85c0-.696.23-1.344.69-1.946.46-.609 1.09-1.086 1.88-1.429.79-.344 1.68-.516 2.66-.516 1.48 0 2.66.375 3.55 1.125.88.742 1.33 1.789 1.36 3.141v5.718c0 1.141.16 2.051.48 2.731V420h-2.91zm-3.13-2.051c.56 0 1.09-.137 1.58-.41.5-.273.88-.641 1.13-1.101v-2.391h-1.54c-1.05 0-1.84.183-2.38.551-.53.367-.79.886-.79 1.558 0 .547.18.985.54 1.313.36.32.85.48 1.46.48zm18.69-10.629V420h-2.83v-4.652h-2.66l-2.71 4.652H1367l2.98-5.121c-.78-.328-1.38-.797-1.8-1.406-.41-.61-.62-1.309-.62-2.098 0-1.18.45-2.145 1.36-2.895.91-.757 2.14-1.144 3.69-1.16h5.54zm-7.74 4.125c0 .532.19.965.58 1.301.4.328.91.492 1.53.492h2.8v-3.656h-2.63c-.69 0-1.25.176-1.66.527a1.66 1.66 0 00-.62 1.336zm-93.74 28.516c.71 0 1.3-.207 1.77-.621.47-.414.72-.926.75-1.535h2.68c-.03.789-.28 1.527-.74 2.215-.46.679-1.08 1.218-1.87 1.617a5.6 5.6 0 01-2.56.597c-1.77 0-3.18-.574-4.22-1.722-1.03-1.149-1.55-2.735-1.55-4.758v-.293c0-1.93.51-3.473 1.54-4.629 1.03-1.164 2.44-1.746 4.22-1.746 1.51 0 2.74.441 3.68 1.324.95.875 1.45 2.028 1.5 3.457h-2.68c-.03-.726-.28-1.324-.75-1.793-.46-.469-1.05-.703-1.77-.703-.92 0-1.63.336-2.13 1.008-.5.664-.76 1.676-.77 3.035v.457c0 1.375.25 2.402.74 3.082.5.672 1.22 1.008 2.16 1.008zm18.13-10.641V442h-2.85v-10.383h-3.59l-.23 4.418c-.15 2.125-.56 3.653-1.23 4.582-.67.922-1.69 1.383-3.06 1.383h-.88l-.01-2.367.59-.059c.62-.086 1.07-.465 1.35-1.136.29-.68.48-1.915.56-3.704l.23-5.414h9.12zm2.49 6.223c0-1.242.25-2.359.74-3.352.49-1 1.18-1.765 2.08-2.296.89-.54 1.91-.809 3.07-.809 1.71 0 3.09.551 4.16 1.652 1.07 1.102 1.64 2.563 1.73 4.383l.01.668c0 1.25-.24 2.367-.72 3.352-.48.984-1.17 1.746-2.07 2.285-.89.539-1.92.808-3.09.808-1.79 0-3.22-.593-4.3-1.781-1.07-1.195-1.61-2.785-1.61-4.769v-.141zm2.85.246c0 1.305.27 2.328.81 3.07.54.735 1.29 1.102 2.25 1.102s1.71-.375 2.24-1.125c.54-.75.81-1.848.81-3.293 0-1.281-.28-2.297-.84-3.047-.54-.75-1.29-1.125-2.23-1.125-.93 0-1.67.371-2.22 1.113-.55.735-.82 1.836-.82 3.305zm22.25 1.113h-1.51V442h-2.84v-5.098h-1.5l-2.92 5.098h-3.5l4.21-6.598-3.98-6.082h3.48l2.87 4.981h1.34v-4.981h2.84v4.981h1.35l2.88-4.981h3.48l-3.97 6.047 4.23 6.633h-3.54l-2.92-5.098zm18.97 5.098h-2.85v-5.121h-4.94V442h-2.84v-12.68h2.84v5.285h4.94v-5.285h2.85V442zm2.5-6.457c0-1.242.25-2.359.74-3.352.49-1 1.19-1.765 2.08-2.296.89-.54 1.91-.809 3.07-.809 1.71 0 3.09.551 4.16 1.652 1.07 1.102 1.64 2.563 1.73 4.383l.01.668c0 1.25-.24 2.367-.72 3.352-.48.984-1.17 1.746-2.07 2.285-.89.539-1.92.808-3.09.808-1.79 0-3.22-.593-4.3-1.781-1.07-1.195-1.61-2.785-1.61-4.769v-.141zm2.85.246c0 1.305.27 2.328.81 3.07.54.735 1.29 1.102 2.25 1.102s1.71-.375 2.24-1.125c.54-.75.81-1.848.81-3.293 0-1.281-.28-2.297-.84-3.047-.54-.75-1.29-1.125-2.23-1.125-.93 0-1.67.371-2.22 1.113-.55.735-.82 1.836-.82 3.305zm16.56 4.172c.71 0 1.3-.207 1.77-.621.47-.414.72-.926.75-1.535h2.68a4.13 4.13 0 01-.74 2.215c-.46.679-1.08 1.218-1.87 1.617a5.6 5.6 0 01-2.56.597c-1.77 0-3.18-.574-4.21-1.722-1.04-1.149-1.56-2.735-1.56-4.758v-.293c0-1.93.51-3.473 1.54-4.629 1.04-1.164 2.44-1.746 4.22-1.746 1.51 0 2.74.441 3.68 1.324.96.875 1.46 2.028 1.5 3.457h-2.68c-.03-.726-.28-1.324-.75-1.793-.46-.469-1.05-.703-1.77-.703-.92 0-1.63.336-2.13 1.008-.5.664-.76 1.676-.76 3.035v.457c0 1.375.24 2.402.73 3.082.5.672 1.22 1.008 2.16 1.008zm17.33-8.379h-4.11V442h-2.85v-10.418h-4.07v-2.262h11.03v2.262zm4.97 1.77h2.79c1.04 0 1.94.179 2.72.539.77.359 1.36.863 1.76 1.511.4.649.61 1.403.61 2.262 0 1.305-.47 2.352-1.39 3.141-.92.789-2.15 1.187-3.68 1.195h-5.66v-12.68h2.85v4.032zm0 2.285v4.09h2.78c.69 0 1.24-.172 1.64-.516.4-.352.61-.848.61-1.488 0-.641-.2-1.145-.6-1.512-.39-.375-.92-.566-1.59-.574h-2.84zm20.64 1.347h-1.44V442h-2.85v-12.68h2.85v5.063h1.25l3.5-5.063h3.52l-4.58 6.071 4.97 6.609h-3.71l-3.51-5.016zm13.22.938l2.57-8.602h3.04l-5.04 14.602c-.77 2.133-2.09 3.199-3.94 3.199-.41 0-.87-.07-1.37-.211v-2.203l.54.035c.72 0 1.26-.133 1.62-.398.36-.258.65-.696.86-1.313l.41-1.09-4.45-12.621h3.07l2.69 8.602zm18.36-2.133c0 1.961-.45 3.527-1.34 4.699-.89 1.164-2.08 1.746-3.58 1.746-1.39 0-2.51-.457-3.34-1.371v6.012h-2.85V429.32h2.62l.12 1.289c.84-1.015 1.97-1.523 3.41-1.523 1.55 0 2.76.578 3.63 1.734.89 1.149 1.33 2.746 1.33 4.793v.176zm-2.84-.246c0-1.266-.25-2.27-.76-3.012-.5-.742-1.22-1.113-2.15-1.113-1.17 0-2 .48-2.51 1.441v5.625c.51.985 1.36 1.477 2.53 1.477.9 0 1.61-.363 2.12-1.09.52-.734.77-1.844.77-3.328zm10.47 4.418c.71 0 1.3-.207 1.77-.621.47-.414.72-.926.75-1.535h2.68c-.03.789-.28 1.527-.74 2.215-.46.679-1.08 1.218-1.87 1.617a5.6 5.6 0 01-2.56.597c-1.77 0-3.18-.574-4.22-1.722-1.03-1.149-1.55-2.735-1.55-4.758v-.293c0-1.93.51-3.473 1.54-4.629 1.03-1.164 2.44-1.746 4.22-1.746 1.51 0 2.74.441 3.68 1.324.95.875 1.45 2.028 1.5 3.457h-2.68c-.03-.726-.28-1.324-.75-1.793-.46-.469-1.05-.703-1.77-.703-.92 0-1.63.336-2.13 1.008-.5.664-.76 1.676-.77 3.035v.457c0 1.375.25 2.402.74 3.082.5.672 1.22 1.008 2.16 1.008zm14.93 2.039c-.13-.242-.24-.637-.33-1.184-.91.946-2.02 1.418-3.33 1.418-1.27 0-2.31-.363-3.12-1.089-.8-.727-1.2-1.625-1.2-2.696 0-1.351.5-2.387 1.5-3.105 1.01-.727 2.44-1.09 4.31-1.09h1.75v-.832c0-.656-.19-1.18-.55-1.57-.37-.399-.93-.598-1.68-.598-.65 0-1.18.164-1.59.492-.42.32-.63.731-.63 1.231h-2.84c0-.696.23-1.344.69-1.946.46-.609 1.08-1.086 1.87-1.429.8-.344 1.69-.516 2.66-.516 1.49 0 2.67.375 3.55 1.125.89.742 1.34 1.789 1.36 3.141v5.718c0 1.141.16 2.051.48 2.731V442h-2.9zm-3.13-2.051c.56 0 1.09-.137 1.58-.41.5-.273.88-.641 1.13-1.101v-2.391h-1.54c-1.05 0-1.85.183-2.38.551-.53.367-.8.886-.8 1.558 0 .547.18.985.54 1.313.37.32.86.48 1.47.48zM1285.35 657.914c0 1.672-.29 3.141-.87 4.406-.57 1.258-1.4 2.227-2.48 2.907-1.07.671-2.3 1.007-3.7 1.007-1.39 0-2.62-.336-3.71-1.007-1.07-.68-1.91-1.645-2.5-2.895-.59-1.25-.89-2.691-.89-4.324v-.961c0-1.664.29-3.133.87-4.406.6-1.274 1.43-2.246 2.5-2.918 1.08-.68 2.31-1.02 3.7-1.02 1.39 0 2.62.336 3.69 1.008 1.08.664 1.92 1.625 2.5 2.883.59 1.25.88 2.707.89 4.371v.949zm-2.96-.891c0-1.89-.36-3.339-1.08-4.347-.71-1.008-1.72-1.512-3.04-1.512-1.28 0-2.28.504-3.01 1.512-.72 1-1.08 2.418-1.1 4.254v.984c0 1.875.36 3.324 1.09 4.348.73 1.023 1.75 1.535 3.05 1.535 1.31 0 2.32-.5 3.02-1.5.71-1 1.07-2.461 1.07-4.383v-.891zm16.8 3.879h-1.51V666h-2.85v-5.098h-1.5l-2.92 5.098h-3.49l4.21-6.598-3.99-6.082h3.48l2.88 4.981h1.33v-4.981h2.85v4.981h1.35l2.88-4.981h3.48l-3.97 6.047 4.23 6.633h-3.54l-2.92-5.098zm16.14-7.582h2.83V666h-2.83v-8.461l-4.97 8.461h-2.84v-12.68h2.84v8.461l4.97-8.461zm5.92 10.407c.79-.883 1.31-1.719 1.58-2.508.27-.797.44-1.813.49-3.047l.16-4.852h8.81v10.407h1.75v6.046h-2.83V666h-8.14v3.773h-2.88l.01-6.046h1.05zm3.34 0h4.86v-7.957h-3.2l-.08 2.425c-.11 2.328-.64 4.172-1.58 5.532zm19.06 2.273c-.12-.242-.23-.637-.33-1.184-.9.946-2.01 1.418-3.32 1.418-1.28 0-2.32-.363-3.12-1.089-.81-.727-1.21-1.625-1.21-2.696 0-1.351.5-2.387 1.5-3.105 1.01-.727 2.45-1.09 4.31-1.09h1.75v-.832c0-.656-.18-1.18-.55-1.57-.37-.399-.93-.598-1.68-.598-.64 0-1.18.164-1.59.492-.41.32-.62.731-.62 1.231h-2.85c0-.696.23-1.344.69-1.946.46-.609 1.09-1.086 1.88-1.429.79-.344 1.68-.516 2.66-.516 1.48 0 2.67.375 3.55 1.125.88.742 1.33 1.789 1.36 3.141v5.718c0 1.141.16 2.051.48 2.731V666h-2.91zm-3.13-2.051c.57 0 1.09-.137 1.59-.41.5-.273.87-.641 1.12-1.101v-2.391h-1.53c-1.06 0-1.85.183-2.38.551-.53.367-.8.886-.8 1.558 0 .547.18.985.54 1.313.37.32.85.48 1.46.48zm14.12 2.285c-1.8 0-3.26-.566-4.39-1.699-1.12-1.14-1.68-2.656-1.68-4.547v-.351c0-1.266.25-2.395.73-3.387.49-1 1.18-1.777 2.06-2.332a5.465 5.465 0 012.96-.832c1.72 0 3.06.551 3.99 1.652.95 1.102 1.42 2.66 1.42 4.676v1.148h-8.28c.08 1.047.43 1.876 1.04 2.485.62.609 1.39.914 2.32.914 1.3 0 2.37-.527 3.19-1.582l1.53 1.465a5.188 5.188 0 01-2.04 1.769c-.84.414-1.79.621-2.85.621zm-.34-10.863c-.78 0-1.41.274-1.89.82-.48.547-.79 1.309-.92 2.286h5.43v-.211c-.06-.954-.32-1.672-.76-2.157-.45-.492-1.07-.738-1.86-.738zm15.18 7.125l3.75-9.176h3.56V666h-2.84v-8.391l-3.5 8.391h-1.93l-3.5-8.438V666h-2.85v-12.68h3.58l3.73 9.176zm18.09 3.504c-.12-.242-.23-.637-.32-1.184-.91.946-2.02 1.418-3.33 1.418-1.28 0-2.31-.363-3.12-1.089-.8-.727-1.21-1.625-1.21-2.696 0-1.351.5-2.387 1.5-3.105 1.01-.727 2.45-1.09 4.32-1.09h1.74v-.832c0-.656-.18-1.18-.55-1.57-.37-.399-.92-.598-1.67-.598-.65 0-1.18.164-1.6.492-.41.32-.62.731-.62 1.231h-2.85c0-.696.23-1.344.69-1.946.47-.609 1.09-1.086 1.88-1.429.8-.344 1.68-.516 2.66-.516 1.48 0 2.67.375 3.55 1.125.88.742 1.34 1.789 1.36 3.141v5.718c0 1.141.16 2.051.48 2.731V666h-2.91zm-3.12-2.051c.56 0 1.09-.137 1.58-.41.5-.273.87-.641 1.12-1.101v-2.391h-1.53c-1.06 0-1.85.183-2.38.551-.53.367-.8.886-.8 1.558 0 .547.18.985.54 1.313.37.32.86.48 1.47.48zm18.69-10.629V666h-2.84v-4.652h-2.66l-2.71 4.652h-2.95l2.99-5.121c-.78-.328-1.38-.797-1.81-1.406-.41-.61-.62-1.309-.62-2.098 0-1.18.46-2.145 1.36-2.895.92-.757 2.15-1.144 3.69-1.16h5.55zm-7.75 4.125c0 .532.2.965.59 1.301.4.328.9.492 1.52.492h2.8v-3.656h-2.62c-.7 0-1.25.176-1.67.527a1.69 1.69 0 00-.62 1.336zm-118.72 28.516c.71 0 1.3-.207 1.77-.621.47-.414.72-.926.75-1.535h2.68c-.03.789-.28 1.527-.74 2.215-.46.679-1.08 1.218-1.87 1.617a5.6 5.6 0 01-2.56.597c-1.77 0-3.18-.574-4.22-1.722-1.03-1.149-1.55-2.735-1.55-4.758v-.293c0-1.93.51-3.473 1.54-4.629 1.03-1.164 2.44-1.746 4.22-1.746 1.51 0 2.74.441 3.68 1.324.95.875 1.45 2.028 1.5 3.457h-2.68c-.03-.726-.28-1.324-.75-1.793-.46-.469-1.05-.703-1.77-.703-.92 0-1.63.336-2.13 1.008-.5.664-.76 1.676-.77 3.035v.457c0 1.375.25 2.402.74 3.082.5.672 1.22 1.008 2.16 1.008zm18.13-10.641V688h-2.85v-10.383h-3.59l-.23 4.418c-.15 2.125-.56 3.653-1.23 4.582-.67.922-1.69 1.383-3.06 1.383h-.88l-.01-2.367.59-.059c.62-.086 1.07-.465 1.35-1.136.29-.68.48-1.915.56-3.704l.23-5.414h9.12zm2.49 6.223c0-1.242.25-2.359.74-3.352.49-1 1.18-1.765 2.08-2.296.89-.54 1.91-.809 3.07-.809 1.71 0 3.09.551 4.16 1.652 1.07 1.102 1.64 2.563 1.73 4.383l.01.668c0 1.25-.24 2.367-.72 3.352-.48.984-1.17 1.746-2.07 2.285-.89.539-1.92.808-3.09.808-1.79 0-3.22-.593-4.3-1.781-1.07-1.195-1.61-2.785-1.61-4.769v-.141zm2.85.246c0 1.305.27 2.328.81 3.07.54.735 1.29 1.102 2.25 1.102s1.71-.375 2.24-1.125c.54-.75.81-1.848.81-3.293 0-1.281-.28-2.297-.84-3.047-.54-.75-1.29-1.125-2.23-1.125-.93 0-1.67.371-2.22 1.113-.55.735-.82 1.836-.82 3.305zm22.25 1.113h-1.51V688h-2.84v-5.098h-1.5l-2.92 5.098h-3.5l4.21-6.598-3.98-6.082h3.48l2.87 4.981h1.34v-4.981h2.84v4.981h1.35l2.88-4.981h3.48l-3.97 6.047 4.23 6.633h-3.54l-2.92-5.098zm18.97 5.098h-2.85v-5.121h-4.94V688h-2.84v-12.68h2.84v5.285h4.94v-5.285h2.85V688zm2.5-6.457c0-1.242.25-2.359.74-3.352.49-1 1.19-1.765 2.08-2.296.89-.54 1.91-.809 3.07-.809 1.71 0 3.09.551 4.16 1.652 1.07 1.102 1.64 2.563 1.73 4.383l.01.668c0 1.25-.24 2.367-.72 3.352-.48.984-1.17 1.746-2.07 2.285-.89.539-1.92.808-3.09.808-1.79 0-3.22-.593-4.3-1.781-1.07-1.195-1.61-2.785-1.61-4.769v-.141zm2.85.246c0 1.305.27 2.328.81 3.07.54.735 1.29 1.102 2.25 1.102s1.71-.375 2.24-1.125c.54-.75.81-1.848.81-3.293 0-1.281-.28-2.297-.84-3.047-.54-.75-1.29-1.125-2.23-1.125-.93 0-1.67.371-2.22 1.113-.55.735-.82 1.836-.82 3.305zm16.56 4.172c.71 0 1.3-.207 1.77-.621.47-.414.72-.926.75-1.535h2.68a4.13 4.13 0 01-.74 2.215c-.46.679-1.08 1.218-1.87 1.617a5.6 5.6 0 01-2.56.597c-1.77 0-3.18-.574-4.21-1.722-1.04-1.149-1.56-2.735-1.56-4.758v-.293c0-1.93.51-3.473 1.54-4.629 1.04-1.164 2.44-1.746 4.22-1.746 1.51 0 2.74.441 3.68 1.324.96.875 1.46 2.028 1.5 3.457h-2.68c-.03-.726-.28-1.324-.75-1.793-.46-.469-1.05-.703-1.77-.703-.92 0-1.63.336-2.13 1.008-.5.664-.76 1.676-.76 3.035v.457c0 1.375.24 2.402.73 3.082.5.672 1.22 1.008 2.16 1.008zm17.33-8.379h-4.11V688h-2.85v-10.418h-4.07v-2.262h11.03v2.262zm4.97 1.77h2.79c1.04 0 1.94.179 2.72.539.77.359 1.36.863 1.76 1.511.4.649.61 1.403.61 2.262 0 1.305-.47 2.352-1.39 3.141-.92.789-2.15 1.187-3.68 1.195h-5.66v-12.68h2.85v4.032zm0 2.285v4.09h2.78c.69 0 1.24-.172 1.64-.516.4-.352.61-.848.61-1.488 0-.641-.2-1.145-.6-1.512-.39-.375-.92-.566-1.59-.574h-2.84zM580.055 861v-34.125h11.695c3.859 0 6.797.773 8.812 2.32 2.016 1.547 3.024 3.852 3.024 6.914 0 1.563-.422 2.969-1.266 4.219-.843 1.25-2.078 2.219-3.703 2.906 1.844.5 3.266 1.446 4.266 2.836 1.015 1.375 1.523 3.032 1.523 4.969 0 3.203-1.031 5.664-3.094 7.383-2.046 1.719-4.984 2.578-8.812 2.578h-12.445zm5.929-15.398v10.664h6.586c1.86 0 3.313-.461 4.36-1.383 1.047-.922 1.57-2.203 1.57-3.844 0-3.547-1.812-5.359-5.438-5.437h-7.078zm0-4.36h5.813c1.844 0 3.281-.414 4.312-1.242 1.047-.844 1.571-2.031 1.571-3.562 0-1.688-.485-2.907-1.453-3.657-.954-.75-2.446-1.125-4.477-1.125h-5.766v9.586zm46.008 7.336c0 3.922-.89 7.055-2.672 9.399-1.781 2.328-4.172 3.492-7.172 3.492-2.781 0-5.007-.914-6.679-2.742v12.023h-5.696v-35.109h5.25l.235 2.578c1.672-2.031 3.945-3.047 6.82-3.047 3.094 0 5.516 1.156 7.266 3.469 1.765 2.297 2.648 5.492 2.648 9.586v.351zm-5.672-.492c0-2.531-.508-4.539-1.523-6.024-1-1.484-2.438-2.226-4.313-2.226-2.328 0-4 .961-5.015 2.883v11.25c1.031 1.969 2.719 2.953 5.062 2.953 1.813 0 3.227-.727 4.242-2.18 1.032-1.469 1.547-3.687 1.547-6.656zM648 861.469c-3.609 0-6.539-1.133-8.789-3.399-2.234-2.281-3.352-5.312-3.352-9.093v-.704c0-2.531.485-4.789 1.453-6.773.985-2 2.36-3.555 4.126-4.664 1.765-1.109 3.734-1.664 5.906-1.664 3.453 0 6.117 1.101 7.992 3.305 1.891 2.203 2.836 5.32 2.836 9.351v2.297h-16.57c.171 2.094.867 3.75 2.086 4.969 1.234 1.218 2.781 1.828 4.64 1.828 2.61 0 4.734-1.055 6.375-3.164l3.07 2.93c-1.015 1.515-2.375 2.695-4.078 3.539-1.687.828-3.586 1.242-5.695 1.242zm-.68-21.727c-1.562 0-2.828.547-3.797 1.641-.953 1.094-1.562 2.617-1.828 4.57h10.852v-.422c-.125-1.906-.633-3.343-1.524-4.312-.89-.985-2.125-1.477-3.703-1.477zm30.352 14.25l7.5-18.351h7.125V861h-5.695v-16.781L679.617 861h-3.867l-7.008-16.875V861h-5.695v-25.359h7.172l7.453 18.351zm41.344-18.351V861h-5.672v-9.305h-5.321L702.609 861h-5.906l5.977-10.242c-1.563-.656-2.766-1.594-3.61-2.813-.828-1.218-1.242-2.617-1.242-4.195 0-2.359.906-4.289 2.719-5.789 1.828-1.516 4.289-2.289 7.383-2.32h11.086zm-15.493 8.25c0 1.062.391 1.929 1.172 2.601.797.656 1.813.985 3.047.985h5.602v-7.313h-5.25c-1.391 0-2.5.352-3.328 1.055-.828.703-1.243 1.593-1.243 2.672z" fill="#000"/>
  <path d="M1172.51 99.15h47.4c1.15 0 2.09.829 2.09 1.85 0 1.021-.94 1.85-2.09 1.85h-47.4c-1.16 0-2.09-.828-2.09-1.85 0-1.022.93-1.85 2.09-1.85z" fill="#1D57B2"/>
  <path d="M1170.61 99.692l20.5-18.13c.81-.721 2.14-.721 2.95 0 .82.723.82 1.895 0 2.617L1175.05 101l19.01 16.821c.82.722.82 1.894 0 2.616a2.23 2.23 0 01-1.48.542c-.53 0-1.07-.181-1.47-.542l-20.5-18.129c-.81-.723-.81-1.894 0-2.616zM1172.51 416.15h47.4c1.15 0 2.09.829 2.09 1.85 0 1.021-.94 1.85-2.09 1.85h-47.4c-1.16 0-2.09-.828-2.09-1.85 0-1.022.93-1.85 2.09-1.85z" fill="#1D57B2"/>
  <path d="M1170.61 416.692l20.5-18.129c.81-.723 2.14-.723 2.95 0 .82.722.82 1.894 0 2.616L1175.05 418l19.01 16.821c.82.722.82 1.894 0 2.616a2.23 2.23 0 01-1.48.542c-.53 0-1.07-.181-1.47-.542l-20.5-18.129c-.81-.723-.81-1.894 0-2.616zM1172.51 677.15h47.4c1.15 0 2.09.829 2.09 1.85 0 1.021-.94 1.85-2.09 1.85h-47.4c-1.16 0-2.09-.828-2.09-1.85 0-1.022.93-1.85 2.09-1.85z" fill="#1D57B2"/>
  <path d="M1170.61 677.692l20.5-18.129c.81-.722 2.14-.722 2.95 0 .82.722.82 1.894 0 2.616L1175.05 679l19.01 16.821c.82.722.82 1.894 0 2.616a2.23 2.23 0 01-1.48.542c-.53 0-1.07-.181-1.47-.542l-20.5-18.129c-.81-.723-.81-1.894 0-2.616z" fill="#1D57B2"/>
  <path d="M200.547 653.699c6.618 0 11.983-5.426 11.983-12.12 0-6.693-5.365-12.12-11.983-12.12-6.619 0-11.984 5.427-11.984 12.12 0 6.694 5.365 12.12 11.984 12.12z" fill="#010002"/>
  <path d="M230.423 674.258c-2.586-5.667-5.87-11.049-10.785-14.942a6.139 6.139 0 00-1.631-.91c-.039-.045-.058-.098-.097-.14-7.392-3.754-22.615-2.785-30.349-1.675a5.686 5.686 0 00-1.514.203c-.301.084-.607.128-.91.195-.203.039-.431.078-.61.117v.017c-4.288.807-8.702.122-12.857-1.256-2.16-4.753-3.855-9.723-4.729-14.883-.044-.262-.128-.487-.197-.727l-2.19-9.957a1.64 1.64 0 00-1.957-1.258 1.656 1.656 0 00-1.247 1.978l1.186 5.402c-3.479-.623-7.578 1.79-6.805 6.36.896 5.287 2.466 10.494 4.551 15.426 1.16 2.744 2.234 6.445 5.248 7.631 5.667 2.224 12.218 3.657 18.388 2.989l-.225 4.319c.011 8.889.058 42.261.058 42.731l.231 50.056c0 3.829 3.153 6.932 7.044 6.932 3.891 0 7.049-3.103 7.049-6.932v-48.509s-.064-2.39 2.413-2.365c2.48.028 2.705 2.485 2.705 2.485v48.525c0 3.827 3.153 6.93 7.044 6.93 3.896 0 6.668-3.103 6.668-6.93v-46.574l-.019-7.381c5.502-3.57 9.788-8.73 12.86-14.552 1.687-3.198 4.615-7.667 4.615-11.472.002-3.885-2.394-8.446-3.938-11.833zm-8.035 12.493c-.754 1.7-1.531 3.403-2.444 5.023a48.134 48.134 0 01-3.1 4.818l-.058-23.581c2.724 3.843 4.631 8.338 5.936 12.86a6.9 6.9 0 01-.334.88zm.467-1.378c-.002-.584.12-.576 0 0z" fill="#010002"/>
  <g clip-path="url(#clip0)" fill="#010002">
    <path d="M996.958 89.81c.031.124.017.132-.016.08a6.14 6.14 0 00-.098.514c.053-.341.11-.476.159-.507-.012-.03-.026-.076-.039-.107-.002.005-.006.013-.006.02z"/>
    <path d="M1050.69 93.578c-8.28-12.32-19.6-20.7-33.21-25.814-6.62-1.72-15.28 2.595-15.46 2.805-.44.149-.88.34-1.34.617-1.401.87-2.285 1.958-2.807 3.141-2.1 1.244-4.288 2.327-6.631 3.088-2.52.818-5.054.918-6.41.121.08.045-.303-.257-.539-.948-.431-1.271-.312-2.411-.215-3.805.291-4.248 2.665-8.56 4.672-12.189 3.623-6.553-6.401-12.405-10.022-5.856-4.894 8.857-10.508 22.677-1.878 31.182 6.666 6.565 16.604 3.862 24.54-.31.39.611.81 1.208 1.29 1.775.52.616 1.01 1.255 1.5 1.89 2.61 4.47 2.71 15.906 2.71 15.906s-9.106 31.108-8.353 47.898c.459 10.248 16.423 10.293 15.953 0-.57-12.872 1.07-25.209 5.24-37.204.76.339 1.54.607 2.34.796.73 13.462 2.8 26.761 6.73 39.732 2.97 9.825 18.37 5.638 15.38-4.239-4.47-14.83-6.38-29.806-6.48-45.265 0-1.179-.74-4.62-.9-5.368a61.408 61.408 0 00-3.44-10.764 51.49 51.49 0 017.3 8.662c4.16 6.184 14.22.378 10.03-5.85z"/>
    <path d="M1001.44 67.78c6.56 0 11.89-5.323 11.89-11.89S1008 44 1001.44 44c-6.571 0-11.894 5.323-11.894 11.89s5.323 11.89 11.894 11.89z"/>
  </g>
  <defs>
    <clipPath id="clip0">
      <path fill="#fff" transform="translate(954 44)" d="M0 0h118v118H0z"/>
    </clipPath>
  </defs>
</svg>
