<svg width="1565" height="900" fill="none" xmlns="http://www.w3.org/2000/svg">
  <rect x="61.5" y="119.5" width="1468" height="738" rx="17.5" stroke="#000" stroke-width="3"/>
  <path stroke="#000" stroke-width="3" d="M252.5 121v738M434.5 121v738M616.5 121v738M798.5 121v738M980.5 121v738M1162.5 121v738M1344.5 121v738M63 245.5h1468M63 367.5h1468M63 489.5h1468M63 611.5h1468M63 733.5h1468"/>
  <rect x="987" y="496" width="536" height="355" rx="15" fill="#4BC3AE" fill-opacity=".8"/>
  <rect x="67" y="124" width="180" height="117" rx="15" fill="#1D57B2" fill-opacity=".8"/>
  <rect x="440" y="125" width="171" height="726" rx="15" fill="#1DADB2" fill-opacity=".8"/>
  <rect x="67" y="251" width="1457" height="111" rx="15" fill="#1D8AB2" fill-opacity=".8"/>
  <rect x="772.5" y="63.5" width="50" height="823" rx="12.5" stroke="#F01818" stroke-width="5"/>
  <path d="M745.957 44.643c-.867 1.242-2.08 2.173-3.639 2.794-1.547.61-3.351.915-5.414.915-2.086 0-3.937-.487-5.554-1.46-1.618-.984-2.871-2.378-3.762-4.183-.879-1.805-1.33-3.897-1.354-6.275V34.2c0-3.855.897-6.844 2.69-8.965 1.805-2.12 4.336-3.181 7.594-3.181 2.671 0 4.822.685 6.451 2.056 1.629 1.36 2.625 3.293 2.988 5.801h-3.375c-.633-3.387-2.648-5.08-6.047-5.08-2.262 0-3.978.797-5.15 2.39-1.16 1.583-1.746 3.88-1.758 6.891v2.092c0 2.871.656 5.156 1.969 6.855 1.312 1.688 3.088 2.532 5.326 2.532 1.266 0 2.373-.14 3.322-.422.949-.281 1.735-.756 2.356-1.424v-5.748h-5.924v-2.742h9.281v9.387zm14.326-12.745a9.741 9.741 0 00-1.599-.123c-2.133 0-3.58.909-4.342 2.725V48h-3.252V28.98h3.164l.053 2.198c1.066-1.7 2.578-2.55 4.535-2.55.633 0 1.113.083 1.441.247v3.023zM766.822 48h-3.252V28.98h3.252V48zm-3.515-24.064c0-.528.158-.973.474-1.336.328-.364.809-.545 1.442-.545.632 0 1.113.181 1.441.545.328.363.492.808.492 1.335 0 .528-.164.967-.492 1.319-.328.351-.809.527-1.441.527-.633 0-1.114-.175-1.442-.527-.316-.352-.474-.791-.474-1.319zm7.945 14.396c0-2.918.691-5.262 2.074-7.031 1.383-1.781 3.194-2.672 5.432-2.672 2.226 0 3.99.762 5.291 2.285V21h3.252v27h-2.989l-.158-2.04c-1.3 1.595-3.111 2.392-5.431 2.392-2.203 0-4.002-.903-5.397-2.707-1.383-1.805-2.074-4.16-2.074-7.067v-.246zm3.252.37c0 2.155.445 3.843 1.336 5.062.89 1.218 2.121 1.828 3.691 1.828 2.063 0 3.569-.926 4.518-2.777v-8.737c-.973-1.793-2.467-2.69-4.483-2.69-1.593 0-2.836.616-3.726 1.846-.891 1.23-1.336 3.053-1.336 5.467zm30.691 6.538h12.129V48h-15.521V22.406h3.392V45.24zM824.197 48h-3.252V28.98h3.252V48zm-3.515-24.064c0-.528.158-.973.474-1.336.328-.364.809-.545 1.442-.545.632 0 1.113.181 1.441.545.328.363.492.808.492 1.335 0 .528-.164.967-.492 1.319-.328.351-.809.527-1.441.527-.633 0-1.114-.175-1.442-.527-.316-.352-.474-.791-.474-1.319zm11.812 5.044l.106 2.391c1.453-1.828 3.351-2.742 5.695-2.742 4.019 0 6.047 2.267 6.082 6.803V48h-3.252V35.414c-.012-1.371-.328-2.385-.949-3.041-.61-.656-1.565-.984-2.865-.984-1.055 0-1.981.28-2.778.843a5.725 5.725 0 00-1.863 2.215V48h-3.252V28.98h3.076zm24.68 19.372c-2.578 0-4.676-.844-6.293-2.532-1.617-1.699-2.426-3.967-2.426-6.802v-.598c0-1.887.357-3.568 1.072-5.045.727-1.488 1.735-2.648 3.024-3.48 1.301-.844 2.707-1.266 4.219-1.266 2.472 0 4.394.814 5.765 2.443 1.371 1.63 2.057 3.961 2.057 6.996v1.354h-12.885c.047 1.875.592 3.393 1.635 4.553 1.054 1.148 2.39 1.722 4.008 1.722 1.148 0 2.121-.234 2.918-.703a7.331 7.331 0 002.091-1.863l1.987 1.547c-1.594 2.449-3.985 3.674-7.172 3.674zM856.77 31.3c-1.313 0-2.415.48-3.305 1.441-.891.95-1.442 2.285-1.653 4.008h9.528v-.246c-.094-1.652-.539-2.93-1.336-3.832-.797-.914-1.875-1.371-3.234-1.371zM111.973 190.643c-.868 1.242-2.08 2.173-3.639 2.795-1.547.609-3.352.914-5.414.914-2.086 0-3.938-.487-5.555-1.459-1.617-.985-2.87-2.379-3.761-4.184-.88-1.805-1.33-3.897-1.354-6.275v-2.233c0-3.855.897-6.844 2.69-8.965 1.804-2.121 4.335-3.181 7.593-3.181 2.672 0 4.822.685 6.451 2.056 1.629 1.36 2.625 3.293 2.989 5.801h-3.375c-.633-3.387-2.649-5.08-6.047-5.08-2.262 0-3.979.797-5.15 2.391-1.16 1.582-1.747 3.879-1.758 6.89v2.092c0 2.871.656 5.156 1.968 6.856 1.313 1.687 3.088 2.531 5.327 2.531 1.265 0 2.373-.141 3.322-.422.949-.281 1.734-.756 2.355-1.424v-5.748h-5.924v-2.742h9.282v9.387zm14.326-12.745a9.754 9.754 0 00-1.6-.123c-2.133 0-3.58.909-4.342 2.725V194h-3.252v-19.02h3.165l.052 2.198c1.067-1.699 2.578-2.549 4.535-2.549.633 0 1.114.082 1.442.246v3.023zM132.838 194h-3.252v-19.02h3.252V194zm-3.516-24.064c0-.528.158-.973.475-1.336.328-.364.808-.545 1.441-.545s1.114.181 1.442.545c.328.363.492.808.492 1.336 0 .527-.164.966-.492 1.318-.328.351-.809.527-1.442.527-.633 0-1.113-.176-1.441-.527-.317-.352-.475-.791-.475-1.318zm7.946 14.396c0-2.918.691-5.262 2.074-7.031 1.383-1.781 3.193-2.672 5.431-2.672 2.227 0 3.991.762 5.291 2.285V167h3.252v27h-2.988l-.158-2.039c-1.301 1.594-3.111 2.391-5.432 2.391-2.203 0-4.002-.903-5.396-2.707-1.383-1.805-2.074-4.161-2.074-7.067v-.246zm3.252.369c0 2.156.445 3.844 1.335 5.063.891 1.218 2.122 1.828 3.692 1.828 2.062 0 3.568-.926 4.517-2.778v-8.736c-.972-1.793-2.466-2.689-4.482-2.689-1.594 0-2.836.615-3.727 1.845-.89 1.231-1.335 3.053-1.335 5.467zm46.125 1.178c-.317 2.707-1.319 4.799-3.006 6.275-1.676 1.465-3.909 2.198-6.698 2.198-3.023 0-5.449-1.084-7.277-3.252-1.816-2.168-2.725-5.069-2.725-8.702v-2.46c0-2.379.422-4.471 1.266-6.276.856-1.805 2.063-3.187 3.621-4.148 1.559-.973 3.363-1.459 5.414-1.459 2.719 0 4.899.761 6.539 2.285 1.641 1.512 2.596 3.609 2.866 6.293h-3.393c-.293-2.039-.932-3.516-1.916-4.43-.973-.914-2.338-1.371-4.096-1.371-2.156 0-3.849.797-5.08 2.391-1.219 1.593-1.828 3.861-1.828 6.802v2.479c0 2.777.58 4.986 1.74 6.627 1.16 1.64 2.783 2.461 4.869 2.461 1.875 0 3.311-.422 4.307-1.266 1.008-.855 1.676-2.338 2.004-4.447h3.393zm12.005 8.473c-2.578 0-4.675-.844-6.293-2.532-1.617-1.699-2.425-3.966-2.425-6.802v-.598c0-1.887.357-3.568 1.072-5.045.726-1.488 1.734-2.648 3.023-3.48 1.301-.844 2.707-1.266 4.219-1.266 2.473 0 4.395.814 5.766 2.443 1.371 1.629 2.056 3.961 2.056 6.996v1.354h-12.884c.046 1.875.591 3.392 1.634 4.553 1.055 1.148 2.391 1.722 4.008 1.722 1.149 0 2.121-.234 2.918-.703a7.345 7.345 0 002.092-1.863l1.986 1.547c-1.593 2.449-3.984 3.674-7.172 3.674zm-.404-17.051c-1.312 0-2.414.48-3.305 1.441-.89.949-1.441 2.285-1.652 4.008h9.527v-.246c-.093-1.652-.539-2.93-1.336-3.832-.796-.914-1.875-1.371-3.234-1.371zM213.381 194h-3.252v-27h3.252v27zm8.754 0h-3.252v-27h3.252v27zM1028.96 314.643c-.87 1.242-2.08 2.173-3.64 2.795-1.55.609-3.35.914-5.42.914-2.08 0-3.93-.487-5.55-1.459-1.62-.985-2.87-2.379-3.76-4.184-.88-1.805-1.33-3.897-1.36-6.275v-2.233c0-3.855.9-6.844 2.69-8.965 1.81-2.121 4.34-3.181 7.6-3.181 2.67 0 4.82.685 6.45 2.056 1.63 1.36 2.62 3.293 2.99 5.801h-3.38c-.63-3.387-2.65-5.08-6.04-5.08-2.27 0-3.98.797-5.16 2.391-1.16 1.582-1.74 3.879-1.75 6.89v2.092c0 2.871.65 5.156 1.97 6.856 1.31 1.687 3.08 2.531 5.32 2.531 1.27 0 2.37-.141 3.32-.422.95-.281 1.74-.756 2.36-1.424v-5.748h-5.92v-2.742h9.28v9.387zm14.32-12.745a9.684 9.684 0 00-1.6-.123c-2.13 0-3.58.909-4.34 2.725V318h-3.25v-19.02h3.16l.06 2.198c1.06-1.699 2.57-2.549 4.53-2.549.63 0 1.12.082 1.44.246v3.023zm6.54 16.102h-3.25v-19.02h3.25V318zm-3.51-24.064c0-.528.15-.973.47-1.336.33-.364.81-.545 1.44-.545.64 0 1.12.181 1.44.545.33.363.5.808.5 1.336 0 .527-.17.966-.5 1.318-.32.351-.8.527-1.44.527-.63 0-1.11-.176-1.44-.527-.32-.352-.47-.791-.47-1.318zm7.94 14.396c0-2.918.69-5.262 2.08-7.031 1.38-1.781 3.19-2.672 5.43-2.672 2.22 0 3.99.762 5.29 2.285V291h3.25v27h-2.99l-.16-2.039c-1.3 1.594-3.11 2.391-5.43 2.391-2.2 0-4-.903-5.39-2.707-1.39-1.805-2.08-4.161-2.08-7.067v-.246zm3.25.369c0 2.156.45 3.844 1.34 5.063.89 1.218 2.12 1.828 3.69 1.828 2.06 0 3.57-.926 4.52-2.778v-8.736c-.97-1.793-2.47-2.689-4.48-2.689-1.6 0-2.84.615-3.73 1.845-.89 1.231-1.34 3.053-1.34 5.467zm30.7 6.539h12.12V318h-15.52v-25.594h3.4v22.834zm19 2.76h-3.25v-19.02h3.25V318zm-3.52-24.064c0-.528.16-.973.48-1.336.32-.364.8-.545 1.44-.545.63 0 1.11.181 1.44.545.33.363.49.808.49 1.336 0 .527-.16.966-.49 1.318-.33.351-.81.527-1.44.527-.64 0-1.12-.176-1.44-.527-.32-.352-.48-.791-.48-1.318zm11.81 5.044l.11 2.391c1.45-1.828 3.35-2.742 5.69-2.742 4.02 0 6.05 2.267 6.09 6.803V318h-3.26v-12.586c-.01-1.371-.32-2.385-.94-3.041-.61-.656-1.57-.984-2.87-.984-1.05 0-1.98.281-2.78.843a5.827 5.827 0 00-1.86 2.215V318h-3.25v-19.02h3.07zm24.68 19.372c-2.57 0-4.67-.844-6.29-2.532-1.62-1.699-2.42-3.966-2.42-6.802v-.598c0-1.887.35-3.568 1.07-5.045.72-1.488 1.73-2.648 3.02-3.48 1.3-.844 2.71-1.266 4.22-1.266 2.47 0 4.39.814 5.77 2.443 1.37 1.629 2.05 3.961 2.05 6.996v1.354h-12.88c.04 1.875.59 3.392 1.63 4.553 1.06 1.148 2.39 1.722 4.01 1.722 1.15 0 2.12-.234 2.92-.703a7.459 7.459 0 002.09-1.863l1.99 1.547c-1.6 2.449-3.99 3.674-7.18 3.674zm-.4-17.051c-1.31 0-2.41.48-3.31 1.441-.89.949-1.44 2.285-1.65 4.008h9.53v-.246c-.09-1.652-.54-2.93-1.34-3.832-.79-.914-1.87-1.371-3.23-1.371zM471.273 538.643c-.867 1.242-2.08 2.173-3.638 2.795-1.547.609-3.352.914-5.414.914-2.086 0-3.938-.487-5.555-1.459-1.617-.985-2.871-2.379-3.762-4.184-.879-1.805-1.33-3.897-1.353-6.275v-2.233c0-3.855.896-6.844 2.689-8.965 1.805-2.121 4.336-3.181 7.594-3.181 2.672 0 4.822.685 6.451 2.056 1.629 1.36 2.625 3.293 2.988 5.801h-3.375c-.632-3.387-2.648-5.08-6.046-5.08-2.262 0-3.979.797-5.151 2.391-1.16 1.582-1.746 3.879-1.758 6.89v2.092c0 2.871.657 5.156 1.969 6.856 1.313 1.687 3.088 2.531 5.326 2.531 1.266 0 2.373-.141 3.323-.422.949-.281 1.734-.756 2.355-1.424v-5.748h-5.924v-2.742h9.281v9.387zm14.327-12.745a9.763 9.763 0 00-1.6-.123c-2.133 0-3.58.909-4.342 2.725V542h-3.252v-19.02h3.164l.053 2.198c1.066-1.699 2.578-2.549 4.535-2.549.633 0 1.113.082 1.442.246v3.023zM492.139 542h-3.252v-19.02h3.252V542zm-3.516-24.064c0-.528.158-.973.475-1.336.328-.364.808-.545 1.441-.545s1.113.181 1.441.545c.329.363.493.808.493 1.336 0 .527-.164.966-.493 1.318-.328.351-.808.527-1.441.527s-1.113-.176-1.441-.527c-.317-.352-.475-.791-.475-1.318zm7.945 14.396c0-2.918.692-5.262 2.075-7.031 1.382-1.781 3.193-2.672 5.431-2.672 2.227 0 3.99.762 5.291 2.285V515h3.252v27h-2.988l-.158-2.039c-1.301 1.594-3.112 2.391-5.432 2.391-2.203 0-4.002-.903-5.396-2.707-1.383-1.805-2.075-4.161-2.075-7.067v-.246zm3.252.369c0 2.156.446 3.844 1.336 5.063.891 1.218 2.121 1.828 3.692 1.828 2.062 0 3.568-.926 4.517-2.778v-8.736c-.972-1.793-2.467-2.689-4.482-2.689-1.594 0-2.836.615-3.727 1.845-.89 1.231-1.336 3.053-1.336 5.467zm44.28-13.517h-8.227V542h-3.357v-22.816h-8.209v-2.778H544.1v2.778zM557.125 542c-.187-.375-.34-1.043-.457-2.004-1.512 1.57-3.316 2.356-5.414 2.356-1.875 0-3.416-.528-4.623-1.582-1.195-1.067-1.793-2.415-1.793-4.043 0-1.981.75-3.516 2.25-4.606 1.512-1.101 3.633-1.652 6.363-1.652h3.164v-1.494c0-1.137-.34-2.039-1.019-2.707-.68-.68-1.682-1.02-3.006-1.02-1.16 0-2.133.293-2.918.879-.785.586-1.178 1.295-1.178 2.127h-3.269c0-.949.334-1.863 1.002-2.742.679-.891 1.593-1.594 2.742-2.11 1.16-.515 2.431-.773 3.814-.773 2.192 0 3.908.551 5.151 1.652 1.242 1.09 1.886 2.596 1.933 4.518v8.754c0 1.746.223 3.135.668 4.166V542h-3.41zm-5.396-2.479a5.709 5.709 0 002.9-.791c.914-.527 1.576-1.212 1.986-2.056v-3.903h-2.549c-3.984 0-5.976 1.167-5.976 3.499 0 1.019.34 1.816 1.019 2.39.68.574 1.553.861 2.62.861zm20.865.176c1.16 0 2.174-.351 3.041-1.054.867-.704 1.347-1.582 1.441-2.637h3.076c-.058 1.09-.433 2.127-1.125 3.111-.691.985-1.617 1.77-2.777 2.356a7.932 7.932 0 01-3.656.879c-2.59 0-4.653-.862-6.188-2.584-1.523-1.735-2.285-4.102-2.285-7.102v-.545c0-1.851.34-3.498 1.02-4.939.679-1.442 1.652-2.561 2.918-3.358 1.277-.797 2.783-1.195 4.517-1.195 2.133 0 3.903.639 5.309 1.916 1.418 1.277 2.174 2.935 2.267 4.975h-3.076c-.094-1.231-.562-2.239-1.406-3.024-.832-.797-1.863-1.195-3.094-1.195-1.652 0-2.935.597-3.849 1.793-.903 1.183-1.354 2.9-1.354 5.15v.615c0 2.192.451 3.879 1.354 5.063.902 1.183 2.191 1.775 3.867 1.775zm16.523-6.504l-2.039 2.127V542h-3.252v-27h3.252v16.33l1.74-2.092 5.924-6.258h3.955l-7.4 7.946L599.559 542h-3.815l-6.627-8.807zm-136.705 40.418c0-2.648.352-5.191 1.055-7.629.715-2.437 1.775-4.652 3.181-6.644 1.407-1.992 2.866-3.399 4.377-4.219l.668 2.145c-1.711 1.312-3.117 3.316-4.218 6.011-1.09 2.696-1.688 5.713-1.793 9.053l-.018 1.494c0 4.524.826 8.449 2.479 11.778.996 1.992 2.179 3.55 3.55 4.675l-.668 1.987c-1.558-.867-3.046-2.321-4.464-4.36-2.766-3.984-4.149-8.748-4.149-14.291zm31.764 2.268c-.317 2.707-1.319 4.799-3.006 6.275-1.676 1.465-3.908 2.198-6.697 2.198-3.024 0-5.45-1.084-7.278-3.252-1.816-2.168-2.724-5.069-2.724-8.702v-2.46c0-2.379.422-4.471 1.265-6.276.856-1.805 2.063-3.187 3.621-4.148 1.559-.973 3.364-1.459 5.414-1.459 2.719 0 4.899.761 6.54 2.285 1.64 1.512 2.595 3.609 2.865 6.293h-3.393c-.293-2.039-.931-3.516-1.916-4.43-.972-.914-2.338-1.371-4.096-1.371-2.156 0-3.849.797-5.08 2.391-1.218 1.593-1.828 3.861-1.828 6.802v2.479c0 2.777.58 4.986 1.741 6.627 1.16 1.64 2.783 2.461 4.869 2.461 1.875 0 3.31-.422 4.306-1.266 1.008-.855 1.676-2.338 2.004-4.447h3.393zm3.252-1.565c0-1.863.363-3.539 1.09-5.027.738-1.488 1.757-2.637 3.058-3.445 1.313-.809 2.807-1.213 4.483-1.213 2.589 0 4.681.896 6.275 2.689 1.605 1.793 2.408 4.178 2.408 7.155v.228c0 1.852-.357 3.516-1.072 4.992-.703 1.465-1.717 2.608-3.041 3.428-1.313.82-2.824 1.231-4.535 1.231-2.578 0-4.67-.897-6.276-2.69-1.593-1.793-2.39-4.166-2.39-7.119v-.229zm3.269.387c0 2.11.487 3.803 1.459 5.08.985 1.278 2.297 1.916 3.938 1.916 1.652 0 2.965-.644 3.937-1.933.973-1.301 1.459-3.118 1.459-5.45 0-2.085-.498-3.773-1.494-5.062-.984-1.301-2.297-1.951-3.937-1.951-1.606 0-2.901.638-3.885 1.916-.985 1.277-1.477 3.105-1.477 5.484zM512.354 584h-3.252v-27h3.252v27zm16.962-1.881c-1.265 1.488-3.123 2.233-5.572 2.233-2.027 0-3.574-.586-4.64-1.758-1.055-1.184-1.588-2.93-1.6-5.239V564.98h3.252v12.288c0 2.882 1.172 4.324 3.515 4.324 2.485 0 4.137-.926 4.958-2.778V564.98h3.251V584h-3.093l-.071-1.881zm11.18-17.139l.088 2.11c1.395-1.641 3.275-2.461 5.643-2.461 2.66 0 4.47 1.019 5.431 3.059a7.215 7.215 0 012.461-2.215c1.02-.563 2.221-.844 3.604-.844 4.172 0 6.293 2.209 6.363 6.627V584h-3.252v-12.551c0-1.359-.311-2.373-.932-3.041-.621-.679-1.664-1.019-3.129-1.019-1.207 0-2.209.363-3.005 1.09-.797.714-1.26 1.681-1.389 2.9V584h-3.27v-12.463c0-2.766-1.353-4.148-4.06-4.148-2.133 0-3.592.908-4.377 2.724V584h-3.252v-19.02h3.076zm31.588 0l.105 2.391c1.454-1.828 3.352-2.742 5.696-2.742 4.019 0 6.047 2.267 6.082 6.803V584h-3.252v-12.586c-.012-1.371-.328-2.385-.949-3.041-.61-.656-1.565-.984-2.866-.984-1.054 0-1.98.281-2.777.843a5.73 5.73 0 00-1.863 2.215V584h-3.252v-19.02h3.076zm24.293 8.807c0 2.613-.346 5.121-1.037 7.524a21.98 21.98 0 01-3.147 6.627c-1.406 2.027-2.882 3.468-4.429 4.324l-.686-1.987c1.805-1.382 3.252-3.527 4.342-6.433 1.101-2.918 1.664-6.153 1.687-9.703v-.563c0-2.461-.257-4.746-.773-6.855-.516-2.121-1.236-4.02-2.162-5.696-.914-1.675-1.945-2.982-3.094-3.92l.686-1.986c1.547.856 3.017 2.285 4.412 4.289a21.983 21.983 0 013.146 6.627c.703 2.414 1.055 4.998 1.055 7.752zM1202.99 681.643c-.86 1.242-2.08 2.173-3.63 2.795-1.55.609-3.36.914-5.42.914-2.08 0-3.94-.487-5.55-1.459-1.62-.985-2.87-2.379-3.77-4.184-.87-1.805-1.33-3.897-1.35-6.275v-2.233c0-3.855.9-6.844 2.69-8.965 1.81-2.121 4.34-3.181 7.59-3.181 2.68 0 4.83.685 6.46 2.056 1.62 1.36 2.62 3.293 2.98 5.801h-3.37c-.63-3.387-2.65-5.08-6.05-5.08-2.26 0-3.98.797-5.15 2.391-1.16 1.582-1.74 3.879-1.76 6.89v2.092c0 2.871.66 5.156 1.97 6.856 1.32 1.687 3.09 2.531 5.33 2.531 1.26 0 2.37-.141 3.32-.422.95-.281 1.74-.756 2.36-1.424v-5.748h-5.93v-2.742h9.28v9.387zm14.33-12.745a9.771 9.771 0 00-1.6-.123c-2.13 0-3.58.909-4.34 2.725V685h-3.25v-19.02h3.16l.05 2.198c1.07-1.699 2.58-2.549 4.54-2.549.63 0 1.11.082 1.44.246v3.023zm6.54 16.102h-3.25v-19.02h3.25V685zm-3.52-24.064c0-.528.16-.973.48-1.336.33-.364.81-.545 1.44-.545.63 0 1.11.181 1.44.545.33.363.49.808.49 1.336 0 .527-.16.966-.49 1.318-.33.351-.81.527-1.44.527-.63 0-1.11-.176-1.44-.527-.32-.352-.48-.791-.48-1.318zm7.95 14.396c0-2.918.69-5.262 2.07-7.031 1.39-1.781 3.2-2.672 5.43-2.672 2.23 0 4 .762 5.3 2.285V658h3.25v27h-2.99l-.16-2.039c-1.3 1.594-3.11 2.391-5.43 2.391-2.2 0-4-.903-5.4-2.707-1.38-1.805-2.07-4.161-2.07-7.067v-.246zm3.25.369c0 2.156.45 3.844 1.34 5.063.89 1.218 2.12 1.828 3.69 1.828 2.06 0 3.57-.926 4.52-2.778v-8.736c-.98-1.793-2.47-2.689-4.49-2.689-1.59 0-2.83.615-3.72 1.845-.89 1.231-1.34 3.053-1.34 5.467zm41.43 2.619h-10.72l-2.41 6.68h-3.48l9.77-25.594h2.96l9.79 25.594h-3.46l-2.45-6.68zm-9.7-2.777h8.7l-4.36-11.971-4.34 11.971zm27.74-6.645a9.771 9.771 0 00-1.6-.123c-2.13 0-3.58.909-4.34 2.725V685h-3.26v-19.02h3.17l.05 2.198c1.07-1.699 2.58-2.549 4.54-2.549.63 0 1.11.082 1.44.246v3.023zm10.54 16.454c-2.57 0-4.67-.844-6.29-2.532-1.62-1.699-2.42-3.966-2.42-6.802v-.598c0-1.887.35-3.568 1.07-5.045.72-1.488 1.73-2.648 3.02-3.48 1.3-.844 2.71-1.266 4.22-1.266 2.47 0 4.39.814 5.77 2.443 1.37 1.629 2.05 3.961 2.05 6.996v1.354h-12.88c.04 1.875.59 3.392 1.63 4.553 1.06 1.148 2.39 1.722 4.01 1.722 1.15 0 2.12-.234 2.92-.703.8-.469 1.49-1.09 2.09-1.863l1.99 1.547c-1.6 2.449-3.99 3.674-7.18 3.674zm-.4-17.051c-1.31 0-2.41.48-3.3 1.441-.89.949-1.45 2.285-1.66 4.008h9.53v-.246c-.09-1.652-.54-2.93-1.34-3.832-.79-.914-1.87-1.371-3.23-1.371zM1324.49 685c-.18-.375-.34-1.043-.45-2.004-1.51 1.57-3.32 2.356-5.42 2.356-1.87 0-3.41-.528-4.62-1.582-1.2-1.067-1.79-2.415-1.79-4.043 0-1.981.75-3.516 2.25-4.606 1.51-1.101 3.63-1.652 6.36-1.652h3.16v-1.494c0-1.137-.34-2.039-1.02-2.707-.67-.68-1.68-1.02-3-1.02-1.16 0-2.13.293-2.92.879-.78.586-1.18 1.295-1.18 2.127h-3.27c0-.949.34-1.863 1.01-2.742.68-.891 1.59-1.594 2.74-2.11 1.16-.515 2.43-.773 3.81-.773 2.19 0 3.91.551 5.15 1.652 1.24 1.09 1.89 2.596 1.94 4.518v8.754c0 1.746.22 3.135.66 4.166V685h-3.41zm-5.39-2.479c1.02 0 1.98-.263 2.9-.791.91-.527 1.57-1.212 1.98-2.056v-3.903h-2.54c-3.99 0-5.98 1.167-5.98 3.499 0 1.019.34 1.816 1.02 2.39.68.574 1.55.861 2.62.861zM65.53 104h-3.31V88.018l-4.88 1.668v-2.803l7.766-2.858h.423V104zM36.53 131h-3.31v-15.982l-4.88 1.668v-2.803l7.765-2.858h.424V131zM260.918 105h-13.385v-2.283l6.631-7.233c.957-1.066 1.636-1.955 2.037-2.666.41-.72.615-1.44.615-2.16 0-.948-.268-1.713-.806-2.297-.529-.583-1.244-.875-2.147-.875-1.075 0-1.909.328-2.502.985-.592.656-.888 1.554-.888 2.693h-3.323c0-1.212.274-2.301.821-3.267a5.735 5.735 0 012.365-2.27c1.03-.538 2.215-.807 3.555-.807 1.932 0 3.454.488 4.566 1.463 1.121.966 1.682 2.306 1.682 4.02 0 .993-.283 2.037-.848 3.13-.556 1.085-1.472 2.32-2.748 3.706l-4.867 5.209h9.242V105zM40.918 254H27.533v-2.283l6.631-7.233c.957-1.066 1.636-1.955 2.037-2.666.41-.72.615-1.44.615-2.16 0-.948-.269-1.713-.806-2.297-.529-.583-1.244-.875-2.147-.875-1.075 0-1.91.328-2.502.985-.592.656-.888 1.554-.888 2.693H27.15c0-1.212.274-2.301.82-3.268a5.74 5.74 0 012.366-2.269c1.03-.538 2.215-.807 3.555-.807 1.932 0 3.454.488 4.566 1.463 1.121.966 1.682 2.306 1.682 4.02 0 .993-.283 2.037-.848 3.131-.556 1.084-1.472 2.319-2.748 3.705l-4.867 5.209h9.242V254zM31.375 367.529h2.023c1.021-.009 1.828-.273 2.42-.793.602-.519.903-1.271.903-2.256 0-.947-.25-1.681-.752-2.201-.492-.528-1.249-.793-2.27-.793-.893 0-1.627.26-2.201.78-.574.51-.861 1.18-.861 2.009h-3.323c0-1.02.27-1.95.807-2.789.547-.838 1.303-1.49 2.27-1.955.975-.474 2.064-.711 3.267-.711 1.987 0 3.546.502 4.676 1.504 1.14.994 1.709 2.379 1.709 4.156 0 .894-.287 1.737-.861 2.53a5.328 5.328 0 01-2.202 1.777c1.094.374 1.924.962 2.489 1.764.574.802.861 1.759.861 2.871 0 1.786-.615 3.208-1.846 4.266-1.221 1.057-2.83 1.585-4.826 1.585-1.914 0-3.482-.51-4.703-1.531s-1.832-2.379-1.832-4.074h3.322c0 .875.292 1.586.875 2.133.593.547 1.386.82 2.38.82 1.03 0 1.84-.273 2.433-.82.592-.547.889-1.34.889-2.379 0-1.048-.31-1.855-.93-2.42-.62-.565-1.54-.848-2.762-.848h-1.955v-2.625zM38.772 490.904h2.474v2.666h-2.474V498h-3.323v-4.43h-8.6l-.095-2.023 8.586-13.453h3.431v12.81zm-8.532 0h5.21v-8.312l-.247.437-4.963 7.875zM28.422 609.129l1.08-10.035h10.691v2.871h-7.93l-.546 4.758c.92-.529 1.96-.793 3.117-.793 1.896 0 3.368.606 4.416 1.818 1.057 1.212 1.586 2.844 1.586 4.895 0 2.023-.583 3.636-1.75 4.839-1.167 1.194-2.766 1.791-4.799 1.791-1.823 0-3.336-.515-4.539-1.544-1.194-1.04-1.841-2.407-1.941-4.102h3.213c.127.966.474 1.709 1.039 2.228.565.511 1.303.766 2.214.766 1.021 0 1.814-.364 2.38-1.094.574-.729.86-1.722.86-2.98 0-1.212-.314-2.169-.943-2.871-.629-.711-1.495-1.067-2.597-1.067-.602 0-1.112.082-1.532.246-.419.155-.875.465-1.367.93l-2.652-.656zM37.87 724.998v2.748h-.411c-1.86.027-3.345.538-4.457 1.531-1.112.994-1.773 2.402-1.983 4.225 1.067-1.121 2.43-1.682 4.088-1.682 1.76 0 3.145.62 4.157 1.86 1.02 1.239 1.53 2.839 1.53 4.799 0 2.023-.596 3.664-1.79 4.921-1.185 1.249-2.744 1.873-4.676 1.873-1.987 0-3.6-.733-4.84-2.201-1.23-1.467-1.845-3.39-1.845-5.769v-1.135c0-3.491.847-6.225 2.543-8.203 1.704-1.978 4.151-2.967 7.341-2.967h.342zM34.3 734.5c-.728 0-1.398.205-2.009.615a3.61 3.61 0 00-1.326 1.641v1.012c0 1.476.31 2.652.93 3.527.62.866 1.421 1.299 2.406 1.299.984 0 1.764-.369 2.338-1.108.574-.738.861-1.709.861-2.912 0-1.203-.292-2.183-.875-2.939-.583-.757-1.358-1.135-2.324-1.135zM40.781 840.939L32.824 859h-3.486l7.943-17.24H26.986v-2.666h13.795v1.845zM430.375 93.53h2.023c1.021-.01 1.828-.274 2.42-.794.602-.52.903-1.271.903-2.255 0-.948-.251-1.682-.752-2.202-.492-.528-1.249-.793-2.27-.793-.893 0-1.627.26-2.201.78-.574.51-.861 1.18-.861 2.01h-3.323c0-1.021.269-1.951.807-2.79.547-.838 1.303-1.49 2.27-1.955.975-.474 2.064-.71 3.267-.71 1.987 0 3.546.5 4.676 1.503 1.139.994 1.709 2.38 1.709 4.157 0 .893-.287 1.736-.861 2.529a5.327 5.327 0 01-2.202 1.777c1.094.374 1.924.962 2.489 1.764.574.802.861 1.759.861 2.87 0 1.787-.615 3.209-1.846 4.267-1.221 1.057-2.83 1.585-4.826 1.585-1.914 0-3.482-.51-4.703-1.531s-1.832-2.379-1.832-4.074h3.322c0 .875.292 1.586.875 2.133.593.547 1.386.82 2.379.82 1.03 0 1.841-.273 2.434-.82.592-.547.888-1.34.888-2.38 0-1.047-.309-1.854-.929-2.419-.62-.565-1.541-.848-2.762-.848h-1.955V93.53zM620.771 97.904h2.475v2.666h-2.475V105h-3.322v-4.43h-8.599l-.096-2.023 8.586-13.453h3.431v12.81zm-8.531 0h5.209v-8.312l-.246.437-4.963 7.875zM791.422 95.129l1.08-10.035h10.691v2.87h-7.929l-.547 4.759c.92-.529 1.959-.793 3.117-.793 1.896 0 3.368.606 4.416 1.818 1.057 1.212 1.586 2.844 1.586 4.895 0 2.023-.583 3.636-1.75 4.839-1.167 1.194-2.766 1.791-4.799 1.791-1.823 0-3.336-.515-4.539-1.544-1.194-1.04-1.841-2.407-1.941-4.102h3.213c.127.966.473 1.709 1.039 2.228.565.511 1.303.766 2.214.766 1.021 0 1.814-.364 2.379-1.094.575-.729.862-1.722.862-2.98 0-1.212-.315-2.17-.944-2.871-.629-.711-1.494-1.067-2.597-1.067-.602 0-1.112.082-1.532.247-.419.154-.875.464-1.367.93l-2.652-.657zM982.869 84.998v2.748h-.41c-1.859.027-3.345.538-4.457 1.531-1.112.994-1.773 2.402-1.982 4.225 1.066-1.121 2.429-1.682 4.087-1.682 1.76 0 3.145.62 4.157 1.86 1.021 1.24 1.531 2.839 1.531 4.798 0 2.024-.597 3.665-1.791 4.922-1.185 1.249-2.744 1.873-4.676 1.873-1.987 0-3.6-.733-4.84-2.201-1.23-1.467-1.845-3.39-1.845-5.77v-1.134c0-3.49.847-6.225 2.543-8.203 1.704-1.978 4.151-2.967 7.341-2.967h.342zm-3.568 9.502c-.729 0-1.399.205-2.01.615a3.605 3.605 0 00-1.326 1.64v1.013c0 1.476.31 2.652.93 3.527.619.866 1.421 1.299 2.406 1.299.984 0 1.763-.369 2.338-1.108.574-.738.861-1.709.861-2.912 0-1.203-.292-2.183-.875-2.94-.583-.756-1.358-1.134-2.324-1.134zM1167.78 86.94l-7.96 18.06h-3.48l7.94-17.24h-10.29v-2.666h13.79v1.846zM1349.07 90.344c0 .975-.25 1.846-.75 2.611-.5.757-1.19 1.354-2.05 1.791 1.04.483 1.83 1.144 2.39 1.983.57.838.85 1.786.85 2.843 0 1.75-.59 3.14-1.78 4.17-1.18 1.021-2.76 1.531-4.73 1.531-1.98 0-3.56-.515-4.76-1.544-1.18-1.03-1.78-2.416-1.78-4.157a5.1 5.1 0 01.85-2.87c.57-.849 1.36-1.5 2.38-1.956a5.307 5.307 0 01-2.04-1.79c-.49-.767-.73-1.637-.73-2.612 0-1.696.54-3.04 1.64-4.033 1.09-.994 2.57-1.49 4.43-1.49 1.86 0 3.35.496 4.44 1.49 1.09.993 1.64 2.337 1.64 4.033zm-2.88 9.064c0-.984-.3-1.777-.89-2.379-.59-.61-1.36-.916-2.33-.916-.96 0-1.74.301-2.32.903-.58.601-.86 1.399-.86 2.392 0 .975.28 1.755.84 2.338.58.583 1.37.875 2.37.875s1.78-.282 2.34-.848c.56-.565.85-1.353.85-2.365zm-.43-8.941c0-.866-.25-1.577-.75-2.133-.5-.565-1.18-.848-2.02-.848-.85 0-1.52.27-2.01.807-.5.529-.74 1.253-.74 2.174 0 .911.24 1.636.74 2.174.5.537 1.17.806 2.02.806.85 0 1.52-.269 2.01-.806.5-.538.75-1.263.75-2.174zM1533.95 96.674c-1.11 1.176-2.41 1.763-3.89 1.763-1.75 0-3.15-.61-4.19-1.831-1.04-1.231-1.56-2.844-1.56-4.84 0-1.313.27-2.502.8-3.569.53-1.066 1.28-1.896 2.25-2.488.98-.593 2.11-.889 3.39-.889 2.01 0 3.6.748 4.78 2.243 1.17 1.494 1.76 3.495 1.76 6.001v.93c0 3.591-.81 6.33-2.43 8.217-1.63 1.887-4.05 2.844-7.26 2.871h-.4v-2.748h.48c1.96-.027 3.46-.497 4.51-1.408 1.05-.921 1.64-2.338 1.76-4.252zm-3.2-.834c.67 0 1.29-.192 1.88-.574.58-.383 1.03-.912 1.35-1.586v-1.3c0-1.467-.3-2.647-.9-3.54-.6-.893-1.38-1.34-2.34-1.34s-1.72.397-2.3 1.19c-.56.783-.84 1.777-.84 2.98 0 1.249.28 2.256.86 3.021.57.766 1.34 1.149 2.29 1.149z" fill="#000"/>
</svg>
