<svg width="912" height="368" viewBox="0 0 912 368" fill="none" xmlns="http://www.w3.org/2000/svg">
<line x1="473.8" y1="325.211" x2="473.8" y2="280.235" stroke="black"/>
<path d="M1 325.977L1 281" stroke="black"/>
<path d="M474.3 325.563L1 325.563" stroke="black"/>
<line x1="62.5" y1="147" x2="62.5" y2="235" stroke="black"/>
<line x1="452.5" y1="147" x2="452.5" y2="234" stroke="black"/>
<path d="M62.399 146.555H453.082" stroke="black"/>
<line x1="806.205" y1="325.211" x2="806.205" y2="280.235" stroke="black"/>
<line x1="482.182" y1="325.211" x2="482.182" y2="280.235" stroke="black"/>
<path d="M806.705 325.563L480.776 325.563" stroke="black"/>
<line x1="1.5" y1="96.765" x2="1.49999" y2="234.907" stroke="black"/>
<line x1="906.599" y1="96.765" x2="906.599" y2="234.907" stroke="black"/>
<path d="M1 95.6858H908" stroke="black"/>
<line x1="907.653" y1="325.211" x2="907.653" y2="280.235" stroke="black"/>
<line x1="814.472" y1="325.211" x2="814.472" y2="280.235" stroke="black"/>
<path d="M908.153 325.563H813.18" stroke="black"/>
<path d="M394.339 72.2111C394.495 73.4455 394.866 74.3244 395.452 74.8478C396.046 75.3713 396.917 75.633 398.065 75.633C399.284 75.633 400.226 75.1877 400.89 74.2971C401.562 73.4064 401.921 72.1213 401.968 70.4416H395.944V68.051H401.968C401.905 66.3635 401.526 65.0744 400.831 64.1838C400.144 63.2932 399.175 62.8478 397.925 62.8478C396.831 62.8478 395.991 63.1213 395.405 63.6682C394.827 64.215 394.468 65.1057 394.327 66.34H391.374C391.562 64.4807 392.226 63.0353 393.366 62.0041C394.515 60.9728 396.034 60.4572 397.925 60.4572C399.323 60.4572 400.554 60.7853 401.616 61.4416C402.679 62.0978 403.495 63.0353 404.065 64.2541C404.644 65.4728 404.937 66.883 404.944 68.4846V69.926C404.944 71.5432 404.663 72.965 404.101 74.1916C403.546 75.4103 402.745 76.3478 401.698 77.0041C400.651 77.6603 399.44 77.9885 398.065 77.9885C396.128 77.9885 394.573 77.4807 393.401 76.465C392.23 75.4416 391.558 74.0236 391.386 72.2111H394.339ZM418.034 65.0744V77.7541H415.187V67.3713H411.601L411.366 71.7892C411.218 73.9142 410.808 75.4416 410.136 76.3713C409.472 77.2932 408.452 77.7541 407.077 77.7541H406.198L406.187 75.3869L406.772 75.3283C407.397 75.2424 407.851 74.8635 408.132 74.1916C408.421 73.5119 408.605 72.2775 408.683 70.4885L408.917 65.0744H418.034ZM426.647 77.9885C424.843 77.9885 423.378 77.4221 422.253 76.2892C421.136 75.1486 420.577 73.633 420.577 71.7424V71.3908C420.577 70.1252 420.819 68.9963 421.304 68.0041C421.796 67.0041 422.483 66.2267 423.366 65.6721C424.249 65.1174 425.233 64.84 426.319 64.84C428.046 64.84 429.378 65.3908 430.315 66.4924C431.261 67.5939 431.733 69.1525 431.733 71.1682V72.3166H423.448C423.534 73.3635 423.882 74.1916 424.491 74.801C425.108 75.4103 425.882 75.715 426.812 75.715C428.116 75.715 429.179 75.1877 429.999 74.133L431.534 75.5978C431.026 76.3557 430.347 76.9455 429.495 77.3674C428.651 77.7814 427.702 77.9885 426.647 77.9885ZM426.308 67.1252C425.526 67.1252 424.894 67.3986 424.409 67.9455C423.933 68.4924 423.628 69.2541 423.495 70.2307H428.921V70.0197C428.858 69.0666 428.605 68.3478 428.159 67.8635C427.714 67.3713 427.097 67.1252 426.308 67.1252ZM441.483 74.2502L445.233 65.0744H448.796V77.7541H445.948V69.3635L442.456 77.7541H440.522L437.019 69.3166V77.7541H434.171V65.0744H437.757L441.483 74.2502ZM457.585 77.9885C455.78 77.9885 454.315 77.4221 453.19 76.2892C452.073 75.1486 451.515 73.633 451.515 71.7424V71.3908C451.515 70.1252 451.757 68.9963 452.241 68.0041C452.733 67.0041 453.421 66.2267 454.304 65.6721C455.187 65.1174 456.171 64.84 457.257 64.84C458.983 64.84 460.315 65.3908 461.253 66.4924C462.198 67.5939 462.671 69.1525 462.671 71.1682V72.3166H454.386C454.472 73.3635 454.819 74.1916 455.429 74.801C456.046 75.4103 456.819 75.715 457.749 75.715C459.054 75.715 460.116 75.1877 460.937 74.133L462.472 75.5978C461.964 76.3557 461.284 76.9455 460.433 77.3674C459.589 77.7814 458.64 77.9885 457.585 77.9885ZM457.245 67.1252C456.464 67.1252 455.831 67.3986 455.347 67.9455C454.87 68.4924 454.565 69.2541 454.433 70.2307H459.858V70.0197C459.796 69.0666 459.542 68.3478 459.097 67.8635C458.651 67.3713 458.034 67.1252 457.245 67.1252ZM475.632 77.7541H472.784V72.633H467.851V77.7541H465.003V65.0744H467.851V70.3596H472.784V65.0744H475.632V77.7541ZM488.651 67.3361H484.538V77.7541H481.69V67.3361H477.624V65.0744H488.651V67.3361Z" fill="black"/>
<path d="M210.285 128.027H203.676L202.293 132H199.211L205.656 114.938H208.316L214.773 132H211.68L210.285 128.027ZM204.508 125.637H209.453L206.98 118.559L204.508 125.637ZM225.789 121.582H221.676V132H218.828V121.582H214.762V119.32H225.789V121.582ZM238.797 125.789C238.797 127.75 238.352 129.316 237.461 130.488C236.57 131.652 235.375 132.234 233.875 132.234C232.484 132.234 231.371 131.777 230.535 130.863V136.875H227.688V119.32H230.312L230.43 120.609C231.266 119.594 232.402 119.086 233.84 119.086C235.387 119.086 236.598 119.664 237.473 120.82C238.355 121.969 238.797 123.566 238.797 125.613V125.789ZM235.961 125.543C235.961 124.277 235.707 123.273 235.199 122.531C234.699 121.789 233.98 121.418 233.043 121.418C231.879 121.418 231.043 121.898 230.535 122.859V128.484C231.051 129.469 231.895 129.961 233.066 129.961C233.973 129.961 234.68 129.598 235.188 128.871C235.703 128.137 235.961 127.027 235.961 125.543ZM249.133 119.32H251.969V132H249.133V123.539L244.164 132H241.328V119.32H244.164V127.781L249.133 119.32ZM260.969 120.023C262.562 120.023 263.84 120.559 264.801 121.629C265.762 122.691 266.242 124.137 266.242 125.965V126.105C266.242 127.934 265.719 129.414 264.672 130.547C263.633 131.68 262.219 132.246 260.43 132.246C258.688 132.246 257.281 131.668 256.211 130.512C255.141 129.355 254.605 127.777 254.605 125.777V124.957C254.605 122.223 255.09 120.059 256.059 118.465C257.027 116.871 258.473 115.875 260.395 115.477C261.473 115.258 262.168 115.027 262.48 114.785C262.801 114.535 262.961 114.199 262.961 113.777H265.258C265.258 114.566 265.129 115.207 264.871 115.699C264.613 116.191 264.219 116.594 263.688 116.906C263.156 117.211 262.242 117.5 260.945 117.773C259.758 118.023 258.852 118.469 258.227 119.109C257.609 119.75 257.195 120.637 256.984 121.77C258.117 120.605 259.445 120.023 260.969 120.023ZM260.406 122.309C259.484 122.309 258.762 122.621 258.238 123.246C257.715 123.863 257.453 124.816 257.453 126.105C257.453 127.324 257.711 128.273 258.227 128.953C258.742 129.633 259.477 129.973 260.43 129.973C261.375 129.973 262.105 129.633 262.621 128.953C263.145 128.266 263.406 127.234 263.406 125.859C263.406 124.766 263.145 123.902 262.621 123.27C262.105 122.629 261.367 122.309 260.406 122.309ZM272.91 127.922L275.488 119.32H278.523L273.484 133.922C272.711 136.055 271.398 137.121 269.547 137.121C269.133 137.121 268.676 137.051 268.176 136.91V134.707L268.715 134.742C269.434 134.742 269.973 134.609 270.332 134.344C270.699 134.086 270.988 133.648 271.199 133.031L271.609 131.941L267.156 119.32H270.227L272.91 127.922ZM290.148 121.582H286.035V132H283.188V121.582H279.121V119.32H290.148V121.582Z" fill="black"/>
<path d="M302.397 164.842C302.397 164.162 302.148 163.623 301.65 163.225C301.158 162.82 300.464 162.618 299.567 162.618C298.817 162.618 298.187 162.826 297.677 163.242C297.173 163.652 296.922 164.162 296.922 164.772H295.234C295.234 164.092 295.419 163.482 295.788 162.943C296.163 162.404 296.684 161.985 297.352 161.687C298.02 161.382 298.758 161.23 299.567 161.23C300.997 161.23 302.107 161.552 302.898 162.196C303.689 162.835 304.085 163.726 304.085 164.868C304.085 165.46 303.903 165.999 303.54 166.485C303.176 166.972 302.67 167.355 302.019 167.637C303.525 168.141 304.278 169.14 304.278 170.634C304.278 171.782 303.85 172.693 302.995 173.367C302.139 174.041 300.997 174.378 299.567 174.378C298.717 174.378 297.944 174.229 297.247 173.93C296.555 173.625 296.016 173.194 295.63 172.638C295.243 172.081 295.049 171.419 295.049 170.651H296.737C296.737 171.325 297.004 171.888 297.537 172.339C298.07 172.784 298.747 173.007 299.567 173.007C300.487 173.007 301.219 172.793 301.764 172.365C302.315 171.938 302.59 171.372 302.59 170.669C302.59 169.169 301.662 168.404 299.804 168.375H298.222V166.986H299.796C300.651 166.969 301.298 166.775 301.738 166.406C302.177 166.037 302.397 165.516 302.397 164.842ZM314.034 174.202H312.408V170.142H308.04V174.202H306.405V164.692H308.04V168.814H312.408V164.692H314.034V174.202ZM322.524 174.202C322.43 174.015 322.354 173.681 322.296 173.2C321.54 173.985 320.637 174.378 319.589 174.378C318.651 174.378 317.881 174.114 317.277 173.587C316.679 173.054 316.381 172.38 316.381 171.565C316.381 170.575 316.756 169.808 317.506 169.263C318.261 168.712 319.322 168.437 320.687 168.437H322.269V167.689C322.269 167.121 322.099 166.67 321.759 166.336C321.42 165.996 320.919 165.826 320.256 165.826C319.676 165.826 319.19 165.973 318.798 166.266C318.405 166.559 318.209 166.913 318.209 167.329H316.574C316.574 166.855 316.741 166.397 317.075 165.958C317.415 165.513 317.872 165.161 318.446 164.903C319.026 164.646 319.662 164.517 320.353 164.517C321.449 164.517 322.307 164.792 322.928 165.343C323.549 165.888 323.872 166.641 323.895 167.602V171.979C323.895 172.852 324.006 173.546 324.229 174.062V174.202H322.524ZM319.826 172.963C320.336 172.963 320.819 172.831 321.276 172.567C321.733 172.304 322.064 171.961 322.269 171.539V169.588H320.995C319.003 169.588 318.006 170.171 318.006 171.337C318.006 171.847 318.176 172.245 318.516 172.532C318.856 172.819 319.293 172.963 319.826 172.963ZM333.625 174.202H331.99V170.757C331.275 170.944 330.543 171.038 329.793 171.038C328.603 171.038 327.695 170.733 327.068 170.124C326.447 169.515 326.131 168.647 326.119 167.522V164.684H327.745V167.575C327.774 168.993 328.457 169.702 329.793 169.702C330.543 169.702 331.275 169.608 331.99 169.421V164.692H333.625V174.202ZM340.181 174.378C338.892 174.378 337.843 173.956 337.035 173.112C336.226 172.263 335.822 171.129 335.822 169.711V169.412C335.822 168.469 336.001 167.628 336.358 166.89C336.721 166.146 337.225 165.565 337.87 165.149C338.52 164.728 339.223 164.517 339.979 164.517C341.215 164.517 342.176 164.924 342.862 165.738C343.548 166.553 343.89 167.719 343.89 169.236V169.913H337.448C337.471 170.851 337.744 171.609 338.265 172.189C338.793 172.764 339.461 173.051 340.269 173.051C340.843 173.051 341.33 172.934 341.728 172.699C342.127 172.465 342.475 172.154 342.774 171.768L343.767 172.541C342.97 173.766 341.775 174.378 340.181 174.378ZM339.979 165.853C339.323 165.853 338.772 166.093 338.327 166.573C337.881 167.048 337.606 167.716 337.501 168.577H342.264V168.454C342.217 167.628 341.995 166.989 341.596 166.538C341.198 166.081 340.659 165.853 339.979 165.853ZM353.549 174.202H351.923V170.142H347.555V174.202H345.921V164.692H347.555V168.814H351.923V164.692H353.549V174.202ZM362.321 164.692H363.947V174.202H362.321V167.268L357.935 174.202H356.309V164.692H357.935V171.636L362.321 164.692ZM370.504 174.378C369.215 174.378 368.166 173.956 367.357 173.112C366.548 172.263 366.144 171.129 366.144 169.711V169.412C366.144 168.469 366.323 167.628 366.68 166.89C367.044 166.146 367.548 165.565 368.192 165.149C368.842 164.728 369.546 164.517 370.301 164.517C371.538 164.517 372.499 164.924 373.184 165.738C373.87 166.553 374.213 167.719 374.213 169.236V169.913H367.77C367.794 170.851 368.066 171.609 368.588 172.189C369.115 172.764 369.783 173.051 370.591 173.051C371.166 173.051 371.652 172.934 372.05 172.699C372.449 172.465 372.798 172.154 373.096 171.768L374.09 172.541C373.293 173.766 372.097 174.378 370.504 174.378ZM370.301 165.853C369.645 165.853 369.094 166.093 368.649 166.573C368.204 167.048 367.928 167.716 367.823 168.577H372.587V168.454C372.54 167.628 372.317 166.989 371.919 166.538C371.52 166.081 370.981 165.853 370.301 165.853ZM306.159 195.202C306.065 195.015 305.989 194.681 305.93 194.2C305.174 194.985 304.272 195.378 303.223 195.378C302.286 195.378 301.515 195.114 300.912 194.587C300.314 194.054 300.015 193.38 300.015 192.565C300.015 191.575 300.39 190.808 301.14 190.263C301.896 189.712 302.957 189.437 304.322 189.437H305.904V188.689C305.904 188.121 305.734 187.67 305.394 187.336C305.054 186.996 304.553 186.826 303.891 186.826C303.311 186.826 302.825 186.973 302.432 187.266C302.04 187.559 301.843 187.913 301.843 188.329H300.209C300.209 187.855 300.376 187.397 300.71 186.958C301.049 186.513 301.506 186.161 302.081 185.903C302.661 185.646 303.297 185.517 303.988 185.517C305.084 185.517 305.942 185.792 306.563 186.343C307.184 186.888 307.506 187.641 307.53 188.602V192.979C307.53 193.852 307.641 194.546 307.864 195.062V195.202H306.159ZM303.461 193.963C303.97 193.963 304.454 193.831 304.911 193.567C305.368 193.304 305.699 192.961 305.904 192.539V190.588H304.63C302.637 190.588 301.641 191.171 301.641 192.337C301.641 192.847 301.811 193.245 302.151 193.532C302.491 193.819 302.927 193.963 303.461 193.963ZM317.005 187.011H313.814V195.202H312.188V187.011H309.059V185.692H317.005V187.011ZM326.62 190.553C326.62 192 326.289 193.166 325.627 194.051C324.965 194.936 324.068 195.378 322.937 195.378C321.783 195.378 320.875 195.012 320.213 194.279V198.858H318.587V185.692H320.072L320.151 186.747C320.813 185.927 321.733 185.517 322.911 185.517C324.053 185.517 324.956 185.947 325.618 186.809C326.286 187.67 326.62 188.868 326.62 190.403V190.553ZM324.994 190.368C324.994 189.296 324.765 188.449 324.308 187.828C323.851 187.207 323.224 186.897 322.427 186.897C321.443 186.897 320.705 187.333 320.213 188.206V192.75C320.699 193.617 321.443 194.051 322.445 194.051C323.224 194.051 323.842 193.743 324.299 193.128C324.762 192.507 324.994 191.587 324.994 190.368ZM334.846 185.692H336.472V195.202H334.846V188.268L330.461 195.202H328.835V185.692H330.461V192.636L334.846 185.692ZM343.257 186.237C344.453 186.237 345.408 186.639 346.123 187.441C346.843 188.238 347.204 189.29 347.204 190.597V190.746C347.204 191.643 347.031 192.445 346.685 193.154C346.34 193.857 345.841 194.405 345.191 194.798C344.547 195.185 343.802 195.378 342.959 195.378C341.681 195.378 340.653 194.953 339.874 194.104C339.094 193.248 338.705 192.103 338.705 190.667V189.876C338.705 187.878 339.074 186.29 339.812 185.112C340.556 183.935 341.652 183.217 343.099 182.959C343.92 182.813 344.473 182.634 344.76 182.423C345.048 182.212 345.191 181.922 345.191 181.553H346.527C346.527 182.285 346.36 182.856 346.026 183.267C345.698 183.677 345.171 183.967 344.444 184.137L343.231 184.409C342.264 184.638 341.538 185.024 341.051 185.569C340.571 186.108 340.257 186.829 340.111 187.731C340.972 186.735 342.021 186.237 343.257 186.237ZM342.941 187.573C342.144 187.573 341.511 187.843 341.043 188.382C340.574 188.915 340.34 189.656 340.34 190.605V190.746C340.34 191.766 340.574 192.574 341.043 193.172C341.517 193.764 342.156 194.06 342.959 194.06C343.767 194.06 344.406 193.761 344.875 193.163C345.343 192.565 345.578 191.692 345.578 190.544C345.578 189.647 345.34 188.93 344.866 188.391C344.397 187.846 343.756 187.573 342.941 187.573ZM352.143 192.82L354.358 185.692H356.098L352.275 196.67C351.683 198.252 350.743 199.043 349.454 199.043L349.146 199.017L348.54 198.902V197.584L348.979 197.619C349.53 197.619 349.958 197.508 350.262 197.285C350.573 197.063 350.828 196.655 351.027 196.064L351.387 195.097L347.995 185.692H349.77L352.143 192.82ZM364.624 187.011H361.433V195.202H359.807V187.011H356.678V185.692H364.624V187.011ZM371.936 195.202C371.842 195.015 371.766 194.681 371.708 194.2C370.952 194.985 370.049 195.378 369.001 195.378C368.063 195.378 367.293 195.114 366.689 194.587C366.091 194.054 365.793 193.38 365.793 192.565C365.793 191.575 366.168 190.808 366.918 190.263C367.673 189.712 368.734 189.437 370.099 189.437H371.681V188.689C371.681 188.121 371.511 187.67 371.172 187.336C370.832 186.996 370.331 186.826 369.669 186.826C369.089 186.826 368.602 186.973 368.21 187.266C367.817 187.559 367.621 187.913 367.621 188.329H365.986C365.986 187.855 366.153 187.397 366.487 186.958C366.827 186.513 367.284 186.161 367.858 185.903C368.438 185.646 369.074 185.517 369.765 185.517C370.861 185.517 371.719 185.792 372.34 186.343C372.962 186.888 373.284 187.641 373.307 188.602V192.979C373.307 193.852 373.419 194.546 373.641 195.062V195.202H371.936ZM369.238 193.963C369.748 193.963 370.231 193.831 370.688 193.567C371.145 193.304 371.476 192.961 371.681 192.539V190.588H370.407C368.415 190.588 367.419 191.171 367.419 192.337C367.419 192.847 367.589 193.245 367.928 193.532C368.268 193.819 368.705 193.963 369.238 193.963Z" fill="black"/>
<path d="M94.4884 161.405H96.1759V174.202H94.4884V164.341L88.1867 174.202H86.4904V161.405H88.1867V171.267L94.4884 161.405ZM104.473 172.049L107.707 164.692H109.737V174.202H108.111V167.285L105.035 174.202H103.91L100.773 167.136V174.202H99.1466V164.692H101.256L104.473 172.049ZM119.625 164.692V174.202H117.99V170.502H115.538L113.297 174.202H111.539L113.93 170.256C113.32 170.033 112.852 169.69 112.524 169.228C112.201 168.759 112.04 168.214 112.04 167.593C112.04 166.726 112.365 166.028 113.016 165.501C113.666 164.968 114.536 164.698 115.626 164.692H119.625ZM113.675 167.61C113.675 168.073 113.833 168.448 114.15 168.735C114.466 169.017 114.885 169.16 115.406 169.166H117.99V166.011H115.652C115.049 166.011 114.569 166.16 114.211 166.459C113.854 166.752 113.675 167.136 113.675 167.61ZM74.5197 195.202C74.4259 195.015 74.3498 194.681 74.2912 194.2C73.5353 194.985 72.633 195.378 71.5841 195.378C70.6466 195.378 69.8761 195.114 69.2726 194.587C68.6749 194.054 68.3761 193.38 68.3761 192.565C68.3761 191.575 68.7511 190.808 69.5011 190.263C70.257 189.712 71.3175 189.437 72.6828 189.437H74.2648V188.689C74.2648 188.121 74.0949 187.67 73.755 187.336C73.4152 186.996 72.9142 186.826 72.2521 186.826C71.672 186.826 71.1857 186.973 70.7931 187.266C70.4005 187.559 70.2042 187.913 70.2042 188.329H68.5695C68.5695 187.855 68.7365 187.397 69.0705 186.958C69.4103 186.513 69.8673 186.161 70.4415 185.903C71.0216 185.646 71.6574 185.517 72.3488 185.517C73.4445 185.517 74.3029 185.792 74.924 186.343C75.5451 186.888 75.8673 187.641 75.8908 188.602V192.979C75.8908 193.852 76.0021 194.546 76.2248 195.062V195.202H74.5197ZM71.8214 193.963C72.3312 193.963 72.8146 193.831 73.2716 193.567C73.7287 193.304 74.0597 192.961 74.2648 192.539V190.588H72.9904C70.9982 190.588 70.0021 191.171 70.0021 192.337C70.0021 192.847 70.172 193.245 70.5119 193.532C70.8517 193.819 71.2882 193.963 71.8214 193.963ZM85.3654 187.011H82.1749V195.202H80.549V187.011H77.4201V185.692H85.3654V187.011ZM94.9806 190.553C94.9806 192 94.6496 193.166 93.9874 194.051C93.3253 194.936 92.4289 195.378 91.298 195.378C90.1437 195.378 89.2355 195.012 88.5734 194.279V198.858H86.9474V185.692H88.4328L88.5119 186.747C89.174 185.927 90.0939 185.517 91.2716 185.517C92.4142 185.517 93.3165 185.947 93.9787 186.809C94.6466 187.67 94.9806 188.868 94.9806 190.403V190.553ZM93.3546 190.368C93.3546 189.296 93.1261 188.449 92.6691 187.828C92.2121 187.207 91.5851 186.897 90.7882 186.897C89.8039 186.897 89.0656 187.333 88.5734 188.206V192.75C89.0597 193.617 89.8039 194.051 90.8058 194.051C91.5851 194.051 92.2033 193.743 92.6603 193.128C93.1232 192.507 93.3546 191.587 93.3546 190.368ZM103.207 185.692H104.833V195.202H103.207V188.268L98.8214 195.202H97.1955V185.692H98.8214V192.636L103.207 185.692ZM111.618 186.237C112.814 186.237 113.769 186.639 114.484 187.441C115.204 188.238 115.565 189.29 115.565 190.597V190.746C115.565 191.643 115.392 192.445 115.046 193.154C114.7 193.857 114.202 194.405 113.552 194.798C112.907 195.185 112.163 195.378 111.319 195.378C110.042 195.378 109.014 194.953 108.235 194.104C107.455 193.248 107.066 192.103 107.066 190.667V189.876C107.066 187.878 107.435 186.29 108.173 185.112C108.917 183.935 110.013 183.217 111.46 182.959C112.28 182.813 112.834 182.634 113.121 182.423C113.408 182.212 113.552 181.922 113.552 181.553H114.888C114.888 182.285 114.721 182.856 114.387 183.267C114.059 183.677 113.531 183.967 112.805 184.137L111.592 184.409C110.625 184.638 109.899 185.024 109.412 185.569C108.932 186.108 108.618 186.829 108.472 187.731C109.333 186.735 110.382 186.237 111.618 186.237ZM111.302 187.573C110.505 187.573 109.872 187.843 109.403 188.382C108.935 188.915 108.7 189.656 108.7 190.605V190.746C108.7 191.766 108.935 192.574 109.403 193.172C109.878 193.764 110.517 194.06 111.319 194.06C112.128 194.06 112.767 193.761 113.235 193.163C113.704 192.565 113.939 191.692 113.939 190.544C113.939 189.647 113.701 188.93 113.227 188.391C112.758 187.846 112.116 187.573 111.302 187.573ZM120.504 192.82L122.719 185.692H124.459L120.636 196.67C120.044 198.252 119.104 199.043 117.815 199.043L117.507 199.017L116.901 198.902V197.584L117.34 197.619C117.891 197.619 118.319 197.508 118.623 197.285C118.934 197.063 119.189 196.655 119.388 196.064L119.748 195.097L116.356 185.692H118.131L120.504 192.82ZM132.985 187.011H129.794V195.202H128.168V187.011H125.039V185.692H132.985V187.011ZM140.297 195.202C140.203 195.015 140.127 194.681 140.068 194.2C139.313 194.985 138.41 195.378 137.361 195.378C136.424 195.378 135.653 195.114 135.05 194.587C134.452 194.054 134.153 193.38 134.153 192.565C134.153 191.575 134.528 190.808 135.278 190.263C136.034 189.712 137.095 189.437 138.46 189.437H140.042V188.689C140.042 188.121 139.872 187.67 139.532 187.336C139.193 186.996 138.692 186.826 138.029 186.826C137.449 186.826 136.963 186.973 136.57 187.266C136.178 187.559 135.982 187.913 135.982 188.329H134.347C134.347 187.855 134.514 187.397 134.848 186.958C135.188 186.513 135.645 186.161 136.219 185.903C136.799 185.646 137.435 185.517 138.126 185.517C139.222 185.517 140.08 185.792 140.701 186.343C141.322 186.888 141.645 187.641 141.668 188.602V192.979C141.668 193.852 141.779 194.546 142.002 195.062V195.202H140.297ZM137.599 193.963C138.109 193.963 138.592 193.831 139.049 193.567C139.506 193.304 139.837 192.961 140.042 192.539V190.588H138.768C136.776 190.588 135.779 191.171 135.779 192.337C135.779 192.847 135.949 193.245 136.289 193.532C136.629 193.819 137.066 193.963 137.599 193.963Z" fill="black"/>
<path d="M159.991 346.797C159.991 347.772 159.822 348.629 159.485 349.367C159.148 350.101 158.665 350.666 158.036 351.062C157.411 351.454 156.691 351.65 155.875 351.65C155.069 351.65 154.349 351.454 153.715 351.062C153.086 350.666 152.599 350.103 152.252 349.374C151.911 348.645 151.737 347.804 151.733 346.852V346.291C151.733 345.32 151.904 344.464 152.246 343.721C152.592 342.978 153.077 342.41 153.702 342.019C154.331 341.622 155.051 341.424 155.862 341.424C156.673 341.424 157.391 341.62 158.015 342.012C158.644 342.399 159.129 342.96 159.471 343.693C159.813 344.423 159.986 345.272 159.991 346.243V346.797ZM158.261 346.277C158.261 345.174 158.052 344.329 157.632 343.741C157.218 343.153 156.627 342.859 155.862 342.859C155.114 342.859 154.529 343.153 154.105 343.741C153.686 344.325 153.472 345.152 153.462 346.223V346.797C153.462 347.891 153.674 348.736 154.098 349.333C154.527 349.93 155.119 350.229 155.875 350.229C156.641 350.229 157.229 349.937 157.639 349.354C158.054 348.77 158.261 347.918 158.261 346.797V346.277ZM167.374 345.437H164.974V351.514H163.313V345.437H160.941V344.117H167.374V345.437ZM171.113 348.588H170.272V351.514H168.611V344.117H170.272V347.07H171.003L173.047 344.117H175.098L172.425 347.658L175.324 351.514H173.164L171.113 348.588ZM182.713 347.891C182.713 349.035 182.454 349.948 181.934 350.632C181.415 351.311 180.717 351.65 179.842 351.65C179.031 351.65 178.382 351.384 177.894 350.851V354.357H176.233V344.117H177.764L177.833 344.869C178.32 344.277 178.983 343.98 179.822 343.98C180.724 343.98 181.43 344.318 181.941 344.992C182.456 345.662 182.713 346.594 182.713 347.788V347.891ZM181.059 347.747C181.059 347.009 180.911 346.423 180.615 345.99C180.323 345.557 179.904 345.341 179.357 345.341C178.678 345.341 178.19 345.621 177.894 346.182V349.463C178.195 350.037 178.687 350.324 179.371 350.324C179.899 350.324 180.312 350.112 180.608 349.688C180.909 349.26 181.059 348.613 181.059 347.747ZM185.913 346.469H187.54C188.146 346.469 188.674 346.574 189.125 346.783C189.577 346.993 189.918 347.287 190.151 347.665C190.388 348.043 190.506 348.483 190.506 348.984C190.506 349.745 190.237 350.356 189.7 350.816C189.162 351.277 188.446 351.509 187.553 351.514H184.251V344.117H185.913V346.469ZM193.398 351.514H191.737V344.117H193.398V351.514ZM185.913 347.802V350.188H187.533C187.938 350.188 188.257 350.087 188.49 349.887C188.727 349.682 188.845 349.392 188.845 349.019C188.845 348.645 188.729 348.351 188.497 348.137C188.269 347.918 187.959 347.806 187.567 347.802H185.913ZM195.517 351.514V344.117H198.518C199.53 344.117 200.3 344.295 200.829 344.65C201.357 345.001 201.622 345.507 201.622 346.168C201.622 346.51 201.514 346.817 201.3 347.091C201.091 347.36 200.778 347.567 200.364 347.713C200.847 347.813 201.23 348.016 201.512 348.321C201.795 348.627 201.936 348.987 201.936 349.401C201.936 350.09 201.681 350.614 201.17 350.974C200.665 351.334 199.935 351.514 198.983 351.514H195.517ZM197.178 348.362V350.201H198.997C199.849 350.201 200.275 349.896 200.275 349.285C200.275 348.67 199.842 348.362 198.976 348.362H197.178ZM197.178 347.173H198.545C199.489 347.173 199.96 346.895 199.96 346.339C199.96 345.756 199.514 345.455 198.621 345.437H197.178V347.173ZM207.794 351.514C207.722 351.372 207.658 351.142 207.603 350.823C207.074 351.375 206.427 351.65 205.662 351.65C204.919 351.65 204.313 351.438 203.843 351.015C203.374 350.591 203.139 350.067 203.139 349.442C203.139 348.654 203.431 348.05 204.014 347.631C204.602 347.207 205.441 346.995 206.53 346.995H207.548V346.51C207.548 346.127 207.441 345.822 207.227 345.594C207.013 345.361 206.687 345.245 206.25 345.245C205.871 345.245 205.561 345.341 205.32 345.532C205.078 345.719 204.958 345.958 204.958 346.25H203.296C203.296 345.844 203.431 345.466 203.7 345.115C203.969 344.76 204.333 344.482 204.793 344.281C205.258 344.081 205.776 343.98 206.345 343.98C207.211 343.98 207.902 344.199 208.416 344.637C208.931 345.07 209.196 345.68 209.209 346.469V349.805C209.209 350.47 209.303 351.001 209.49 351.397V351.514H207.794ZM205.969 350.317C206.297 350.317 206.605 350.238 206.892 350.078C207.184 349.919 207.402 349.704 207.548 349.436V348.041H206.653C206.038 348.041 205.575 348.148 205.265 348.362C204.955 348.576 204.8 348.88 204.8 349.271C204.8 349.59 204.905 349.846 205.115 350.037C205.329 350.224 205.614 350.317 205.969 350.317ZM212.75 347.091H214.145C214.268 346.147 214.633 345.393 215.239 344.828C215.845 344.263 216.611 343.98 217.536 343.98C218.534 343.98 219.343 344.302 219.962 344.944C220.587 345.587 220.924 346.439 220.974 347.501L220.981 347.891C220.981 348.62 220.84 349.271 220.557 349.846C220.279 350.42 219.878 350.864 219.354 351.179C218.834 351.493 218.233 351.65 217.549 351.65C216.592 351.65 215.806 351.354 215.191 350.762C214.58 350.169 214.227 349.39 214.131 348.424H212.75V351.514H211.089V344.117H212.75V347.091ZM215.765 347.891C215.765 348.652 215.922 349.249 216.237 349.682C216.551 350.11 216.989 350.324 217.549 350.324C218.11 350.324 218.545 350.105 218.855 349.668C219.165 349.23 219.32 348.59 219.32 347.747C219.32 346.986 219.158 346.391 218.834 345.963C218.515 345.53 218.083 345.313 217.536 345.313C216.993 345.313 216.563 345.53 216.244 345.963C215.925 346.391 215.765 347.034 215.765 347.891ZM224.023 344.117V350.188H226.333V344.117H227.995V350.188H230.312V344.117H231.966V350.188H233.231L233.094 353.708H231.583V351.514H222.362V344.117H224.023ZM239.083 344.117H240.737V351.514H239.083V346.578L236.184 351.514H234.53V344.117H236.184V349.053L239.083 344.117ZM247.122 344.117H248.776V351.514H247.122V346.578L244.223 351.514H242.569V344.117H244.223V349.053L247.122 344.117ZM247.901 341.28C247.901 341.854 247.7 342.319 247.299 342.675C246.898 343.03 246.363 343.208 245.693 343.208C245.023 343.208 244.487 343.03 244.086 342.675C243.685 342.319 243.485 341.854 243.485 341.28H244.729C244.729 341.581 244.813 341.816 244.982 341.984C245.155 342.148 245.392 342.23 245.693 342.23C245.994 342.23 246.228 342.148 246.397 341.984C246.566 341.816 246.65 341.581 246.65 341.28H247.901ZM259.85 345.437H257.451V351.514H255.79V345.437H253.417V344.117H259.85V345.437ZM263.781 351.65C262.728 351.65 261.874 351.32 261.217 350.659C260.566 349.994 260.24 349.11 260.24 348.007V347.802C260.24 347.063 260.381 346.405 260.664 345.826C260.951 345.243 261.352 344.789 261.867 344.466C262.382 344.142 262.956 343.98 263.589 343.98C264.597 343.98 265.374 344.302 265.92 344.944C266.472 345.587 266.748 346.496 266.748 347.672V348.342H261.915C261.965 348.952 262.167 349.436 262.523 349.791C262.883 350.146 263.334 350.324 263.876 350.324C264.638 350.324 265.257 350.017 265.736 349.401L266.631 350.256C266.335 350.698 265.939 351.042 265.442 351.288C264.95 351.53 264.396 351.65 263.781 351.65ZM263.583 345.313C263.127 345.313 262.758 345.473 262.475 345.792C262.197 346.111 262.019 346.555 261.942 347.125H265.107V347.002C265.07 346.446 264.922 346.027 264.663 345.744C264.403 345.457 264.043 345.313 263.583 345.313ZM272.968 345.457H269.755V351.514H268.101V344.117H272.968V345.457Z" fill="black"/>
<path d="M575.546 348.273C575.445 349.335 575.054 350.165 574.37 350.762C573.686 351.354 572.777 351.65 571.642 351.65C570.849 351.65 570.15 351.464 569.544 351.09C568.942 350.712 568.477 350.176 568.149 349.483C567.821 348.791 567.65 347.986 567.637 347.07V346.141C567.637 345.202 567.803 344.375 568.136 343.659C568.468 342.944 568.944 342.392 569.564 342.005C570.189 341.618 570.909 341.424 571.724 341.424C572.823 341.424 573.707 341.722 574.377 342.319C575.047 342.916 575.436 343.759 575.546 344.849H573.823C573.741 344.133 573.531 343.618 573.194 343.304C572.861 342.985 572.372 342.825 571.724 342.825C570.972 342.825 570.394 343.101 569.988 343.652C569.587 344.199 569.382 345.004 569.373 346.065V346.947C569.373 348.023 569.564 348.843 569.947 349.408C570.334 349.973 570.9 350.256 571.642 350.256C572.321 350.256 572.832 350.103 573.174 349.798C573.515 349.493 573.732 348.984 573.823 348.273H575.546ZM576.626 347.747C576.626 347.022 576.769 346.371 577.056 345.792C577.344 345.209 577.747 344.762 578.266 344.452C578.786 344.138 579.383 343.98 580.057 343.98C581.055 343.98 581.864 344.302 582.484 344.944C583.109 345.587 583.446 346.439 583.496 347.501L583.503 347.891C583.503 348.62 583.361 349.271 583.079 349.846C582.801 350.42 582.4 350.864 581.876 351.179C581.356 351.493 580.755 351.65 580.071 351.65C579.027 351.65 578.191 351.304 577.562 350.611C576.938 349.914 576.626 348.987 576.626 347.829V347.747ZM578.287 347.891C578.287 348.652 578.444 349.249 578.759 349.682C579.073 350.11 579.511 350.324 580.071 350.324C580.632 350.324 581.067 350.105 581.377 349.668C581.691 349.23 581.848 348.59 581.848 347.747C581.848 347 581.687 346.407 581.363 345.97C581.044 345.532 580.609 345.313 580.057 345.313C579.515 345.313 579.084 345.53 578.765 345.963C578.446 346.391 578.287 347.034 578.287 347.891ZM584.446 350.188C584.906 349.673 585.214 349.185 585.369 348.725C585.528 348.26 585.624 347.667 585.656 346.947L585.752 344.117H590.886V350.188H591.911V353.715H590.257V351.514H585.513V353.715H583.831L583.838 350.188H584.446ZM586.394 350.188H589.231V345.546H587.365L587.317 346.961C587.253 348.319 586.946 349.395 586.394 350.188ZM596.354 351.65C595.302 351.65 594.447 351.32 593.791 350.659C593.139 349.994 592.813 349.11 592.813 348.007V347.802C592.813 347.063 592.955 346.405 593.237 345.826C593.524 345.243 593.925 344.789 594.44 344.466C594.955 344.142 595.529 343.98 596.163 343.98C597.17 343.98 597.947 344.302 598.494 344.944C599.045 345.587 599.321 346.496 599.321 347.672V348.342H594.488C594.538 348.952 594.741 349.436 595.097 349.791C595.457 350.146 595.908 350.324 596.45 350.324C597.211 350.324 597.831 350.017 598.309 349.401L599.205 350.256C598.909 350.698 598.512 351.042 598.015 351.288C597.523 351.53 596.97 351.65 596.354 351.65ZM596.156 345.313C595.7 345.313 595.331 345.473 595.049 345.792C594.771 346.111 594.593 346.555 594.515 347.125H597.68V347.002C597.644 346.446 597.496 346.027 597.236 345.744C596.976 345.457 596.616 345.313 596.156 345.313ZM607.094 347.891C607.094 349.035 606.834 349.948 606.314 350.632C605.795 351.311 605.097 351.65 604.222 351.65C603.411 351.65 602.762 351.384 602.274 350.851V354.357H600.613V344.117H602.144L602.213 344.869C602.7 344.277 603.363 343.98 604.202 343.98C605.104 343.98 605.811 344.318 606.321 344.992C606.836 345.662 607.094 346.594 607.094 347.788V347.891ZM605.439 347.747C605.439 347.009 605.291 346.423 604.995 345.99C604.703 345.557 604.284 345.341 603.737 345.341C603.058 345.341 602.57 345.621 602.274 346.182V349.463C602.575 350.037 603.067 350.324 603.751 350.324C604.279 350.324 604.692 350.112 604.988 349.688C605.289 349.26 605.439 348.613 605.439 347.747ZM614.907 348.54H614.025V351.514H612.364V348.54H611.489L609.787 351.514H607.75L610.204 347.665L607.88 344.117H609.91L611.585 347.022H612.364V344.117H614.025V347.022H614.811L616.493 344.117H618.523L616.206 347.645L618.674 351.514H616.609L614.907 348.54ZM624.32 344.117H625.974V351.514H624.32V346.578L621.422 351.514H619.767V344.117H621.422V349.053L624.32 344.117ZM632.134 349.47L634.321 344.117H636.399V351.514H634.738V346.619L632.701 351.514H631.573L629.529 346.592V351.514H627.868V344.117H629.96L632.134 349.47ZM637.958 347.747C637.958 347.022 638.101 346.371 638.388 345.792C638.676 345.209 639.079 344.762 639.598 344.452C640.118 344.138 640.715 343.98 641.389 343.98C642.388 343.98 643.196 344.302 643.816 344.944C644.441 345.587 644.778 346.439 644.828 347.501L644.835 347.891C644.835 348.62 644.694 349.271 644.411 349.846C644.133 350.42 643.732 350.864 643.208 351.179C642.688 351.493 642.087 351.65 641.403 351.65C640.36 351.65 639.523 351.304 638.894 350.611C638.27 349.914 637.958 348.987 637.958 347.829V347.747ZM639.619 347.891C639.619 348.652 639.776 349.249 640.091 349.682C640.405 350.11 640.843 350.324 641.403 350.324C641.964 350.324 642.399 350.105 642.709 349.668C643.023 349.23 643.18 348.59 643.18 347.747C643.18 347 643.019 346.407 642.695 345.97C642.376 345.532 641.941 345.313 641.389 345.313C640.847 345.313 640.416 345.53 640.097 345.963C639.778 346.391 639.619 347.034 639.619 347.891ZM649.497 351.65C648.444 351.65 647.59 351.32 646.933 350.659C646.282 349.994 645.956 349.11 645.956 348.007V347.802C645.956 347.063 646.097 346.405 646.38 345.826C646.667 345.243 647.068 344.789 647.583 344.466C648.098 344.142 648.672 343.98 649.305 343.98C650.313 343.98 651.09 344.302 651.637 344.944C652.188 345.587 652.464 346.496 652.464 347.672V348.342H647.631C647.681 348.952 647.884 349.436 648.239 349.791C648.599 350.146 649.05 350.324 649.593 350.324C650.354 350.324 650.973 350.017 651.452 349.401L652.347 350.256C652.051 350.698 651.655 351.042 651.158 351.288C650.666 351.53 650.112 351.65 649.497 351.65ZM649.299 345.313C648.843 345.313 648.474 345.473 648.191 345.792C647.913 346.111 647.736 346.555 647.658 347.125H650.823V347.002C650.787 346.446 650.638 346.027 650.379 345.744C650.119 345.457 649.759 345.313 649.299 345.313ZM663.066 345.437H660.667V351.514H659.006V345.437H656.634V344.117H663.066V345.437ZM666.997 351.65C665.944 351.65 665.09 351.32 664.433 350.659C663.782 349.994 663.456 349.11 663.456 348.007V347.802C663.456 347.063 663.597 346.405 663.88 345.826C664.167 345.243 664.568 344.789 665.083 344.466C665.598 344.142 666.172 343.98 666.805 343.98C667.813 343.98 668.59 344.302 669.137 344.944C669.688 345.587 669.964 346.496 669.964 347.672V348.342H665.131C665.181 348.952 665.384 349.436 665.739 349.791C666.099 350.146 666.55 350.324 667.093 350.324C667.854 350.324 668.473 350.017 668.952 349.401L669.847 350.256C669.551 350.698 669.155 351.042 668.658 351.288C668.166 351.53 667.612 351.65 666.997 351.65ZM666.799 345.313C666.343 345.313 665.974 345.473 665.691 345.792C665.413 346.111 665.236 346.555 665.158 347.125H668.323V347.002C668.287 346.446 668.138 346.027 667.879 345.744C667.619 345.457 667.259 345.313 666.799 345.313ZM676.184 345.457H672.972V351.514H671.317V344.117H676.184V345.457ZM681.544 351.514C681.471 351.372 681.407 351.142 681.352 350.823C680.824 351.375 680.177 351.65 679.411 351.65C678.668 351.65 678.062 351.438 677.593 351.015C677.123 350.591 676.888 350.067 676.888 349.442C676.888 348.654 677.18 348.05 677.763 347.631C678.351 347.207 679.19 346.995 680.279 346.995H681.298V346.51C681.298 346.127 681.191 345.822 680.976 345.594C680.762 345.361 680.436 345.245 679.999 345.245C679.621 345.245 679.311 345.341 679.069 345.532C678.828 345.719 678.707 345.958 678.707 346.25H677.046C677.046 345.844 677.18 345.466 677.449 345.115C677.718 344.76 678.082 344.482 678.543 344.281C679.008 344.081 679.525 343.98 680.095 343.98C680.96 343.98 681.651 344.199 682.166 344.637C682.681 345.07 682.945 345.68 682.959 346.469V349.805C682.959 350.47 683.052 351.001 683.239 351.397V351.514H681.544ZM679.719 350.317C680.047 350.317 680.354 350.238 680.641 350.078C680.933 349.919 681.152 349.704 681.298 349.436V348.041H680.402C679.787 348.041 679.324 348.148 679.014 348.362C678.705 348.576 678.55 348.88 678.55 349.271C678.55 349.59 678.654 349.846 678.864 350.037C679.078 350.224 679.363 350.317 679.719 350.317Z" fill="black"/>
<path d="M815.864 344.274C815.864 343.828 815.695 343.472 815.358 343.208C815.021 342.944 814.563 342.812 813.984 342.812C813.487 342.812 813.073 342.944 812.74 343.208C812.407 343.468 812.241 343.805 812.241 344.22H810.518C810.518 343.677 810.669 343.194 810.969 342.771C811.27 342.347 811.687 342.019 812.22 341.786C812.753 341.549 813.341 341.431 813.984 341.431C815.123 341.431 816.007 341.679 816.636 342.176C817.27 342.673 817.587 343.368 817.587 344.261C817.587 344.712 817.45 345.127 817.176 345.505C816.903 345.883 816.52 346.182 816.028 346.4C816.584 346.592 817.008 346.883 817.299 347.275C817.596 347.663 817.744 348.146 817.744 348.725C817.744 349.618 817.402 350.329 816.718 350.857C816.035 351.382 815.123 351.644 813.984 351.644C813.282 351.644 812.646 351.518 812.077 351.268C811.512 351.017 811.086 350.675 810.798 350.242C810.516 349.809 810.375 349.312 810.375 348.752H812.097C812.097 349.18 812.275 349.543 812.63 349.839C812.986 350.131 813.437 350.276 813.984 350.276C814.595 350.276 815.085 350.133 815.454 349.846C815.827 349.559 816.014 349.185 816.014 348.725C816.014 348.164 815.85 347.758 815.522 347.508C815.198 347.253 814.722 347.125 814.093 347.125H812.924V345.758H814.032C815.253 345.758 815.864 345.263 815.864 344.274ZM823.609 351.514C823.536 351.372 823.472 351.142 823.418 350.823C822.889 351.375 822.242 351.65 821.476 351.65C820.733 351.65 820.127 351.438 819.658 351.015C819.188 350.591 818.954 350.067 818.954 349.442C818.954 348.654 819.245 348.05 819.829 347.631C820.417 347.207 821.255 346.995 822.344 346.995H823.363V346.51C823.363 346.127 823.256 345.822 823.042 345.594C822.827 345.361 822.502 345.245 822.064 345.245C821.686 345.245 821.376 345.341 821.134 345.532C820.893 345.719 820.772 345.958 820.772 346.25H819.111C819.111 345.844 819.245 345.466 819.514 345.115C819.783 344.76 820.148 344.482 820.608 344.281C821.073 344.081 821.59 343.98 822.16 343.98C823.026 343.98 823.716 344.199 824.231 344.637C824.746 345.07 825.01 345.68 825.024 346.469V349.805C825.024 350.47 825.117 351.001 825.304 351.397V351.514H823.609ZM821.784 350.317C822.112 350.317 822.42 350.238 822.707 350.078C822.998 349.919 823.217 349.704 823.363 349.436V348.041H822.467C821.852 348.041 821.39 348.148 821.08 348.362C820.77 348.576 820.615 348.88 820.615 349.271C820.615 349.59 820.72 349.846 820.929 350.037C821.143 350.224 821.428 350.317 821.784 350.317ZM829.392 348.588H828.551V351.514H826.89V344.117H828.551V347.07H829.283L831.327 344.117H833.378L830.705 347.658L833.603 351.514H831.443L829.392 348.588ZM840.993 347.891C840.993 349.035 840.733 349.948 840.213 350.632C839.694 351.311 838.997 351.65 838.122 351.65C837.31 351.65 836.661 351.384 836.173 350.851V354.357H834.512V344.117H836.044L836.112 344.869C836.6 344.277 837.263 343.98 838.101 343.98C839.003 343.98 839.71 344.318 840.22 344.992C840.735 345.662 840.993 346.594 840.993 347.788V347.891ZM839.338 347.747C839.338 347.009 839.19 346.423 838.894 345.99C838.602 345.557 838.183 345.341 837.636 345.341C836.957 345.341 836.47 345.621 836.173 346.182V349.463C836.474 350.037 836.966 350.324 837.65 350.324C838.179 350.324 838.591 350.112 838.887 349.688C839.188 349.26 839.338 348.613 839.338 347.747ZM844.192 346.469H845.819C846.425 346.469 846.954 346.574 847.405 346.783C847.856 346.993 848.198 347.287 848.43 347.665C848.667 348.043 848.786 348.483 848.786 348.984C848.786 349.745 848.517 350.356 847.979 350.816C847.441 351.277 846.726 351.509 845.833 351.514H842.531V344.117H844.192V346.469ZM851.677 351.514H850.016V344.117H851.677V351.514ZM844.192 347.802V350.188H845.812C846.218 350.188 846.537 350.087 846.769 349.887C847.006 349.682 847.125 349.392 847.125 349.019C847.125 348.645 847.008 348.351 846.776 348.137C846.548 347.918 846.238 347.806 845.846 347.802H844.192ZM853.796 351.514V344.117H856.797C857.809 344.117 858.579 344.295 859.108 344.65C859.637 345.001 859.901 345.507 859.901 346.168C859.901 346.51 859.794 346.817 859.58 347.091C859.37 347.36 859.058 347.567 858.643 347.713C859.126 347.813 859.509 348.016 859.792 348.321C860.074 348.627 860.215 348.987 860.215 349.401C860.215 350.09 859.96 350.614 859.45 350.974C858.944 351.334 858.215 351.514 857.262 351.514H853.796ZM855.458 348.362V350.201H857.276C858.128 350.201 858.554 349.896 858.554 349.285C858.554 348.67 858.121 348.362 857.255 348.362H855.458ZM855.458 347.173H856.825C857.768 347.173 858.24 346.895 858.24 346.339C858.24 345.756 857.793 345.455 856.9 345.437H855.458V347.173ZM866.074 351.514C866.001 351.372 865.937 351.142 865.882 350.823C865.354 351.375 864.707 351.65 863.941 351.65C863.198 351.65 862.592 351.438 862.123 351.015C861.653 350.591 861.419 350.067 861.419 349.442C861.419 348.654 861.71 348.05 862.294 347.631C862.881 347.207 863.72 346.995 864.809 346.995H865.828V346.51C865.828 346.127 865.721 345.822 865.506 345.594C865.292 345.361 864.966 345.245 864.529 345.245C864.151 345.245 863.841 345.341 863.599 345.532C863.358 345.719 863.237 345.958 863.237 346.25H861.576C861.576 345.844 861.71 345.466 861.979 345.115C862.248 344.76 862.613 344.482 863.073 344.281C863.538 344.081 864.055 343.98 864.625 343.98C865.49 343.98 866.181 344.199 866.696 344.637C867.211 345.07 867.475 345.68 867.489 346.469V349.805C867.489 350.47 867.582 351.001 867.769 351.397V351.514H866.074ZM864.249 350.317C864.577 350.317 864.884 350.238 865.171 350.078C865.463 349.919 865.682 349.704 865.828 349.436V348.041H864.932C864.317 348.041 863.854 348.148 863.545 348.362C863.235 348.576 863.08 348.88 863.08 349.271C863.08 349.59 863.184 349.846 863.394 350.037C863.608 350.224 863.893 350.317 864.249 350.317ZM871.03 347.091H872.424C872.547 346.147 872.912 345.393 873.518 344.828C874.124 344.263 874.89 343.98 875.815 343.98C876.813 343.98 877.622 344.302 878.242 344.944C878.866 345.587 879.203 346.439 879.253 347.501L879.26 347.891C879.26 348.62 879.119 349.271 878.837 349.846C878.559 350.42 878.157 350.864 877.633 351.179C877.114 351.493 876.512 351.65 875.829 351.65C874.872 351.65 874.086 351.354 873.47 350.762C872.86 350.169 872.506 349.39 872.411 348.424H871.03V351.514H869.369V344.117H871.03V347.091ZM874.045 347.891C874.045 348.652 874.202 349.249 874.516 349.682C874.831 350.11 875.268 350.324 875.829 350.324C876.389 350.324 876.824 350.105 877.134 349.668C877.444 349.23 877.599 348.59 877.599 347.747C877.599 346.986 877.437 346.391 877.114 345.963C876.795 345.53 876.362 345.313 875.815 345.313C875.273 345.313 874.842 345.53 874.523 345.963C874.204 346.391 874.045 347.034 874.045 347.891ZM882.302 344.117V350.188H884.613V344.117H886.274V350.188H888.591V344.117H890.246V350.188H891.51L891.374 353.708H889.863V351.514H880.641V344.117H882.302ZM897.362 344.117H899.016V351.514H897.362V346.578L894.463 351.514H892.809V344.117H894.463V349.053L897.362 344.117ZM905.401 344.117H907.055V351.514H905.401V346.578L902.503 351.514H900.848V344.117H902.503V349.053L905.401 344.117ZM906.18 341.28C906.18 341.854 905.98 342.319 905.579 342.675C905.178 343.03 904.642 343.208 903.972 343.208C903.302 343.208 902.767 343.03 902.366 342.675C901.965 342.319 901.764 341.854 901.764 341.28H903.008C903.008 341.581 903.093 341.816 903.261 341.984C903.434 342.148 903.671 342.23 903.972 342.23C904.273 342.23 904.508 342.148 904.676 341.984C904.845 341.816 904.929 341.581 904.929 341.28H906.18ZM857.399 361.437H855V367.514H853.338V361.437H850.966V360.117H857.399V361.437ZM861.33 367.65C860.277 367.65 859.422 367.32 858.766 366.659C858.114 365.994 857.789 365.11 857.789 364.007V363.802C857.789 363.063 857.93 362.405 858.212 361.826C858.5 361.243 858.901 360.789 859.416 360.466C859.931 360.142 860.505 359.98 861.138 359.98C862.145 359.98 862.922 360.302 863.469 360.944C864.021 361.587 864.296 362.496 864.296 363.672V364.342H859.463C859.514 364.952 859.716 365.436 860.072 365.791C860.432 366.146 860.883 366.324 861.425 366.324C862.186 366.324 862.806 366.017 863.285 365.401L864.18 366.256C863.884 366.698 863.488 367.042 862.991 367.288C862.499 367.53 861.945 367.65 861.33 367.65ZM861.131 361.313C860.676 361.313 860.307 361.473 860.024 361.792C859.746 362.111 859.568 362.555 859.491 363.125H862.656V363.002C862.619 362.446 862.471 362.027 862.212 361.744C861.952 361.457 861.592 361.313 861.131 361.313ZM870.517 361.457H867.304V367.514H865.65V360.117H870.517V361.457Z" fill="black"/>
<path d="M232.302 23.8906C231.958 27.5312 230.614 30.375 228.271 32.4219C225.927 34.4531 222.81 35.4688 218.919 35.4688C216.2 35.4688 213.802 34.8281 211.724 33.5469C209.661 32.25 208.067 30.4141 206.942 28.0391C205.817 25.6641 205.231 22.9062 205.185 19.7656V16.5781C205.185 13.3594 205.755 10.5234 206.896 8.07031C208.036 5.61719 209.669 3.72656 211.794 2.39844C213.935 1.07031 216.403 0.40625 219.2 0.40625C222.966 0.40625 225.997 1.42969 228.294 3.47656C230.591 5.52344 231.927 8.41406 232.302 12.1484H226.396C226.114 9.69531 225.396 7.92969 224.239 6.85156C223.099 5.75781 221.419 5.21094 219.2 5.21094C216.622 5.21094 214.638 6.15625 213.247 8.04688C211.872 9.92188 211.169 12.6797 211.138 16.3203V19.3438C211.138 23.0312 211.794 25.8438 213.106 27.7812C214.435 29.7188 216.372 30.6875 218.919 30.6875C221.247 30.6875 222.997 30.1641 224.169 29.1172C225.341 28.0703 226.083 26.3281 226.396 23.8906H232.302ZM257.028 14.1641H248.802V35H243.106V14.1641H234.974V9.64062H257.028V14.1641ZM283.044 22.5781C283.044 26.5 282.153 29.6328 280.372 31.9766C278.591 34.3047 276.2 35.4688 273.2 35.4688C270.419 35.4688 268.192 34.5547 266.521 32.7266V44.75H260.825V9.64062H266.075L266.31 12.2188C267.981 10.1875 270.255 9.17188 273.13 9.17188C276.224 9.17188 278.646 10.3281 280.396 12.6406C282.161 14.9375 283.044 18.1328 283.044 22.2266V22.5781ZM277.372 22.0859C277.372 19.5547 276.864 17.5469 275.849 16.0625C274.849 14.5781 273.411 13.8359 271.536 13.8359C269.208 13.8359 267.536 14.7969 266.521 16.7188V27.9688C267.552 29.9375 269.239 30.9219 271.583 30.9219C273.396 30.9219 274.81 30.1953 275.825 28.7422C276.856 27.2734 277.372 25.0547 277.372 22.0859ZM296.474 26.8438L301.63 9.64062H307.7L297.622 38.8438C296.075 43.1094 293.45 45.2422 289.747 45.2422C288.919 45.2422 288.005 45.1016 287.005 44.8203V40.4141L288.083 40.4844C289.521 40.4844 290.599 40.2188 291.317 39.6875C292.052 39.1719 292.63 38.2969 293.052 37.0625L293.872 34.8828L284.966 9.64062H291.106L296.474 26.8438ZM320.005 24.9688H317.122V35H311.427V9.64062H317.122V19.7656H319.63L326.638 9.64062H333.669L324.505 21.7812L334.442 35H327.036L320.005 24.9688ZM357.528 14.1641H349.302V35H343.606V14.1641H335.474V9.64062H357.528V14.1641ZM370.489 26.8438L375.646 9.64062H381.716L371.638 38.8438C370.091 43.1094 367.466 45.2422 363.763 45.2422C362.935 45.2422 362.021 45.1016 361.021 44.8203V40.4141L362.099 40.4844C363.536 40.4844 364.614 40.2188 365.333 39.6875C366.067 39.1719 366.646 38.2969 367.067 37.0625L367.888 34.8828L358.981 9.64062H365.122L370.489 26.8438ZM407.216 22.5781C407.216 26.5 406.325 29.6328 404.544 31.9766C402.763 34.3047 400.372 35.4688 397.372 35.4688C394.591 35.4688 392.364 34.5547 390.692 32.7266V44.75H384.997V9.64062H390.247L390.481 12.2188C392.153 10.1875 394.427 9.17188 397.302 9.17188C400.396 9.17188 402.817 10.3281 404.567 12.6406C406.333 14.9375 407.216 18.1328 407.216 22.2266V22.5781ZM401.544 22.0859C401.544 19.5547 401.036 17.5469 400.021 16.0625C399.021 14.5781 397.583 13.8359 395.708 13.8359C393.38 13.8359 391.708 14.7969 390.692 16.7188V27.9688C391.724 29.9375 393.411 30.9219 395.755 30.9219C397.567 30.9219 398.981 30.1953 399.997 28.7422C401.028 27.2734 401.544 25.0547 401.544 22.0859ZM427.208 35C426.958 34.5156 426.739 33.7266 426.552 32.6328C424.739 34.5234 422.521 35.4688 419.896 35.4688C417.349 35.4688 415.271 34.7422 413.661 33.2891C412.052 31.8359 411.247 30.0391 411.247 27.8984C411.247 25.1953 412.247 23.125 414.247 21.6875C416.263 20.2344 419.138 19.5078 422.872 19.5078H426.364V17.8438C426.364 16.5312 425.997 15.4844 425.263 14.7031C424.528 13.9062 423.411 13.5078 421.911 13.5078C420.614 13.5078 419.552 13.8359 418.724 14.4922C417.896 15.1328 417.481 15.9531 417.481 16.9531H411.786C411.786 15.5625 412.247 14.2656 413.169 13.0625C414.091 11.8438 415.341 10.8906 416.919 10.2031C418.513 9.51562 420.286 9.17188 422.239 9.17188C425.208 9.17188 427.575 9.92188 429.341 11.4219C431.106 12.9062 432.013 15 432.06 17.7031V29.1406C432.06 31.4219 432.38 33.2422 433.021 34.6016V35H427.208ZM420.95 30.8984C422.075 30.8984 423.13 30.625 424.114 30.0781C425.114 29.5312 425.864 28.7969 426.364 27.875V23.0938H423.294C421.185 23.0938 419.599 23.4609 418.536 24.1953C417.474 24.9297 416.942 25.9688 416.942 27.3125C416.942 28.4062 417.302 29.2812 418.021 29.9375C418.755 30.5781 419.731 30.8984 420.95 30.8984ZM477.622 35H471.716V19.8359H456.458V35H450.528V0.875H456.458V15.0781H471.716V0.875H477.622V35ZM508.606 5.65625H497.966V35H492.083V5.65625H481.536V0.875H508.606V5.65625ZM520.794 0.875L530.638 27.0312L540.458 0.875H548.122V35H542.216V23.75L542.802 8.70312L532.724 35H528.481L518.427 8.72656L519.013 23.75V35H513.106V0.875H520.794ZM561.083 30.2656H576.575V35H555.153V0.875H561.083V30.2656ZM591.622 22.7891H579.317V18.1953H591.622V22.7891ZM616.278 14.1641H608.052V35H602.356V14.1641H594.224V9.64062H616.278V14.1641ZM629.755 35.4688C626.146 35.4688 623.216 34.3359 620.966 32.0703C618.731 29.7891 617.614 26.7578 617.614 22.9766V22.2734C617.614 19.7422 618.099 17.4844 619.067 15.5C620.052 13.5 621.427 11.9453 623.192 10.8359C624.958 9.72656 626.927 9.17188 629.099 9.17188C632.552 9.17188 635.216 10.2734 637.091 12.4766C638.981 14.6797 639.927 17.7969 639.927 21.8281V24.125H623.356C623.528 26.2188 624.224 27.875 625.442 29.0938C626.677 30.3125 628.224 30.9219 630.083 30.9219C632.692 30.9219 634.817 29.8672 636.458 27.7578L639.528 30.6875C638.513 32.2031 637.153 33.3828 635.45 34.2266C633.763 35.0547 631.864 35.4688 629.755 35.4688ZM629.075 13.7422C627.513 13.7422 626.247 14.2891 625.278 15.3828C624.325 16.4766 623.716 18 623.45 19.9531H634.302V19.5312C634.177 17.625 633.669 16.1875 632.778 15.2188C631.888 14.2344 630.653 13.7422 629.075 13.7422ZM661.255 14.2344H650.239V35H644.567V9.64062H661.255V14.2344ZM679.63 35C679.38 34.5156 679.161 33.7266 678.974 32.6328C677.161 34.5234 674.942 35.4688 672.317 35.4688C669.771 35.4688 667.692 34.7422 666.083 33.2891C664.474 31.8359 663.669 30.0391 663.669 27.8984C663.669 25.1953 664.669 23.125 666.669 21.6875C668.685 20.2344 671.56 19.5078 675.294 19.5078H678.786V17.8438C678.786 16.5312 678.419 15.4844 677.685 14.7031C676.95 13.9062 675.833 13.5078 674.333 13.5078C673.036 13.5078 671.974 13.8359 671.146 14.4922C670.317 15.1328 669.903 15.9531 669.903 16.9531H664.208C664.208 15.5625 664.669 14.2656 665.591 13.0625C666.513 11.8438 667.763 10.8906 669.341 10.2031C670.935 9.51562 672.708 9.17188 674.661 9.17188C677.63 9.17188 679.997 9.92188 681.763 11.4219C683.528 12.9062 684.435 15 684.481 17.7031V29.1406C684.481 31.4219 684.802 33.2422 685.442 34.6016V35H679.63ZM673.372 30.8984C674.497 30.8984 675.552 30.625 676.536 30.0781C677.536 29.5312 678.286 28.7969 678.786 27.875V23.0938H675.716C673.606 23.0938 672.021 23.4609 670.958 24.1953C669.896 24.9297 669.364 25.9688 669.364 27.3125C669.364 28.4062 669.724 29.2812 670.442 29.9375C671.177 30.5781 672.153 30.8984 673.372 30.8984Z" fill="#0479E2"/>
<path d="M6.95914 257.551L22.2423 263.727V268.512L2.27164 259.26V255.695L22.2423 246.467V251.252L6.95914 257.551ZM46.6798 273.273C46.4194 272.752 46.2078 271.825 46.0451 270.49C43.9455 272.671 41.439 273.762 38.5255 273.762C35.9214 273.762 33.7811 273.029 32.1046 271.564C30.4445 270.083 29.6144 268.211 29.6144 265.949C29.6144 263.198 30.6561 261.066 32.7394 259.553C34.839 258.023 37.785 257.258 41.5773 257.258H45.9718V255.182C45.9718 253.604 45.4998 252.35 44.5558 251.423C43.6118 250.479 42.2202 250.007 40.381 250.007C38.7697 250.007 37.4188 250.414 36.3283 251.227C35.2378 252.041 34.6925 253.026 34.6925 254.181H30.1515C30.1515 252.863 30.6154 251.594 31.5431 250.373C32.4871 249.136 33.7567 248.159 35.3517 247.443C36.963 246.727 38.729 246.369 40.6496 246.369C43.6932 246.369 46.0776 247.134 47.8029 248.664C49.5281 250.178 50.4233 252.269 50.4884 254.938V267.096C50.4884 269.522 50.7977 271.45 51.4162 272.883V273.273H46.6798ZM39.1847 269.831C40.6007 269.831 41.9435 269.465 43.213 268.732C44.4826 268 45.4022 267.048 45.9718 265.876V260.456H42.4318C36.8979 260.456 34.131 262.075 34.131 265.314C34.131 266.73 34.603 267.837 35.547 268.635C36.491 269.432 37.7036 269.831 39.1847 269.831ZM76.4875 250.055C78.4894 247.598 81.0936 246.369 84.3 246.369C89.8826 246.369 92.6984 249.518 92.7472 255.817V273.273H88.2306V255.793C88.2143 253.888 87.7749 252.481 86.9123 251.569C86.0659 250.658 84.7394 250.202 82.9328 250.202C81.4679 250.202 80.1821 250.593 79.0753 251.374C77.9686 252.155 77.1059 253.18 76.4875 254.45V273.273H71.9709V235.773H76.4875V250.055ZM113.278 250.91C112.595 250.796 111.854 250.739 111.057 250.739C108.095 250.739 106.084 252 105.027 254.523V273.273H100.51V246.857H104.904L104.978 249.909C106.459 247.549 108.558 246.369 111.277 246.369C112.155 246.369 112.823 246.483 113.278 246.711V250.91ZM128.927 273.762C125.346 273.762 122.433 272.59 120.187 270.246C117.941 267.886 116.818 264.736 116.818 260.798V259.968C116.818 257.347 117.314 255.012 118.307 252.961C119.316 250.894 120.716 249.282 122.506 248.127C124.313 246.955 126.266 246.369 128.365 246.369C131.8 246.369 134.469 247.5 136.373 249.762C138.277 252.025 139.23 255.264 139.23 259.479V261.359H121.334C121.399 263.963 122.156 266.071 123.605 267.682C125.069 269.277 126.925 270.075 129.171 270.075C130.766 270.075 132.117 269.749 133.224 269.098C134.331 268.447 135.299 267.585 136.129 266.511L138.888 268.659C136.674 272.061 133.354 273.762 128.927 273.762ZM128.365 250.08C126.542 250.08 125.013 250.747 123.776 252.082C122.539 253.4 121.774 255.256 121.481 257.648H134.713V257.306C134.583 255.012 133.964 253.237 132.858 251.984C131.751 250.715 130.253 250.08 128.365 250.08ZM147.7 273.273V250.348H143.526V246.857H147.7V244.147C147.7 241.315 148.457 239.126 149.971 237.58C151.485 236.034 153.625 235.261 156.392 235.261C157.433 235.261 158.467 235.399 159.492 235.676L159.248 239.338C158.483 239.191 157.669 239.118 156.807 239.118C155.342 239.118 154.211 239.549 153.413 240.412C152.616 241.258 152.217 242.479 152.217 244.074V246.857H157.857V250.348H152.217V273.273H147.7ZM184.516 253.4H164.154V249.47H184.516V253.4ZM184.516 263.532H164.154V259.626H184.516V263.532ZM192.62 247.736L190.057 245.978C191.57 243.862 192.352 241.633 192.401 239.289V235.773H196.868V238.947C196.852 240.575 196.445 242.202 195.648 243.83C194.866 245.441 193.857 246.743 192.62 247.736ZM208.22 273.273H203.703V246.857H208.22V273.273ZM203.337 239.85C203.337 239.118 203.557 238.499 203.996 237.995C204.452 237.49 205.119 237.238 205.998 237.238C206.877 237.238 207.544 237.49 208 237.995C208.456 238.499 208.684 239.118 208.684 239.85C208.684 240.583 208.456 241.193 208 241.681C207.544 242.17 206.877 242.414 205.998 242.414C205.119 242.414 204.452 242.17 203.996 241.681C203.557 241.193 203.337 240.583 203.337 239.85ZM220.743 246.857L220.89 250.178C222.908 247.638 225.545 246.369 228.8 246.369C234.383 246.369 237.198 249.518 237.247 255.817V273.273H232.731V255.793C232.714 253.888 232.275 252.481 231.412 251.569C230.566 250.658 229.239 250.202 227.433 250.202C225.968 250.202 224.682 250.593 223.575 251.374C222.469 252.155 221.606 253.18 220.987 254.45V273.273H216.471V246.857H220.743ZM243.96 259.845C243.96 255.793 244.92 252.538 246.841 250.08C248.762 247.606 251.276 246.369 254.385 246.369C257.477 246.369 259.927 247.427 261.734 249.543V235.773H266.25V273.273H262.1L261.88 270.441C260.073 272.655 257.559 273.762 254.336 273.762C251.276 273.762 248.778 272.508 246.841 270.002C244.92 267.495 243.96 264.224 243.96 260.187V259.845ZM248.477 260.358C248.477 263.353 249.095 265.697 250.332 267.389C251.569 269.082 253.278 269.928 255.459 269.928C258.324 269.928 260.415 268.643 261.734 266.071V253.937C260.383 251.447 258.307 250.202 255.508 250.202C253.294 250.202 251.569 251.056 250.332 252.765C249.095 254.474 248.477 257.005 248.477 260.358ZM285.243 273.762C281.663 273.762 278.749 272.59 276.503 270.246C274.257 267.886 273.134 264.736 273.134 260.798V259.968C273.134 257.347 273.63 255.012 274.623 252.961C275.632 250.894 277.032 249.282 278.822 248.127C280.629 246.955 282.582 246.369 284.682 246.369C288.116 246.369 290.785 247.5 292.69 249.762C294.594 252.025 295.546 255.264 295.546 259.479V261.359H277.651C277.716 263.963 278.472 266.071 279.921 267.682C281.386 269.277 283.241 270.075 285.487 270.075C287.083 270.075 288.433 269.749 289.54 269.098C290.647 268.447 291.615 267.585 292.445 266.511L295.204 268.659C292.991 272.061 289.67 273.762 285.243 273.762ZM284.682 250.08C282.859 250.08 281.329 250.747 280.092 252.082C278.855 253.4 278.09 255.256 277.797 257.648H291.029V257.306C290.899 255.012 290.281 253.237 289.174 251.984C288.067 250.715 286.57 250.08 284.682 250.08ZM310.657 256.501L316.517 246.857H321.79L313.148 259.919L322.059 273.273H316.834L310.731 263.386L304.627 273.273H299.378L308.289 259.919L299.647 246.857H304.871L310.657 256.501ZM327.697 270.905C327.697 270.124 327.925 269.473 328.381 268.952C328.853 268.431 329.553 268.171 330.481 268.171C331.408 268.171 332.108 268.431 332.58 268.952C333.069 269.473 333.313 270.124 333.313 270.905C333.313 271.654 333.069 272.28 332.58 272.785C332.108 273.289 331.408 273.542 330.481 273.542C329.553 273.542 328.853 273.289 328.381 272.785C327.925 272.28 327.697 271.654 327.697 270.905ZM346.3 250.055C348.302 247.598 350.906 246.369 354.112 246.369C359.695 246.369 362.511 249.518 362.56 255.817V273.273H358.043V255.793C358.027 253.888 357.587 252.481 356.725 251.569C355.878 250.658 354.552 250.202 352.745 250.202C351.28 250.202 349.995 250.593 348.888 251.374C347.781 252.155 346.918 253.18 346.3 254.45V273.273H341.783V235.773H346.3V250.055ZM376.45 240.461V246.857H381.382V250.348H376.45V266.73C376.45 267.788 376.67 268.586 377.11 269.123C377.549 269.644 378.298 269.904 379.356 269.904C379.876 269.904 380.593 269.806 381.504 269.611V273.273C380.316 273.599 379.16 273.762 378.037 273.762C376.019 273.762 374.497 273.151 373.472 271.93C372.446 270.71 371.934 268.976 371.934 266.73V250.348H367.124V246.857H371.934V240.461H376.45ZM391.928 246.857L392.05 249.787C393.987 247.508 396.599 246.369 399.887 246.369C403.582 246.369 406.096 247.785 407.431 250.617C408.31 249.347 409.449 248.322 410.849 247.541C412.265 246.76 413.933 246.369 415.854 246.369C421.648 246.369 424.594 249.437 424.692 255.573V273.273H420.175V255.842C420.175 253.954 419.744 252.546 418.881 251.618C418.018 250.674 416.57 250.202 414.535 250.202C412.859 250.202 411.467 250.706 410.361 251.716C409.254 252.708 408.611 254.051 408.432 255.744V273.273H403.891V255.964C403.891 252.123 402.011 250.202 398.251 250.202C395.289 250.202 393.263 251.463 392.172 253.986V273.273H387.655V246.857H391.928ZM437.435 273.273H432.918V235.773H437.435V273.273ZM446.003 247.736L443.44 245.978C444.953 243.862 445.735 241.633 445.783 239.289V235.773H450.251V238.947C450.235 240.575 449.828 242.202 449.03 243.83C448.249 245.441 447.24 246.743 446.003 247.736ZM472.687 257.404L456.549 251.081V246.442L477.399 255.671V259.235L456.549 268.488V263.801L472.687 257.404ZM817.889 257.551L833.172 263.727V268.512L813.201 259.26V255.695L833.172 246.467V251.252L817.889 257.551ZM842.204 276.325H838.322L853.166 237.726H857.024L842.204 276.325ZM879.215 273.273C878.955 272.752 878.743 271.825 878.58 270.49C876.481 272.671 873.974 273.762 871.061 273.762C868.457 273.762 866.316 273.029 864.64 271.564C862.98 270.083 862.15 268.211 862.15 265.949C862.15 263.198 863.191 261.066 865.275 259.553C867.374 258.023 870.32 257.258 874.112 257.258H878.507V255.182C878.507 253.604 878.035 252.35 877.091 251.423C876.147 250.479 874.755 250.007 872.916 250.007C871.305 250.007 869.954 250.414 868.863 251.227C867.773 252.041 867.228 253.026 867.228 254.181H862.687C862.687 252.863 863.151 251.594 864.078 250.373C865.022 249.136 866.292 248.159 867.887 247.443C869.498 246.727 871.264 246.369 873.185 246.369C876.228 246.369 878.613 247.134 880.338 248.664C882.063 250.178 882.959 252.269 883.024 254.938V267.096C883.024 269.522 883.333 271.45 883.951 272.883V273.273H879.215ZM871.72 269.831C873.136 269.831 874.479 269.465 875.748 268.732C877.018 268 877.937 267.048 878.507 265.876V260.456H874.967C869.433 260.456 866.666 262.075 866.666 265.314C866.666 266.73 867.138 267.837 868.082 268.635C869.026 269.432 870.239 269.831 871.72 269.831ZM907.095 257.404L890.957 251.081V246.442L911.807 255.671V259.235L890.957 268.488V263.801L907.095 257.404Z" fill="#FFB33F"/>
<path d="M509.087 241.584H497.661V273.273H492.998V241.584H481.597V237.726H509.087V241.584ZM523.173 273.762C519.592 273.762 516.679 272.59 514.433 270.246C512.187 267.886 511.064 264.736 511.064 260.798V259.968C511.064 257.347 511.56 255.012 512.553 252.961C513.562 250.894 514.962 249.282 516.752 248.127C518.559 246.955 520.512 246.369 522.612 246.369C526.046 246.369 528.715 247.5 530.619 249.762C532.524 252.025 533.476 255.264 533.476 259.479V261.359H515.58C515.645 263.963 516.402 266.071 517.851 267.682C519.316 269.277 521.171 270.075 523.417 270.075C525.012 270.075 526.363 269.749 527.47 269.098C528.577 268.447 529.545 267.585 530.375 266.511L533.134 268.659C530.92 272.061 527.6 273.762 523.173 273.762ZM522.612 250.08C520.789 250.08 519.259 250.747 518.022 252.082C516.785 253.4 516.02 255.256 515.727 257.648H528.959V257.306C528.829 255.012 528.21 253.237 527.104 251.984C525.997 250.715 524.5 250.08 522.612 250.08ZM547.952 262.018H544.656V273.273H540.115V246.857H544.656V258.039H547.611L556.497 246.857H561.966L551.517 259.553L562.845 273.273H557.108L547.952 262.018ZM577.932 270.075C579.543 270.075 580.951 269.587 582.155 268.61C583.36 267.634 584.027 266.413 584.157 264.948H588.43C588.348 266.462 587.828 267.902 586.867 269.269C585.907 270.637 584.621 271.727 583.01 272.541C581.415 273.355 579.722 273.762 577.932 273.762C574.335 273.762 571.47 272.565 569.338 270.173C567.222 267.764 566.164 264.476 566.164 260.309V259.553C566.164 256.981 566.636 254.694 567.58 252.692C568.524 250.69 569.875 249.136 571.633 248.029C573.407 246.922 575.499 246.369 577.907 246.369C580.87 246.369 583.327 247.256 585.28 249.03C587.25 250.804 588.3 253.107 588.43 255.939H584.157C584.027 254.23 583.376 252.831 582.204 251.74C581.049 250.633 579.616 250.08 577.907 250.08C575.612 250.08 573.83 250.91 572.561 252.57C571.307 254.214 570.681 256.598 570.681 259.723V260.578C570.681 263.622 571.307 265.965 572.561 267.609C573.814 269.253 575.604 270.075 577.932 270.075ZM614.137 250.519H605.275V273.273H600.758V250.519H592.067V246.857H614.137V250.519ZM643.529 270.075C645.141 270.075 646.549 269.587 647.753 268.61C648.958 267.634 649.625 266.413 649.755 264.948H654.028C653.946 266.462 653.425 267.902 652.465 269.269C651.505 270.637 650.219 271.727 648.608 272.541C647.013 273.355 645.32 273.762 643.529 273.762C639.932 273.762 637.068 272.565 634.936 270.173C632.82 267.764 631.762 264.476 631.762 260.309V259.553C631.762 256.981 632.234 254.694 633.178 252.692C634.122 250.69 635.473 249.136 637.231 248.029C639.005 246.922 641.096 246.369 643.505 246.369C646.467 246.369 648.925 247.256 650.878 249.03C652.848 250.804 653.897 253.107 654.028 255.939H649.755C649.625 254.23 648.974 252.831 647.802 251.74C646.646 250.633 645.214 250.08 643.505 250.08C641.21 250.08 639.428 250.91 638.158 252.57C636.905 254.214 636.279 256.598 636.279 259.723V260.578C636.279 263.622 636.905 265.965 638.158 267.609C639.412 269.253 641.202 270.075 643.529 270.075ZM670.701 270.075C672.313 270.075 673.721 269.587 674.925 268.61C676.129 267.634 676.797 266.413 676.927 264.948H681.199C681.118 266.462 680.597 267.902 679.637 269.269C678.677 270.637 677.391 271.727 675.779 272.541C674.184 273.355 672.492 273.762 670.701 273.762C667.104 273.762 664.24 272.565 662.108 270.173C659.992 267.764 658.934 264.476 658.934 260.309V259.553C658.934 256.981 659.406 254.694 660.35 252.692C661.294 250.69 662.645 249.136 664.403 248.029C666.177 246.922 668.268 246.369 670.677 246.369C673.639 246.369 676.097 247.256 678.05 249.03C680.019 250.804 681.069 253.107 681.199 255.939H676.927C676.797 254.23 676.146 252.831 674.974 251.74C673.818 250.633 672.386 250.08 670.677 250.08C668.382 250.08 666.6 250.91 665.33 252.57C664.077 254.214 663.45 256.598 663.45 259.723V260.578C663.45 263.622 664.077 265.965 665.33 267.609C666.584 269.253 668.374 270.075 670.701 270.075ZM692.209 255.964H699.07C702.064 255.996 704.432 256.777 706.174 258.307C707.916 259.837 708.786 261.913 708.786 264.533C708.786 267.17 707.891 269.286 706.101 270.881C704.31 272.476 701.902 273.273 698.874 273.273H687.693V246.857H692.209V255.964ZM718.21 273.273H713.669V246.857H718.21V273.273ZM692.209 259.65V269.587H698.923C700.616 269.587 701.926 269.155 702.854 268.293C703.781 267.414 704.245 266.218 704.245 264.704C704.245 263.239 703.79 262.043 702.878 261.115C701.983 260.171 700.722 259.683 699.094 259.65H692.209ZM748.751 246.857V273.273H744.21V250.593H735.226L734.689 260.48C734.396 265.021 733.631 268.268 732.394 270.221C731.173 272.175 729.228 273.192 726.559 273.273H724.752V269.294L726.046 269.196C727.511 269.033 728.561 268.187 729.195 266.657C729.83 265.127 730.237 262.295 730.416 258.161L730.904 246.857H748.751ZM765.23 262.018H761.934V273.273H757.393V246.857H761.934V258.039H764.888L773.775 246.857H779.243L768.794 259.553L780.122 273.273H774.385L765.23 262.018ZM802.094 246.857H806.611V273.273H802.094V254.011L789.911 273.273H785.395V246.857H789.911V266.144L802.094 246.857Z" fill="#0479E2"/>
<path d="M98.6464 228.354C98.8417 228.549 99.1583 228.549 99.3536 228.354L102.536 225.172C102.731 224.976 102.731 224.66 102.536 224.464C102.34 224.269 102.024 224.269 101.828 224.464L99 227.293L96.1716 224.464C95.9763 224.269 95.6597 224.269 95.4645 224.464C95.2692 224.66 95.2692 224.976 95.4645 225.172L98.6464 228.354ZM98.5 209L98.5 228L99.5 228L99.5 209L98.5 209Z" fill="black"/>
<path d="M329.646 228.354C329.842 228.549 330.158 228.549 330.354 228.354L333.536 225.172C333.731 224.976 333.731 224.66 333.536 224.464C333.34 224.269 333.024 224.269 332.828 224.464L330 227.293L327.172 224.464C326.976 224.269 326.66 224.269 326.464 224.464C326.269 224.66 326.269 224.976 326.464 225.172L329.646 228.354ZM329.5 209L329.5 228L330.5 228L330.5 209L329.5 209Z" fill="black"/>
</svg>
